<svg width="136" height="136" viewBox="0 0 136 136" fill="none" xmlns="http://www.w3.org/2000/svg">
<g clip-path="url(#clip0_1856_6390)">
<path d="M48.4625 19.3444C21.067 30.5286 7.21013 56.1392 19.7567 86.8815C29.3127 110.29 50.8836 129.696 87.0281 114.946C87.161 114.894 87.2797 114.837 87.4078 114.78C87.5408 114.728 87.6642 114.685 87.7971 114.628C123.942 99.8791 125.779 70.917 116.223 47.509C103.676 16.7667 75.8581 8.16492 48.4578 19.3444" fill="#FABA9C"/>
<path d="M104.606 86.7723L101.515 86.8815C101.515 86.8815 101.658 76.2575 91.4088 75.7163C91.2189 75.6973 91.1904 75.4647 91.1904 75.403C91.1904 75.3983 91.1904 75.3935 91.1904 75.3888C91.1667 74.5675 90.4973 73.9124 89.6713 73.9124C88.8453 73.9124 88.1475 74.596 88.1475 75.4363C88.1475 75.498 88.1522 75.5597 88.1617 75.6214C88.1617 75.6214 88.1855 75.8682 87.9719 75.9015C77.9744 77.4823 78.4017 87.7835 78.4017 87.7835C78.4017 87.7835 76.1563 87.8405 75.3968 87.9022C74.6372 87.9639 74.7796 88.5335 74.7796 88.5335L74.8223 89.6301C74.8223 89.6301 73.2511 90.6128 72.6149 90.7219C71.9788 90.8311 71.5184 90.9783 71.3949 89.9054C71.0864 84.8877 70.6734 82.2626 69.667 79.7276C67.9818 72.9867 61.5257 69.6638 61.763 67.4089C62.0004 65.154 64.6351 64.8075 67.3884 64.5749C70.1417 64.3422 71.656 56.2722 71.4614 52.3131C71.2668 48.354 69.3679 46.8824 69.3679 43.8537C69.3679 40.8251 74.7369 35.1 73.8255 30.5191C72.914 25.9429 69.1306 25.4492 64.1651 25.9144C59.1996 26.3796 55.6962 27.1534 52.9049 29.1709C50.1089 31.1884 50.1184 34.5161 50.5456 36.415C50.9729 38.3186 53.7926 40.056 53.7214 42.5388C53.6455 45.0215 51.5283 47.884 51.7609 50.9886C51.9935 54.0932 54.2436 57.5871 54.2863 59.8372C54.3243 62.0874 46.7194 66.9721 46.0976 73.7653C45.6656 78.5076 49.8573 88.8516 50.4032 92.3645C50.9491 95.8773 50.9349 97.4913 51.139 99.5848C51.3431 101.678 52.022 103.905 53.6787 105.509C55.3402 107.114 57.4194 108.832 63.2916 108.657C67.6115 108.524 68.1906 108.111 70.2366 107.384C70.6117 107.185 72.069 106.739 72.0928 104.892C72.1735 102.476 72.9615 101.83 74.3239 101.17C76.7687 99.9931 79.5267 98.3743 81.3639 97.14C83.201 95.9058 85.0144 94.8947 89.9561 94.2206C92.1683 93.9215 95.5435 89.9387 95.5435 89.9387C95.5435 89.9387 104.345 89.4782 104.734 89.4782C105.123 89.4782 105.237 89.388 105.237 88.9133V87.342C105.237 86.6964 104.62 86.7818 104.62 86.7818L104.606 86.7723Z" fill="white"/>
<path d="M12.7302 103.99L13.3616 104.883C12.6542 105.381 12.5118 106.084 12.9913 106.763C13.409 107.351 13.9075 107.484 14.3964 107.142C14.8094 106.853 14.8806 106.511 14.6955 105.723L14.4297 104.588C14.2113 103.72 14.4487 103.017 15.137 102.528C16.0199 101.906 17.1308 102.191 17.8523 103.216C18.6119 104.294 18.441 105.486 17.4203 106.207L16.789 105.315C17.3871 104.892 17.4963 104.327 17.0691 103.72C16.7083 103.207 16.2383 103.098 15.8253 103.387C15.455 103.648 15.3886 104.09 15.5832 104.906L15.8206 105.937C16.0247 106.815 15.7826 107.498 15.0468 108.016C14.1164 108.671 12.977 108.396 12.2175 107.318C11.3298 106.06 11.5102 104.854 12.7302 103.995V103.99Z" fill="black"/>
<path d="M20.3832 106.853L22.8992 109.749L22.1634 110.389L20.3642 108.32L18.7739 109.701L20.5731 111.771L19.8373 112.412L18.0381 110.342L16.0918 112.037L15.375 111.211L20.3879 106.848L20.3832 106.853Z" fill="black"/>
<path d="M22.6934 117.667L20.8372 115.915L20.073 116.352L19.209 115.535L25.3992 112.241L26.097 112.901L23.1633 119.271L22.2994 118.455L22.6934 117.662V117.667ZM23.1491 116.755L24.6919 113.684L21.7107 115.402L23.1443 116.76L23.1491 116.755Z" fill="black"/>
<path d="M29.2415 121.317L30.1482 121.925C29.664 122.642 29.7826 123.349 30.4662 123.81C31.0644 124.213 31.5818 124.161 31.9141 123.662C32.1942 123.245 32.142 122.898 31.691 122.229L31.0359 121.26C30.5232 120.525 30.4947 119.784 30.9647 119.086C31.5676 118.189 32.7069 118.061 33.7465 118.763C34.8431 119.499 35.1042 120.672 34.4016 121.711L33.4949 121.099C33.9031 120.491 33.8034 119.922 33.1911 119.509C32.6736 119.157 32.1942 119.224 31.9094 119.642C31.653 120.021 31.7527 120.453 32.2227 121.146L32.8113 122.025C33.3145 122.775 33.3287 123.496 32.8255 124.246C32.1894 125.191 31.0264 125.333 29.9346 124.598C28.6576 123.738 28.3965 122.547 29.232 121.308L29.2415 121.317Z" fill="black"/>
<path d="M35.488 124.066C36.3519 122.376 38.2128 121.54 40.1306 122.523C42.0532 123.501 42.4757 125.494 41.6117 127.189C40.7478 128.879 38.8869 129.71 36.9691 128.732C35.0465 127.754 34.624 125.76 35.488 124.066ZM40.5911 126.662C41.2225 125.437 40.9994 124.056 39.6891 123.391C38.3789 122.727 37.1305 123.354 36.5133 124.588C35.882 125.813 36.1051 127.194 37.4153 127.859C38.7255 128.528 39.974 127.896 40.5911 126.662Z" fill="black"/>
<path d="M45.0674 124.968L48.6705 126.287L48.3334 127.208L45.7557 126.264L45.0294 128.243L47.6071 129.188L47.2701 130.104L44.6924 129.159L43.8047 131.585L42.7793 131.21L45.0674 124.968Z" fill="black"/>
<path d="M50.9102 126.947L51.964 127.237L50.1886 133.641L49.1348 133.351L50.9102 126.947Z" fill="black"/>
<path d="M60.6609 134.751L58.126 134.433L57.7652 135.24L56.5879 135.093L59.6403 128.784L60.5897 128.903L61.9806 135.777L60.8033 135.63L60.6562 134.761L60.6609 134.751ZM60.49 133.745L59.9251 130.355L58.5342 133.498L60.4948 133.745H60.49Z" fill="black"/>
<path d="M63.245 129.392L64.3938 129.373L66.0458 134.182L67.4604 129.326L68.2674 129.311L69.834 134.12L71.3341 129.259L72.4829 129.24L70.2897 135.924L69.5017 135.938L67.8971 131.225L66.435 135.986L65.647 136L63.2402 129.387L63.245 129.392Z" fill="black"/>
<path d="M77.7188 134.41L75.1838 134.732L75.0367 135.601L73.8594 135.753L75.2408 128.879L76.1902 128.756L79.2568 135.065L78.0796 135.217L77.7188 134.41ZM77.301 133.479L75.9054 130.337L75.3452 133.731L77.3058 133.479H77.301Z" fill="black"/>
<path d="M84.5824 131.685L86.3626 133.461L85.1521 133.755L83.5001 132.103L82.4557 132.354L82.9257 134.291L81.8623 134.548L80.291 128.087L82.6741 127.508C83.9653 127.194 85.1188 127.911 85.4369 129.231C85.6837 130.237 85.3324 131.163 84.5777 131.68L84.5824 131.685ZM82.2278 131.41L83.4811 131.106C84.1836 130.935 84.5634 130.256 84.3783 129.501C84.1931 128.747 83.5428 128.315 82.8402 128.486L81.587 128.789L82.2231 131.41H82.2278Z" fill="black"/>
<path d="M86.8809 126.373L88.9886 125.585C91.0536 124.816 92.6866 125.907 93.2895 127.526C93.8923 129.145 93.3749 131.039 91.3099 131.813L89.2022 132.601L86.8809 126.373ZM90.8827 130.93C92.4017 130.36 92.6581 129.031 92.2403 127.92C91.8273 126.809 90.764 125.969 89.2402 126.534L88.2433 126.904L89.881 131.3L90.8779 130.93H90.8827Z" fill="black"/>
<path d="M95.4485 127.792L96.4216 127.298C96.8109 128.067 97.4897 128.314 98.2256 127.939C98.8712 127.612 99.0753 127.137 98.8047 126.601C98.5768 126.15 98.2493 126.031 97.4423 126.097L96.2792 126.197C95.3868 126.287 94.7269 125.95 94.3472 125.195C93.8582 124.227 94.3044 123.173 95.42 122.608C96.5973 122.01 97.7508 122.357 98.3157 123.472L97.3426 123.966C97.0103 123.316 96.4691 123.121 95.8093 123.453C95.2491 123.738 95.0735 124.189 95.3013 124.635C95.5055 125.043 95.9327 125.167 96.7682 125.096L97.8221 125.01C98.724 124.939 99.3601 125.276 99.7684 126.078C100.281 127.094 99.8443 128.181 98.6623 128.775C97.2904 129.468 96.1178 129.112 95.4485 127.783V127.792Z" fill="black"/>
<path d="M105.717 120.913L106.172 119.931C106.429 119.38 106.41 118.886 106.101 118.464C105.764 118.003 105.218 117.923 104.767 118.25C104.183 118.678 104.141 119.309 104.658 120.011L103.747 120.681C102.916 119.546 103.096 118.298 104.202 117.486C105.251 116.717 106.324 116.812 106.998 117.733C107.463 118.369 107.52 119.233 107.145 120.073L106.709 121.051C106.376 121.801 106.357 122.11 106.614 122.651L109.191 120.757L109.771 121.545L106.149 124.198C105.308 123.05 105.175 122.062 105.712 120.904L105.717 120.913Z" fill="black"/>
<path d="M109.59 117.557C108.123 115.943 107.971 114.51 109.172 113.418C110.373 112.326 111.783 112.606 113.255 114.22C114.726 115.834 114.873 117.268 113.672 118.36C112.471 119.451 111.061 119.171 109.59 117.557ZM112.49 114.918C111.413 113.731 110.53 113.47 109.813 114.12C109.096 114.771 109.277 115.673 110.354 116.859C111.432 118.046 112.315 118.307 113.032 117.657C113.748 117.007 113.568 116.105 112.49 114.918Z" fill="black"/>
<path d="M116.189 111.557L116.426 110.498C116.559 109.905 116.435 109.43 116.041 109.084C115.614 108.709 115.063 108.742 114.693 109.16C114.214 109.701 114.309 110.328 114.964 110.907L114.214 111.752C113.16 110.821 113.07 109.563 113.981 108.533C114.84 107.56 115.908 107.427 116.763 108.182C117.352 108.704 117.594 109.535 117.409 110.437L117.19 111.486C117.024 112.288 117.071 112.597 117.437 113.071L119.554 110.674L120.285 111.32L117.314 114.685C116.245 113.741 115.908 112.81 116.184 111.562L116.189 111.557Z" fill="black"/>
<path d="M123.096 104.18L122.564 104.93L124.193 106.084L123.566 106.967L121.938 105.813L120.461 107.897L116.82 105.315L117.447 104.432L120.29 106.449L121.14 105.248L119.669 104.204L120.295 103.321L121.767 104.365L122.298 103.615L123.096 104.18Z" fill="black"/>
<path d="M9.56835 98.1084C9.32624 97.6432 9.50663 97.0688 9.9766 96.8267C10.4418 96.5846 11.0115 96.7698 11.2536 97.235C11.4957 97.7002 11.3105 98.2746 10.8453 98.512C10.7077 98.5879 10.5605 98.6211 10.4133 98.6211C10.0668 98.6211 9.7345 98.4313 9.56835 98.1084Z" fill="#231F20"/>
<path d="M124.909 98.4505C124.444 98.2084 124.259 97.6387 124.501 97.1688C124.743 96.7035 125.313 96.5231 125.778 96.7653C126.243 97.0026 126.428 97.577 126.186 98.0422C126.02 98.3698 125.688 98.5549 125.341 98.5549C125.199 98.5549 125.047 98.5217 124.909 98.4505Z" fill="#231F20"/>
<path d="M6.96649 92.4359C6.77186 91.9469 7.00922 91.3963 7.49342 91.1969C7.97763 91.0023 8.53304 91.2396 8.72767 91.7286C8.9223 92.2128 8.68969 92.7634 8.20074 92.9628C8.08681 93.0055 7.96339 93.0293 7.84471 93.0293C7.46969 93.0293 7.11365 92.8062 6.96649 92.4359Z" fill="#231F20"/>
<path d="M127.549 92.8917C127.06 92.6971 126.827 92.1464 127.022 91.6575C127.216 91.1733 127.767 90.9359 128.256 91.1306C128.74 91.3252 128.978 91.8806 128.783 92.3648C128.636 92.7351 128.28 92.9629 127.9 92.9629C127.786 92.9629 127.663 92.9392 127.549 92.8917Z" fill="#231F20"/>
<path d="M4.92131 86.5397C4.7694 86.0318 5.05897 85.5048 5.56217 85.3577C6.06536 85.2105 6.59229 85.5001 6.73945 86.0033C6.89136 86.5065 6.60178 87.0334 6.09859 87.1806C6.00839 87.2043 5.9182 87.2185 5.828 87.2185C5.41975 87.2185 5.03998 86.9527 4.92131 86.5397Z" fill="#231F20"/>
<path d="M129.647 87.1093C129.144 86.9621 128.854 86.4352 129.001 85.932C129.148 85.4288 129.675 85.1392 130.178 85.2864C130.682 85.4335 130.971 85.9605 130.824 86.4637C130.701 86.8814 130.326 87.1472 129.913 87.1472C129.822 87.1472 129.737 87.1378 129.647 87.1093Z" fill="#231F20"/>
<path d="M3.4452 80.473C3.34551 79.9556 3.68256 79.4571 4.19999 79.3622C4.71268 79.2625 5.21113 79.5996 5.31082 80.1122C5.41051 80.6249 5.07346 81.1234 4.56077 81.2231C4.49906 81.2373 4.43735 81.2421 4.38038 81.2421C3.93415 81.2421 3.5354 80.9288 3.4452 80.473Z" fill="#231F20"/>
<path d="M131.18 81.1519C130.663 81.0523 130.326 80.5538 130.426 80.0411C130.525 79.5284 131.019 79.1866 131.536 79.2863C132.049 79.386 132.386 79.8845 132.291 80.3972C132.201 80.8529 131.807 81.1709 131.361 81.1709C131.299 81.1709 131.237 81.1614 131.18 81.1519Z" fill="#231F20"/>
<path d="M2.5567 74.297C2.50923 73.7749 2.89374 73.3096 3.41118 73.2574C3.93336 73.21 4.39858 73.5897 4.4508 74.1166C4.49827 74.6341 4.11375 75.0993 3.59157 75.1515H3.50137C3.01717 75.1515 2.60417 74.786 2.5567 74.297Z" fill="#231F20"/>
<path d="M132.134 75.0757C131.612 75.0283 131.232 74.5631 131.279 74.0409C131.327 73.5187 131.792 73.1342 132.314 73.1864C132.836 73.2339 133.216 73.6991 133.169 74.2213C133.121 74.715 132.708 75.0805 132.224 75.0805C132.196 75.0805 132.167 75.0805 132.134 75.0805V75.0757Z" fill="#231F20"/>
<path d="M2.25781 68.064C2.25781 67.5371 2.68505 67.1099 3.20723 67.1099C3.73416 67.1099 4.15666 67.5371 4.15666 68.0593C4.15666 68.5862 3.73416 69.0087 3.21198 69.0087C2.68505 69.0087 2.25781 68.5862 2.25781 68.064Z" fill="#231F20"/>
<path d="M131.564 67.9882V67.9217V67.8458C131.564 67.3188 131.987 66.8916 132.509 66.8916C133.036 66.8916 133.463 67.3141 133.463 67.841C133.463 67.841 133.463 67.8885 133.459 67.917C133.459 67.917 133.463 67.9644 133.463 67.9882C133.463 68.5104 133.036 68.9376 132.514 68.9376C131.987 68.9376 131.564 68.5104 131.564 67.9882Z" fill="#231F20"/>
<path d="M3.40225 62.8658C2.88007 62.8136 2.49555 62.3531 2.54303 61.831C2.59524 61.3088 3.05571 60.9243 3.5779 60.9717C4.10008 61.0192 4.48459 61.4844 4.43712 62.0066C4.38965 62.4956 3.97665 62.8658 3.49245 62.8658H3.40225Z" fill="#231F20"/>
<path d="M131.266 61.7886C131.218 61.2665 131.598 60.806 132.12 60.7538C132.642 60.7016 133.108 61.0861 133.155 61.6082C133.207 62.1304 132.823 62.5957 132.301 62.6431C132.272 62.6431 132.239 62.6431 132.21 62.6431C131.726 62.6431 131.313 62.2776 131.266 61.7839V61.7886Z" fill="#231F20"/>
<path d="M120.974 86.3265H120.361V85.9609H121.99V86.3265H121.372V88.4722H120.974V86.3265ZM122.398 85.9609H123.058L123.68 87.7791L124.301 85.9609H124.961V88.4674H124.563V86.4072L123.86 88.4674H123.504L122.801 86.4072V88.4674H122.403V85.9609H122.398Z" fill="black"/>
<path d="M4.27635 51.3731C5.60079 51.6627 6.34609 52.7925 6.06601 54.0932L5.77644 55.4176L7.72275 55.8401L7.49014 56.9082L0.996094 55.4983L1.51353 53.1058C1.79361 51.8051 2.94241 51.0835 4.2716 51.3731H4.27635ZM4.04374 52.4412C3.2842 52.275 2.61486 52.6738 2.46295 53.3811L2.18762 54.6439L4.82227 55.2135L5.0976 53.9508C5.24951 53.2435 4.80802 52.6073 4.04374 52.4412Z" fill="black"/>
<path d="M7.89294 47.1006L10.3377 46.5262L9.94844 47.7083L7.67457 48.2399L7.33753 49.2606L9.23162 49.8824L8.88983 50.9173L2.57617 48.8428L3.34046 46.5167C3.75346 45.254 4.97346 44.6559 6.25993 45.0784C7.24258 45.4012 7.84547 46.1892 7.88344 47.1006H7.89294ZM6.41659 48.952L6.82009 47.7272C7.0432 47.0437 6.66818 46.3601 5.93238 46.118C5.19183 45.8759 4.48451 46.2034 4.2614 46.887L3.85789 48.1118L6.42133 48.952H6.41659Z" fill="black"/>
<path d="M7.7781 43.8253C6.05489 43.0231 5.16244 41.1907 6.07388 39.2349C6.98533 37.2791 8.96487 36.7901 10.6833 37.5924C12.4018 38.3946 13.299 40.227 12.3875 42.1828C11.4761 44.1386 9.49655 44.6276 7.7781 43.8253ZM10.1991 38.6367C8.95538 38.0481 7.58346 38.3187 6.96159 39.6526C6.33972 40.9866 7.01381 42.2113 8.26705 42.7857C9.51079 43.3744 10.8827 43.1038 11.5046 41.7698C12.1265 40.4359 11.4524 39.2111 10.1991 38.6367Z" fill="black"/>
<path d="M8.86608 34.0987L10.0623 32.1951C11.2349 30.3295 13.1954 30.2061 14.6576 31.1223C16.1197 32.0432 16.8602 33.8614 15.6877 35.727L14.4914 37.6306L8.86133 34.0987H8.86608ZM14.8142 35.2855C15.6782 33.9089 15.0706 32.6983 14.0642 32.067C13.0578 31.4356 11.7048 31.4166 10.8409 32.7885L10.276 33.6905L14.2493 36.1827L14.8142 35.2808V35.2855Z" fill="black"/>
<path d="M16.6077 30.3579L13.1328 27.5904L13.8116 26.7359L17.2343 29.4655C17.9844 30.0636 18.7059 29.9497 19.2281 29.2946C19.7503 28.6395 19.6981 27.9084 18.948 27.315L15.5254 24.5854L16.2042 23.731L19.6791 26.4985C20.8896 27.4622 20.9181 28.7392 19.9876 29.9022C19.0572 31.0652 17.8087 31.3216 16.5982 30.3579H16.6077Z" fill="black"/>
<path d="M20.0168 24.381C18.5879 22.9379 18.4835 20.9963 20.0215 19.4725C21.3222 18.1813 22.8983 18.0863 24.0281 18.9408L23.1784 19.7811C22.3951 19.2874 21.5026 19.3823 20.7194 20.1561C19.675 21.1909 19.7652 22.4869 20.8333 23.5693C21.9014 24.6516 23.1974 24.756 24.2417 23.7212C25.025 22.9474 25.1294 22.0549 24.6452 21.2669L25.495 20.4267C26.3399 21.566 26.226 23.1373 24.9206 24.4237C23.3825 25.9476 21.4409 25.8241 20.012 24.3763L20.0168 24.381Z" fill="black"/>
<path d="M25.675 15.9976L24.1702 17.1986L23.5293 16.3964L27.4029 13.3013L28.0438 14.1035L26.5295 15.314L30.0376 19.7051L29.1831 20.384L25.675 15.9929V15.9976Z" fill="black"/>
<path d="M33.2996 13.2348C32.3692 11.578 32.7157 9.56999 34.5908 8.51613C36.4707 7.46227 38.3648 8.21706 39.2905 9.8738C40.2209 11.5305 39.8744 13.5386 37.9993 14.5924C36.1194 15.6463 34.2253 14.8915 33.2996 13.2348ZM38.2936 10.434C37.629 9.2282 36.3568 8.64905 35.0703 9.36586C33.7886 10.0874 33.6177 11.4736 34.3013 12.6699C34.9659 13.8756 36.2381 14.4548 37.5246 13.738C38.8063 13.0164 38.9772 11.6302 38.2936 10.434Z" fill="black"/>
<path d="M39.8368 6.01452L43.3734 4.52393L43.7531 5.42588L41.2229 6.49398L42.0394 8.43555L44.5696 7.36745L44.9494 8.2694L42.4192 9.3375L43.4208 11.7158L42.4145 12.1383L39.832 6.01452H39.8368Z" fill="black"/>
<path d="M50.4833 3.3137L48.6177 3.7979L48.3613 2.80575L53.1607 1.56201L53.417 2.55416L51.5419 3.03836L52.9518 8.47855L51.8932 8.75389L50.4833 3.3137Z" fill="black"/>
<path d="M55.1844 1.14902L56.262 0.987622L56.6893 3.81215L59.3999 3.4039L58.9726 0.579371L60.0502 0.417969L61.0424 6.98797L59.9648 7.14937L59.5423 4.37231L56.8269 4.78056L57.2494 7.55762L56.1718 7.71903L55.1797 1.14902H55.1844Z" fill="black"/>
<path d="M62.7598 0.18039L66.5907 0L66.6382 0.977905L63.8991 1.10608L63.9845 2.98593L66.7236 2.85776L66.7711 3.83567L64.032 3.96384L64.1174 5.79148L66.8565 5.6633L66.904 6.64121L63.0731 6.8216L62.7645 0.185137L62.7598 0.18039Z" fill="black"/>
<path d="M77.4574 0.631448L73.5267 6.92137L72.3352 6.80269L73.9113 4.27723L71.832 0.0712891L73.09 0.194714L74.5854 3.21388L76.2753 0.508023L77.4669 0.626701L77.4574 0.631448Z" fill="black"/>
<path d="M79.2279 0.935059L82.9923 1.67561L82.8025 2.63452L80.1108 2.10285L79.7501 3.94947L82.4417 4.48115L82.2518 5.44007L79.5602 4.90839L79.2041 6.70755L81.8958 7.23922L81.7059 8.19814L77.9414 7.45759L79.2231 0.935059H79.2279Z" fill="black"/>
<path d="M87.1171 8.83892L84.6723 8.09837L84.1834 8.83417L83.0488 8.49238L87.1219 2.77686L88.038 3.05219L88.2564 10.0637L87.1219 9.72188V8.83892H87.1171ZM87.1171 7.81829L87.1266 4.37663L85.2278 7.24389L87.1171 7.81829Z" fill="black"/>
<path d="M93.5062 9.89749L93.8812 12.385L92.7372 11.9008L92.3906 9.59368L91.4032 9.17593L90.6294 11.0131L89.623 10.5906L92.2007 4.4668L94.4604 5.41622C95.6851 5.92891 96.1836 7.19164 95.6614 8.44488C95.2579 9.39905 94.4271 9.93547 93.5157 9.90224L93.5062 9.89749ZM91.7782 8.27398L92.9698 8.77243C93.6344 9.05251 94.3464 8.73445 94.6455 8.01764C94.9446 7.30082 94.6787 6.56977 94.0141 6.28969L92.8226 5.79124L91.7782 8.27398Z" fill="black"/>
<path d="M96.7247 10.3584L102.64 13.7288L102.231 14.4457L96.3164 11.0752L96.7247 10.3584Z" fill="black"/>
<path d="M107.259 18.5327C106.575 19.4584 105.516 19.5486 104.458 18.7653L102.568 17.3744L106.513 12.0244L108.303 13.3441C109.371 14.1321 109.637 15.1338 108.996 16.0025C108.46 16.7288 107.8 16.7953 107.088 16.4582C107.629 16.9424 107.823 17.7684 107.259 18.5327ZM106.447 17.7922C106.779 17.3412 106.67 16.7858 106.171 16.4202L105.17 15.6797L104.016 17.2462L105.008 17.9773C105.535 18.3666 106.067 18.3001 106.447 17.7874V17.7922ZM106.822 13.4438L105.739 14.9107L106.613 15.5515C107.164 15.9598 107.695 15.9265 108.032 15.4661C108.374 15.0009 108.251 14.4977 107.695 14.0847L106.822 13.4438Z" fill="black"/>
<path d="M111.927 16.1924L114.775 18.7606L114.12 19.4869L112.083 17.6497L110.825 19.0454L112.862 20.8825L112.207 21.6088L110.17 19.7717L108.945 21.1341L110.982 22.9713L110.327 23.6976L107.479 21.1294L111.927 16.1924Z" fill="black"/>
<path d="M116.137 20.0565L116.939 20.93L114.347 25.3923L119.018 23.1943L119.821 24.0678L113.436 26.9351L112.729 26.166L116.137 20.0518V20.0565Z" fill="black"/>
<path d="M121.059 25.6249L123.366 28.6868L122.583 29.2754L120.931 27.0822L119.431 28.212L121.083 30.4052L120.304 30.9938L118.652 28.8007L117.19 29.902L118.842 32.0952L118.059 32.6838L115.752 29.6219L121.059 25.6201V25.6249Z" fill="black"/>
<path d="M122.722 36.0213L121.568 38.2572L120.922 37.1938L121.995 35.1194L121.44 34.2032L119.736 35.238L119.166 34.3076L124.844 30.8564L126.116 32.9499C126.809 34.0845 126.472 35.3994 125.314 36.1067C124.431 36.6432 123.438 36.591 122.722 36.026V36.0213ZM122.271 33.6952L122.94 34.7965C123.315 35.4137 124.079 35.5703 124.744 35.1668C125.408 34.7633 125.617 34.0133 125.242 33.3961L124.573 32.2948L122.271 33.6952Z" fill="black"/>
<path d="M124.582 42.4533L123.485 40.1462L122.611 40.2791L122.104 39.2062L129.063 38.3755L129.476 39.2395L124.439 44.1147L123.931 43.0419L124.582 42.4485V42.4533ZM125.336 41.7697L127.886 39.4626L124.487 39.9848L125.336 41.7649V41.7697Z" fill="black"/>
<path d="M129.381 51.0364L129.143 50.3433C127.582 50.5237 126.286 49.7594 125.721 48.0884C125.047 46.1041 126.029 44.3619 127.876 43.7448C129.632 43.1562 131.607 43.7448 132.352 45.9332C132.875 47.4713 132.338 48.867 131.242 49.3607L130.857 48.2261C131.441 47.8748 131.735 47.1438 131.427 46.2465C130.905 44.7085 129.547 44.3762 128.246 44.8319C126.941 45.2686 126.195 46.4412 126.646 47.7704C126.998 48.8052 127.7 49.3369 128.773 49.2515L128.36 48.0362L129.286 47.7229L130.302 50.7183L129.376 51.0316L129.381 51.0364Z" fill="black"/>
<path d="M133.934 51.8431L134.741 55.5933L133.787 55.7975L133.213 53.1154L131.376 53.5094L131.95 56.1915L130.996 56.3956L130.421 53.7135L128.627 54.098L129.201 56.7801L128.243 56.9842L127.436 53.234L133.934 51.8384V51.8431Z" fill="black"/>
</g>
<defs>
<clipPath id="clip0_1856_6390">
<rect width="136" height="136" fill="white"/>
</clipPath>
</defs>
</svg>
