<svg width="48" height="48" viewBox="0 0 48 48" fill="none" xmlns="http://www.w3.org/2000/svg">
<g clip-path="url(#clip0_1491_8145)">
<path fill-rule="evenodd" clip-rule="evenodd" d="M48 23.9993C48 37.2541 37.2548 47.9993 24 47.9993C10.7452 47.9993 0 37.2541 0 23.9993C0 10.7444 10.7452 -0.000732422 24 -0.000732422C37.2548 -0.000732422 48 10.7444 48 23.9993ZM45.6585 23.9993C45.6585 35.961 35.9617 45.6578 24 45.6578C12.0383 45.6578 2.34146 35.961 2.34146 23.9993C2.34146 12.0376 12.0383 2.34073 24 2.34073C35.9617 2.34073 45.6585 12.0376 45.6585 23.9993Z" fill="#F85A35"/>
<path fill-rule="evenodd" clip-rule="evenodd" d="M34.7487 41.4445C40.4377 37.9319 44.2794 31.7143 44.4797 24.5857H25.0144L34.7487 41.4445ZM24.0001 3.51147C27.524 3.51147 30.84 4.4011 33.7359 5.96802L24.0002 22.8292L14.2644 5.96798C17.1603 4.40109 20.4763 3.51147 24.0001 3.51147ZM44.4798 23.415H25.0139L34.7492 6.55438C40.4385 10.0674 44.2801 16.2857 44.4798 23.415ZM33.7354 42.0308L24.0002 25.1706L14.265 42.0309C17.1607 43.5976 20.4766 44.4871 24.0001 44.4871C27.5237 44.4871 30.8396 43.5976 33.7354 42.0308ZM13.2517 41.4445L22.986 24.5857H3.52057C3.72092 31.7143 7.56264 37.9319 13.2517 41.4445ZM13.2511 6.55434L22.9865 23.415H3.52051C3.72016 16.2857 7.56184 10.0674 13.2511 6.55434ZM24.3981 10.8641C25.9083 11.11 26.6576 12.8895 25.9669 14.2593L24.0001 18.1929L22.0332 14.2593C21.3425 12.8895 22.0918 11.11 23.602 10.8641C23.7308 10.829 23.8596 10.829 24.0001 10.829C24.1405 10.829 24.2693 10.8407 24.3981 10.8641ZM35.1691 30.9062C34.1974 32.0886 32.2891 31.8427 31.4462 30.5666V30.5549L29.0228 26.8905L33.413 27.1598C34.9467 27.2535 36.1057 28.7754 35.5671 30.2154C35.5336 30.3077 35.488 30.394 35.4433 30.4785C35.4257 30.512 35.4081 30.5452 35.3915 30.5784C35.333 30.6954 35.2511 30.8008 35.1691 30.9062ZM33.4129 20.8386C34.9465 20.7449 36.1173 19.2229 35.567 17.7829C35.5202 17.6659 35.4617 17.5371 35.3914 17.42C35.3212 17.3029 35.2509 17.1976 35.169 17.0922C34.1973 15.8981 32.289 16.1556 31.446 17.4317L29.0226 21.0961L33.4129 20.8268V20.8386ZM22.0332 33.7402C21.3425 35.11 22.0918 36.8895 23.602 37.1353C23.7308 37.1588 23.8596 37.1705 24.0001 37.1705C24.1405 37.1705 24.2693 37.1705 24.3981 37.1353C25.9083 36.8895 26.6576 35.11 25.9669 33.7402L24.0001 29.8066L22.0332 33.7402ZM12.4333 30.2164C11.8831 28.7764 13.0538 27.2545 14.5875 27.1608V27.1725L18.9777 26.9032L16.5543 30.5676C15.7114 31.8437 13.8031 32.1013 12.8314 30.9071C12.7494 30.8018 12.6792 30.6964 12.6089 30.5793C12.5387 30.4623 12.4801 30.3335 12.4333 30.2164ZM16.5543 17.4318C15.7114 16.1557 13.8031 15.9098 12.8314 17.0922C12.7494 17.1976 12.6675 17.303 12.609 17.4201C12.5924 17.4532 12.5748 17.4864 12.5572 17.5199C12.5125 17.6044 12.4669 17.6907 12.4333 17.783C11.8948 19.223 13.0538 20.7449 14.5875 20.8386L18.9777 21.1079L16.5543 17.4435V17.4318Z" fill="#FFC517"/>
<path d="M35.169 30.9062C34.1973 32.0887 32.289 31.8428 31.4461 30.5667V30.555L29.0227 26.8906L33.4129 27.1599C34.9466 27.2536 36.1056 28.7755 35.5671 30.2155C35.5335 30.3078 35.488 30.3941 35.4433 30.4786C35.4256 30.5121 35.4081 30.5453 35.3915 30.5784C35.3329 30.6955 35.251 30.8009 35.169 30.9062Z" fill="#FBF7E9"/>
<path d="M24.3981 10.8642C25.9083 11.1101 26.6576 12.8896 25.9668 14.2593L24 18.193L22.0332 14.2593C21.3424 12.8896 22.0917 11.1101 23.602 10.8642C23.7307 10.8291 23.8595 10.8291 24 10.8291C24.1405 10.8291 24.2693 10.8408 24.3981 10.8642Z" fill="#FBF7E9"/>
<path d="M35.567 17.783C36.1172 19.223 34.9465 20.745 33.4128 20.8386V20.8269L29.0226 21.0962L31.446 17.4318C32.2889 16.1557 34.1972 15.8981 35.1689 17.0923C35.2509 17.1977 35.3211 17.303 35.3914 17.4201C35.4616 17.5372 35.5201 17.6659 35.567 17.783Z" fill="#FBF7E9"/>
<path d="M22.0332 33.7403C21.3424 35.1101 22.0917 36.8896 23.602 37.1354C23.7307 37.1588 23.8595 37.1705 24 37.1705C24.1405 37.1705 24.2693 37.1705 24.3981 37.1354C25.9083 36.8896 26.6576 35.1101 25.9668 33.7403L24 29.8066L22.0332 33.7403Z" fill="#FBF7E9"/>
<path d="M14.5874 27.1609C13.0538 27.2545 11.883 28.7765 12.4333 30.2165C12.4801 30.3336 12.5386 30.4623 12.6089 30.5794C12.6791 30.6965 12.7494 30.8019 12.8313 30.9072C13.803 32.1014 15.7113 31.8438 16.5542 30.5677L18.9777 26.9033L14.5874 27.1726V27.1609Z" fill="#FBF7E9"/>
<path d="M16.5543 17.4318C15.7113 16.1557 13.803 15.9099 12.8313 17.0923C12.7494 17.1977 12.6674 17.3031 12.6089 17.4201C12.5923 17.4533 12.5748 17.4865 12.5571 17.5199C12.5124 17.6045 12.4668 17.6908 12.4333 17.7831C11.8948 19.2231 13.0538 20.745 14.5874 20.8387L18.9777 21.1079L16.5543 17.4435V17.4318Z" fill="#FBF7E9"/>
</g>
<defs>
<clipPath id="clip0_1491_8145">
<rect width="48" height="48" fill="white"/>
</clipPath>
</defs>
</svg>
