<svg width="48" height="48" viewBox="0 0 48 48" fill="none" xmlns="http://www.w3.org/2000/svg">
<path d="M48 24C48 36.7025 37.2548 47 24 47C10.7452 47 0 36.7025 0 24C0 11.2975 10.7452 1 24 1C37.2548 1 48 11.2975 48 24Z" fill="#765F2C"/>
<path fill-rule="evenodd" clip-rule="evenodd" d="M34.3712 20.6856C34.3712 22.1688 33.1688 23.3712 31.6856 23.3712C30.2024 23.3712 29 22.1688 29 20.6856C29 19.2024 30.2024 18 31.6856 18C33.1688 18 34.3712 19.2024 34.3712 20.6856ZM39.3184 23.3712C40.8016 23.3712 42.004 22.1688 42.004 20.6856C42.004 19.2024 40.8016 18 39.3184 18C37.8352 18 36.6328 19.2024 36.6328 20.6856C36.6328 22.1688 37.8352 23.3712 39.3184 23.3712ZM35.5054 30.0001C36.9886 30.0001 38.191 28.7977 38.191 27.3145C38.191 25.8313 36.9886 24.6289 35.5054 24.6289C34.0222 24.6289 32.8198 25.8313 32.8198 27.3145C32.8198 28.7977 34.0222 30.0001 35.5054 30.0001Z" fill="#FBF7E9"/>
</svg>
