<svg width="48" height="48" viewBox="0 0 48 48" fill="none" xmlns="http://www.w3.org/2000/svg">
<g clip-path="url(#clip0_1491_8151)">
<path fill-rule="evenodd" clip-rule="evenodd" d="M48 24C48 37.2548 37.2548 48 24 48C10.7452 48 0 37.2548 0 24C0 10.7452 10.7452 0 24 0C37.2548 0 48 10.7452 48 24ZM45.66 24C45.66 35.9625 35.9625 45.66 24 45.66C12.0375 45.66 2.34 35.9625 2.34 24C2.34 12.0375 12.0375 2.34 24 2.34C35.9625 2.34 45.66 12.0375 45.66 24Z" fill="#3A8075"/>
<path fill-rule="evenodd" clip-rule="evenodd" d="M44.4898 24C44.4898 35.3163 35.3161 44.49 23.9998 44.49C12.6835 44.49 3.50977 35.3163 3.50977 24C3.50977 12.6837 12.6835 3.51001 23.9998 3.51001C35.3161 3.51001 44.4898 12.6837 44.4898 24Z" fill="#95CC7D"/>
<path d="M22.0332 31.4C21.3424 32.7698 22.0917 34.5495 23.6021 34.7953C23.7309 34.8188 23.8597 34.8305 24.0002 34.8305C24.1407 34.8305 24.2694 34.8305 24.3982 34.7953C25.9086 34.5495 26.6579 32.7698 25.9671 31.4L24.0002 27.4661L22.0332 31.4Z" fill="#FBF7E9"/>
<path d="M25.9671 16.6006C26.6579 15.2308 25.9086 13.4512 24.3982 13.2053C24.2694 13.1819 24.1407 13.1702 24.0002 13.1702C23.8597 13.1702 23.7309 13.1702 23.6021 13.2053C22.0917 13.4512 21.3424 15.2308 22.0332 16.6006L24.0002 20.5346L25.9671 16.6006Z" fill="#FBF7E9"/>
<path d="M29.4206 29.3973C30.2636 30.6735 32.1721 30.9193 33.1438 29.7368C33.2258 29.6315 33.3077 29.5261 33.3663 29.409C33.4248 29.2919 33.4951 29.1748 33.5419 29.0461C34.0805 27.606 32.9214 26.0839 31.3876 25.9902L26.9971 25.7209L29.4206 29.3856V29.3973Z" fill="#FBF7E9"/>
<path d="M18.579 18.6031C17.736 17.3269 15.8276 17.081 14.8558 18.2635C14.7738 18.3689 14.6919 18.4743 14.6333 18.5913C14.5748 18.7084 14.5045 18.8255 14.4577 18.9543C13.9191 20.3944 15.0782 21.9164 16.612 22.0101L21.0025 22.2794L18.579 18.6148V18.6031Z" fill="#FBF7E9"/>
<path d="M31.3876 22.0101C32.9214 21.9164 34.0922 20.3944 33.5419 18.9543C33.4951 18.8372 33.4365 18.7084 33.3663 18.5913C33.296 18.4742 33.2258 18.3689 33.1438 18.2635C32.1721 17.0693 30.2636 17.3268 29.4206 18.603L26.9971 22.2677L31.3876 21.9984V22.0101Z" fill="#FBF7E9"/>
<path d="M16.6122 25.9902C15.0785 26.0839 13.9076 27.606 14.4579 29.0461C14.5048 29.1631 14.5633 29.2919 14.6336 29.409C14.7038 29.5261 14.774 29.6315 14.856 29.7368C15.8278 30.9311 17.7362 30.6735 18.5792 29.3973L21.0028 25.7327L16.6122 26.002V25.9902Z" fill="#FBF7E9"/>
</g>
<defs>
<clipPath id="clip0_1491_8151">
<rect width="48" height="48" fill="white"/>
</clipPath>
</defs>
</svg>
