<svg width="251" height="246" viewBox="0 0 251 246" fill="none" xmlns="http://www.w3.org/2000/svg">
<path d="M181.948 231.474L156.859 237.466V205.456H155.72V237.578H143.788V238.717H156.392L181.948 244.821V243.656L161.271 238.717H181.948V237.578H161.265L181.948 232.639V231.474Z" fill="#C1D544"/>
<path d="M129.038 231.474L103.949 237.466V206.115H102.817V237.578H90.8848V238.717H103.482L129.038 244.821V243.656L108.361 238.717H129.038V237.578H108.361L129.038 232.639V231.474Z" fill="#C1D544"/>
<path d="M169.396 84.0619H188.388L172.011 72.7686L188.388 61.4753H165.386L164.794 58.1565H113.305L100.175 132.086H42.6614C49.365 131.882 54.7384 126.403 54.7384 119.654C54.7384 112.904 49.1609 107.202 42.2861 107.202V206.977H191.232L169.396 84.0553V84.0619Z" fill="#FFF7C5"/>
<path d="M51.0291 205.028H49.8965V211.613H51.0291V205.028Z" fill="#FFF7C5"/>
<path d="M50.4703 218.192C52.8269 218.192 54.7373 216.281 54.7373 213.925C54.7373 211.568 52.8269 209.657 50.4703 209.657C48.1136 209.657 46.2031 211.568 46.2031 213.925C46.2031 216.281 48.1136 218.192 50.4703 218.192Z" fill="#C1D544"/>
<path d="M64.2586 205.028H63.126V211.613H64.2586V205.028Z" fill="#FFF7C5"/>
<path d="M63.6928 218.192C66.0495 218.192 67.9599 216.281 67.9599 213.925C67.9599 211.568 66.0495 209.657 63.6928 209.657C61.3362 209.657 59.4258 211.568 59.4258 213.925C59.4258 216.281 61.3362 218.192 63.6928 218.192Z" fill="#C1D544"/>
<path d="M77.4881 205.028H76.3555V211.613H77.4881V205.028Z" fill="#FFF7C5"/>
<path d="M76.9223 218.192C79.279 218.192 81.1894 216.281 81.1894 213.925C81.1894 211.568 79.279 209.657 76.9223 209.657C74.5657 209.657 72.6553 211.568 72.6553 213.925C72.6553 216.281 74.5657 218.192 76.9223 218.192Z" fill="#C1D544"/>
<path d="M90.7167 205.028H89.584V211.613H90.7167V205.028Z" fill="#FFF7C5"/>
<path d="M90.1509 218.192C92.5075 218.192 94.418 216.281 94.418 213.925C94.418 211.568 92.5075 209.657 90.1509 209.657C87.7942 209.657 85.8838 211.568 85.8838 213.925C85.8838 216.281 87.7942 218.192 90.1509 218.192Z" fill="#C1D544"/>
<path d="M103.946 205.028H102.813V211.699H103.946V205.028Z" fill="#FFF7C5"/>
<path d="M103.38 218.192C105.737 218.192 107.647 216.281 107.647 213.925C107.647 211.568 105.737 209.657 103.38 209.657C101.024 209.657 99.1133 211.568 99.1133 213.925C99.1133 216.281 101.024 218.192 103.38 218.192Z" fill="#C1D544"/>
<path d="M117.176 205.028H116.043V211.613H117.176V205.028Z" fill="#FFF7C5"/>
<path d="M116.61 218.192C118.966 218.192 120.877 216.281 120.877 213.925C120.877 211.568 118.966 209.657 116.61 209.657C114.253 209.657 112.343 211.568 112.343 213.925C112.343 216.281 114.253 218.192 116.61 218.192Z" fill="#C1D544"/>
<path d="M130.399 205.028H129.267V211.613H130.399V205.028Z" fill="#FFF7C5"/>
<path d="M129.838 218.192C132.195 218.192 134.105 216.281 134.105 213.925C134.105 211.568 132.195 209.657 129.838 209.657C127.482 209.657 125.571 211.568 125.571 213.925C125.571 216.281 127.482 218.192 129.838 218.192Z" fill="#C1D544"/>
<path d="M143.629 205.028H142.496V211.613H143.629V205.028Z" fill="#FFF7C5"/>
<path d="M143.061 218.192C145.418 218.192 147.328 216.281 147.328 213.925C147.328 211.568 145.418 209.657 143.061 209.657C140.704 209.657 138.794 211.568 138.794 213.925C138.794 216.281 140.704 218.192 143.061 218.192Z" fill="#C1D544"/>
<path d="M156.857 205.028H155.725V211.613H156.857V205.028Z" fill="#FFF7C5"/>
<path d="M156.291 218.192C158.647 218.192 160.558 216.281 160.558 213.925C160.558 211.568 158.647 209.657 156.291 209.657C153.934 209.657 152.023 211.568 152.023 213.925C152.023 216.281 153.934 218.192 156.291 218.192Z" fill="#C1D544"/>
<path d="M170.087 205.028H168.954V211.613H170.087V205.028Z" fill="#FFF7C5"/>
<path d="M169.52 218.192C171.877 218.192 173.787 216.281 173.787 213.925C173.787 211.568 171.877 209.657 169.52 209.657C167.163 209.657 165.253 211.568 165.253 213.925C165.253 216.281 167.163 218.192 169.52 218.192Z" fill="#C1D544"/>
<path d="M183.316 205.028H182.184V211.613H183.316V205.028Z" fill="#FFF7C5"/>
<path d="M182.749 218.192C185.105 218.192 187.016 216.281 187.016 213.925C187.016 211.568 185.105 209.657 182.749 209.657C180.392 209.657 178.481 211.568 178.481 213.925C178.481 216.281 180.392 218.192 182.749 218.192Z" fill="#C1D544"/>
<path d="M165.386 61.4819H160.039H140.922C130.979 61.4819 122.919 69.542 122.919 79.4853C122.919 84.457 124.934 88.9545 128.194 92.2141C131.453 95.4737 135.951 97.4821 140.922 97.4821C151.478 97.4821 160.039 88.9282 160.039 78.3725V108.347C160.039 114.656 165.155 119.772 171.464 119.772H175.744L165.386 61.4753V61.4819Z" fill="#C1D544"/>
<path d="M141.475 88.125C136.701 88.125 132.836 84.2596 132.836 79.4855C132.836 74.7114 136.701 70.8459 141.475 70.8459" fill="#259E7E"/>
<path d="M141.475 70.8459C146.249 70.8459 150.114 74.7114 150.114 79.4855C150.114 84.2596 146.249 88.125 141.475 88.125" fill="#FFF7C5"/>
<path d="M161.553 40.3705L157.279 16.3023C155.706 7.44549 148.008 0.992188 139.013 0.992188C130.017 0.992188 122.313 7.44549 120.746 16.3023L116.472 40.3705H87.8076L92.4171 58.1632H189.882L194.491 40.3705H161.56H161.553Z" fill="#C1D544"/>
<path d="M92.8573 40.3701H91.7246V45.6381H92.8573V40.3701Z" fill="#259E7E"/>
<path d="M92.2915 53.5337C94.6481 53.5337 96.5586 51.6232 96.5586 49.2666C96.5586 46.9099 94.6481 44.9995 92.2915 44.9995C89.9348 44.9995 88.0244 46.9099 88.0244 49.2666C88.0244 51.6232 89.9348 53.5337 92.2915 53.5337Z" fill="#FFF7C5"/>
<path d="M105.073 40.3701H103.94V45.6381H105.073V40.3701Z" fill="#259E7E"/>
<path d="M104.506 53.5337C106.863 53.5337 108.773 51.6232 108.773 49.2666C108.773 46.9099 106.863 44.9995 104.506 44.9995C102.15 44.9995 100.239 46.9099 100.239 49.2666C100.239 51.6232 102.15 53.5337 104.506 53.5337Z" fill="#FFF7C5"/>
<path d="M117.281 40.3701H116.148V45.6381H117.281V40.3701Z" fill="#259E7E"/>
<path d="M116.721 53.5337C119.078 53.5337 120.988 51.6232 120.988 49.2666C120.988 46.9099 119.078 44.9995 116.721 44.9995C114.365 44.9995 112.454 46.9099 112.454 49.2666C112.454 51.6232 114.365 53.5337 116.721 53.5337Z" fill="#FFF7C5"/>
<path d="M129.497 40.3701H128.364V45.6381H129.497V40.3701Z" fill="#259E7E"/>
<path d="M128.931 53.5337C131.288 53.5337 133.198 51.6232 133.198 49.2666C133.198 46.9099 131.288 44.9995 128.931 44.9995C126.574 44.9995 124.664 46.9099 124.664 49.2666C124.664 51.6232 126.574 53.5337 128.931 53.5337Z" fill="#FFF7C5"/>
<path d="M141.705 40.3701H140.572V45.6381H141.705V40.3701Z" fill="#259E7E"/>
<path d="M141.145 53.5337C143.502 53.5337 145.412 51.6232 145.412 49.2666C145.412 46.9099 143.502 44.9995 141.145 44.9995C138.788 44.9995 136.878 46.9099 136.878 49.2666C136.878 51.6232 138.788 53.5337 141.145 53.5337Z" fill="#FFF7C5"/>
<path d="M153.921 40.3701H152.788V45.6381H153.921V40.3701Z" fill="#259E7E"/>
<path d="M153.355 53.5337C155.712 53.5337 157.622 51.6232 157.622 49.2666C157.622 46.9099 155.712 44.9995 153.355 44.9995C150.998 44.9995 149.088 46.9099 149.088 49.2666C149.088 51.6232 150.998 53.5337 153.355 53.5337Z" fill="#FFF7C5"/>
<path d="M166.136 40.3701H165.003V45.6381H166.136V40.3701Z" fill="#259E7E"/>
<path d="M165.569 53.5337C167.925 53.5337 169.836 51.6232 169.836 49.2666C169.836 46.9099 167.925 44.9995 165.569 44.9995C163.212 44.9995 161.302 46.9099 161.302 49.2666C161.302 51.6232 163.212 53.5337 165.569 53.5337Z" fill="#FFF7C5"/>
<path d="M178.344 40.3701H177.211V45.6381H178.344V40.3701Z" fill="#259E7E"/>
<path d="M177.778 53.5337C180.134 53.5337 182.045 51.6232 182.045 49.2666C182.045 46.9099 180.134 44.9995 177.778 44.9995C175.421 44.9995 173.511 46.9099 173.511 49.2666C173.511 51.6232 175.421 53.5337 177.778 53.5337Z" fill="#FFF7C5"/>
<path d="M190.559 40.3701H189.427V45.6381H190.559V40.3701Z" fill="#259E7E"/>
<path d="M189.993 53.5337C192.349 53.5337 194.26 51.6232 194.26 49.2666C194.26 46.9099 192.349 44.9995 189.993 44.9995C187.636 44.9995 185.726 46.9099 185.726 49.2666C185.726 51.6232 187.636 53.5337 189.993 53.5337Z" fill="#FFF7C5"/>
<path d="M160.875 36.5577H117.145L117.342 35.425H160.678L160.875 36.5577Z" fill="#259E7E"/>
<path d="M183.047 160.428C183.047 179.176 171.826 194.374 157.984 194.374C154.672 194.374 151.05 193.505 147.455 191.924C139.164 188.276 129.61 189.014 121.945 193.84C114.392 198.595 105.897 201.393 98.3506 201.393C79.017 201.393 63.3447 183.054 63.3447 160.435C63.3447 137.815 79.017 119.476 98.3506 119.476C105.897 119.476 114.398 122.275 121.945 127.029C129.491 131.783 139.164 132.587 147.455 128.945C151.05 127.365 154.672 126.496 157.984 126.496C171.826 126.496 183.047 141.694 183.047 160.441V160.428Z" fill="#C1D544"/>
<path d="M137.558 175.929C146.119 175.929 153.059 168.989 153.059 160.428C153.059 151.867 146.119 144.927 137.558 144.927C128.997 144.927 122.057 151.867 122.057 160.428C122.057 168.989 128.997 175.929 137.558 175.929Z" fill="#259E7E"/>
<path d="M225.883 153.916V154.146H103.165V154.996H225.883V158.051H103.165V158.9H225.883V161.956H103.165V162.805H225.883V165.854H103.165V166.71L225.883 166.704V166.842L249.457 171.208V149.55L225.883 153.916Z" fill="#FFF7C5"/>
<path d="M230.465 151.038C231.498 151.038 232.335 150.201 232.335 149.168C232.335 148.135 231.498 147.298 230.465 147.298C229.432 147.298 228.595 148.135 228.595 149.168C228.595 150.201 229.432 151.038 230.465 151.038Z" fill="#C1D544"/>
<path d="M237.531 149.714C238.564 149.714 239.401 148.877 239.401 147.844C239.401 146.811 238.564 145.974 237.531 145.974C236.498 145.974 235.661 146.811 235.661 147.844C235.661 148.877 236.498 149.714 237.531 149.714Z" fill="#C1D544"/>
<path d="M230.465 173.46C231.498 173.46 232.335 172.622 232.335 171.59C232.335 170.557 231.498 169.719 230.465 169.719C229.432 169.719 228.595 170.557 228.595 171.59C228.595 172.622 229.432 173.46 230.465 173.46Z" fill="#C1D544"/>
<path d="M237.531 174.784C238.564 174.784 239.401 173.946 239.401 172.913C239.401 171.881 238.564 171.043 237.531 171.043C236.498 171.043 235.661 171.881 235.661 172.913C235.661 173.946 236.498 174.784 237.531 174.784Z" fill="#C1D544"/>
<path d="M106.66 147.225H102.867V173.625H106.66V147.225Z" fill="#259E7E"/>
</svg>
