<svg width="251" height="235" viewBox="0 0 251 235" fill="none" xmlns="http://www.w3.org/2000/svg">
<path d="M173.852 45.0974L100.739 87.8143C87.444 74.7167 69.4801 67.2954 50.6733 67.2954H24.6099C12.7569 67.2954 3.14941 74.6377 3.14941 83.6987C3.14941 89.1576 6.64602 93.991 12.0128 96.974C6.64602 99.957 3.14941 104.79 3.14941 110.249C3.14941 115.708 6.64602 120.542 12.0128 123.525C6.64602 126.508 3.14941 131.341 3.14941 136.8C3.14941 145.861 12.7569 153.203 24.6099 153.203H51.7664L50.917 153.737L67.5902 170.41C96.3535 199.173 140.427 205.995 176.539 187.268C196.531 176.903 209.082 156.259 209.082 133.738V45.0974H173.852Z" fill="#FFF7C5"/>
<path d="M209.081 80.6498L200.448 85.6939C194.838 88.9732 187.898 88.9732 182.294 85.6939L155.559 70.0743L182.294 54.4546C187.904 51.1753 194.845 51.1753 200.448 54.4546L209.081 59.4987" fill="#FFC517"/>
<path d="M191.375 62.8374C195.372 62.8374 198.605 66.0772 198.605 70.0677C198.605 74.0582 195.366 77.298 191.375 77.298" fill="#FFF7C5"/>
<path d="M191.375 77.3049C187.378 77.3049 184.145 74.0651 184.145 70.0746C184.145 66.0841 187.384 62.8442 191.375 62.8442" fill="#765F2C"/>
<path d="M191.777 80.5905C191.638 79.8069 192.159 79.0628 192.942 78.9245C193.726 78.7862 194.476 79.3064 194.615 80.09C194.746 80.8736 194.226 81.6178 193.443 81.7561C193.357 81.7758 193.271 81.7824 193.192 81.7824C192.508 81.7824 191.902 81.2885 191.777 80.5905ZM185.448 80.36C184.757 79.9584 184.526 79.0826 184.922 78.3911C185.317 77.6997 186.199 77.4626 186.89 77.8643C187.575 78.2594 187.812 79.1418 187.417 79.8267C187.147 80.2942 186.667 80.551 186.166 80.551C185.922 80.551 185.679 80.4917 185.448 80.36ZM198.441 77.8709C197.828 77.3573 197.749 76.4551 198.263 75.8427C198.776 75.2303 199.685 75.1513 200.291 75.6649C200.903 76.1786 200.982 77.0873 200.469 77.6931C200.186 78.0355 199.777 78.2067 199.369 78.2067C199.04 78.2067 198.711 78.0948 198.441 77.8709ZM180.22 74.1504C179.95 73.3997 180.332 72.5766 181.083 72.3C181.827 72.03 182.656 72.4119 182.926 73.156C183.203 73.9067 182.814 74.7364 182.07 75.0064C181.906 75.0657 181.741 75.092 181.576 75.092C180.99 75.092 180.437 74.7299 180.22 74.1504ZM200.363 70.0677V70.0479V70.0282C200.363 69.238 201.002 68.5861 201.799 68.5861C202.589 68.5795 203.228 69.2116 203.241 70.0018V70.0216V70.0479V70.0677C203.241 70.8645 202.596 71.5098 201.806 71.5098C201.009 71.5098 200.363 70.8645 200.363 70.0677ZM181.069 67.8749C180.319 67.6049 179.937 66.7818 180.207 66.0311C180.477 65.287 181.3 64.8985 182.051 65.1684C182.795 65.4384 183.183 66.2615 182.913 67.0122C182.702 67.5983 182.149 67.9605 181.557 67.9605C181.399 67.9605 181.234 67.9341 181.069 67.8749ZM198.236 64.2663C197.723 63.6605 197.802 62.7517 198.408 62.2381C199.013 61.7179 199.922 61.7969 200.436 62.4027C200.949 63.0086 200.877 63.9173 200.265 64.4309C199.995 64.6614 199.665 64.7734 199.336 64.7734C198.928 64.7734 198.526 64.6021 198.236 64.2663ZM184.889 61.7706C184.487 61.0857 184.717 60.2033 185.409 59.8016C186.094 59.4 186.976 59.637 187.378 60.3219C187.773 61.0067 187.542 61.8891 186.858 62.2908C186.627 62.4225 186.377 62.4883 186.133 62.4883C185.639 62.4883 185.152 62.2315 184.889 61.7706ZM192.909 61.2043H192.903C192.126 61.0726 191.599 60.3285 191.73 59.5449C191.862 58.7612 192.613 58.2344 193.396 58.3661C194.18 58.5044 194.707 59.2485 194.569 60.0321C194.45 60.7367 193.838 61.2306 193.153 61.2306C193.074 61.2306 192.988 61.224 192.909 61.2043Z" fill="#765F2C"/>
<path d="M209.082 59.4922V70.0677L229.147 59.4922H209.082Z" fill="#765F2C"/>
<path d="M209.082 80.65H229.147L209.082 70.0679V80.65Z" fill="#765F2C"/>
<path d="M209.082 45.0975C209.082 35.3715 201.193 27.4827 191.467 27.4827C181.741 27.4827 173.853 35.3715 173.853 45.0975" fill="#765F2C"/>
<path d="M169.132 33.0535C171.206 33.0535 173.274 33.3103 175.315 33.8107L143.885 52.1763C147.026 40.9555 157.252 33.0535 169.125 33.0535M169.125 31.8813C155.599 31.8813 144.392 41.6798 142.14 54.5535L178.239 33.4617C175.381 32.4542 172.325 31.8748 169.125 31.8748V31.8813Z" fill="#FFF7C5"/>
<path d="M167.57 3.20364C177.645 3.27608 186.62 10.0454 189.432 19.7254C189.906 21.3519 190.189 23.0377 190.288 24.7563L167.563 3.20364M167.405 2.0249C166.529 2.0249 165.654 2.07102 164.765 2.16979L191.454 27.4825C191.605 24.8222 191.342 22.096 190.552 19.3961C187.483 8.85355 177.856 2.0249 167.399 2.0249H167.405Z" fill="#FFF7C5"/>
<path d="M215.365 3.20364L192.64 24.7563C192.739 23.0377 193.022 21.3585 193.496 19.7254C196.308 10.0454 205.29 3.26949 215.358 3.20364M215.516 2.0249C205.066 2.0249 195.432 8.85355 192.363 19.3961C191.58 22.1026 191.31 24.8222 191.461 27.4825L218.15 2.16979C217.268 2.07102 216.385 2.0249 215.51 2.0249H215.516Z" fill="#FFF7C5"/>
<path d="M183.466 29.471C181.603 26.4354 179.232 23.6433 176.309 21.2727C163.949 11.2569 146.439 11.9023 134.843 22.0103L183.466 29.471Z" fill="#765F2C"/>
<path d="M213.804 33.0532C225.677 33.0532 235.903 40.9487 239.044 52.1761L207.614 33.8105C209.655 33.31 211.73 33.0532 213.797 33.0532M213.797 31.8811C210.597 31.8811 207.541 32.4606 204.684 33.4681L240.783 54.5598C238.53 41.6796 227.323 31.8877 213.797 31.8877V31.8811Z" fill="#FFF7C5"/>
<path d="M199.468 29.471C201.331 26.4354 203.702 23.6433 206.626 21.2727C218.986 11.2569 236.495 11.9023 248.091 22.0103L199.468 29.471Z" fill="#765F2C"/>
<path d="M200.588 38.9404C200.588 38.1568 201.24 37.5049 202.037 37.5049C202.82 37.5049 203.472 38.1568 203.472 38.9404C203.472 39.7438 202.82 40.3891 202.037 40.3891C201.233 40.3891 200.588 39.7372 200.588 38.9404ZM193.542 38.9404C193.542 38.1568 194.194 37.5049 194.991 37.5049C195.774 37.5049 196.426 38.1568 196.426 38.9404C196.426 39.7438 195.774 40.3891 194.991 40.3891C194.187 40.3891 193.542 39.7372 193.542 38.9404ZM186.496 38.9404C186.496 38.1568 187.148 37.5049 187.945 37.5049C188.728 37.5049 189.38 38.1568 189.38 38.9404C189.38 39.7438 188.728 40.3891 187.945 40.3891C187.141 40.3891 186.496 39.7372 186.496 38.9404ZM179.45 38.9404C179.45 38.1568 180.102 37.5049 180.886 37.5049C181.689 37.5049 182.334 38.1568 182.334 38.9404C182.334 39.7438 181.683 40.3891 180.886 40.3891C180.102 40.3891 179.45 39.7372 179.45 38.9404Z" fill="#FFC517"/>
<path d="M177.375 43.8268C177.283 43.8268 177.191 43.8136 177.105 43.7938C177.013 43.7807 176.921 43.7478 176.835 43.7017C176.743 43.6688 176.671 43.6227 176.578 43.5634C176.499 43.5173 176.427 43.458 176.368 43.3988C176.098 43.1288 175.946 42.7469 175.946 42.3715C175.946 41.9962 176.098 41.6274 176.368 41.3574C176.427 41.285 176.506 41.2191 176.578 41.1796C176.671 41.1335 176.743 41.0874 176.835 41.0413C176.927 41.015 177.02 40.9821 177.105 40.9689C177.283 40.9228 177.481 40.9228 177.665 40.9689C177.757 40.9821 177.849 41.015 177.935 41.0413C178.027 41.0874 178.1 41.1335 178.179 41.1796C178.251 41.2257 178.33 41.285 178.402 41.3574C178.659 41.6274 178.824 41.9962 178.824 42.3715C178.824 42.7469 178.659 43.1288 178.402 43.3988C178.132 43.6556 177.751 43.8202 177.375 43.8202V43.8268Z" fill="#FFC517"/>
<path d="M204.11 42.3779C204.11 41.5943 204.762 40.9424 205.559 40.9424C206.343 40.9424 206.995 41.5943 206.995 42.3779C206.995 43.1813 206.343 43.8266 205.559 43.8266C204.756 43.8266 204.11 43.1747 204.11 42.3779ZM197.064 42.3779C197.064 41.5943 197.716 40.9424 198.513 40.9424C199.297 40.9424 199.949 41.5943 199.949 42.3779C199.949 43.1813 199.297 43.8266 198.513 43.8266C197.71 43.8266 197.064 43.1747 197.064 42.3779ZM190.019 42.3779C190.019 41.5943 190.67 40.9424 191.467 40.9424C192.251 40.9424 192.903 41.5943 192.903 42.3779C192.903 43.1813 192.251 43.8266 191.467 43.8266C190.664 43.8266 190.019 43.1747 190.019 42.3779ZM182.973 42.3779C182.973 41.5943 183.625 40.9424 184.408 40.9424C185.212 40.9424 185.857 41.5943 185.857 42.3779C185.857 43.1813 185.205 43.8266 184.408 43.8266C183.625 43.8266 182.973 43.1747 182.973 42.3779Z" fill="#FFC517"/>
<path d="M209.082 89.4669V106.515H188.985C188.682 97.0528 180.924 89.4669 171.383 89.4669C164.271 89.4669 158.147 93.6813 155.368 99.7461L131.609 69.7771L130.621 70.3558L154.868 100.945C154.156 102.854 153.768 104.922 153.768 107.082C153.768 116.808 161.657 124.697 171.383 124.697C181.109 124.697 188.682 117.117 188.985 107.648H209.082V124.697C218.624 124.697 226.697 116.808 226.697 107.082C226.697 97.3558 218.808 89.4669 209.082 89.4669Z" fill="#765F2C"/>
<path d="M180.655 112.594C181.95 112.594 182.999 111.544 182.999 110.25C182.999 108.955 181.95 107.905 180.655 107.905C179.36 107.905 178.311 108.955 178.311 110.25C178.311 111.544 179.36 112.594 180.655 112.594Z" fill="#FFC517"/>
<path d="M184.006 106.792C185.301 106.792 186.351 105.743 186.351 104.448C186.351 103.153 185.301 102.104 184.006 102.104C182.712 102.104 181.662 103.153 181.662 104.448C181.662 105.743 182.712 106.792 184.006 106.792Z" fill="#FFC517"/>
<path d="M177.303 106.792C178.598 106.792 179.648 105.743 179.648 104.448C179.648 103.153 178.598 102.104 177.303 102.104C176.009 102.104 174.959 103.153 174.959 104.448C174.959 105.743 176.009 106.792 177.303 106.792Z" fill="#FFC517"/>
<path d="M176.538 187.275C190.38 180.097 200.646 167.987 205.657 153.744H50.916L67.5892 170.417C96.3525 199.18 140.426 205.996 176.538 187.275Z" fill="#765F2C"/>
<path d="M190.716 161.343C190.716 160.546 191.361 159.9 192.158 159.9C192.955 159.9 193.6 160.546 193.6 161.343C193.6 162.139 192.955 162.785 192.158 162.785C191.361 162.785 190.716 162.139 190.716 161.343ZM183.519 161.343C183.519 160.546 184.164 159.9 184.961 159.9C185.751 159.9 186.396 160.546 186.396 161.343C186.396 162.139 185.751 162.785 184.961 162.785C184.164 162.785 183.519 162.139 183.519 161.343ZM176.315 161.343C176.315 160.546 176.96 159.9 177.757 159.9C178.553 159.9 179.199 160.546 179.199 161.343C179.199 162.139 178.553 162.785 177.757 162.785C176.96 162.785 176.315 162.139 176.315 161.343ZM169.117 161.343C169.117 160.546 169.762 159.9 170.559 159.9C171.349 159.9 171.995 160.546 171.995 161.343C171.995 162.139 171.349 162.785 170.559 162.785C169.762 162.785 169.117 162.139 169.117 161.343ZM161.913 161.343C161.913 160.546 162.558 159.9 163.355 159.9C164.152 159.9 164.797 160.546 164.797 161.343C164.797 162.139 164.152 162.785 163.355 162.785C162.558 162.785 161.913 162.139 161.913 161.343ZM154.716 161.343C154.716 160.546 155.361 159.9 156.151 159.9C156.948 159.9 157.593 160.546 157.593 161.343C157.593 162.139 156.948 162.785 156.151 162.785C155.361 162.785 154.716 162.139 154.716 161.343ZM147.512 161.343C147.512 160.546 148.157 159.9 148.954 159.9C149.751 159.9 150.396 160.546 150.396 161.343C150.396 162.139 149.751 162.785 148.954 162.785C148.157 162.785 147.512 162.139 147.512 161.343ZM140.314 161.343C140.314 160.546 140.96 159.9 141.75 159.9C142.547 159.9 143.192 160.546 143.192 161.343C143.192 162.139 142.547 162.785 141.75 162.785C140.96 162.785 140.314 162.139 140.314 161.343ZM133.11 161.343C133.11 160.546 133.756 159.9 134.552 159.9C135.349 159.9 135.995 160.546 135.995 161.343C135.995 162.139 135.349 162.785 134.552 162.785C133.756 162.785 133.11 162.139 133.11 161.343ZM125.913 161.343C125.913 160.546 126.552 159.9 127.348 159.9C128.145 159.9 128.791 160.546 128.791 161.343C128.791 162.139 128.145 162.785 127.348 162.785C126.552 162.785 125.913 162.139 125.913 161.343ZM118.709 161.343C118.709 160.546 119.354 159.9 120.151 159.9C120.948 159.9 121.587 160.546 121.587 161.343C121.587 162.139 120.948 162.785 120.151 162.785C119.354 162.785 118.709 162.139 118.709 161.343ZM111.512 161.343C111.512 160.546 112.15 159.9 112.947 159.9C113.744 159.9 114.389 160.546 114.389 161.343C114.389 162.139 113.744 162.785 112.947 162.785C112.15 162.785 111.512 162.139 111.512 161.343ZM104.308 161.343C104.308 160.546 104.953 159.9 105.75 159.9C106.546 159.9 107.185 160.546 107.185 161.343C107.185 162.139 106.546 162.785 105.75 162.785C104.953 162.785 104.308 162.139 104.308 161.343ZM97.1036 161.343C97.1036 160.546 97.7489 159.9 98.5457 159.9C99.3425 159.9 99.9878 160.546 99.9878 161.343C99.9878 162.139 99.3425 162.785 98.5457 162.785C97.7489 162.785 97.1036 162.139 97.1036 161.343ZM89.9062 161.343C89.9062 160.546 90.5515 159.9 91.3483 159.9C92.1385 159.9 92.7838 160.546 92.7838 161.343C92.7838 162.139 92.1385 162.785 91.3483 162.785C90.5515 162.785 89.9062 162.139 89.9062 161.343ZM82.7022 161.343C82.7022 160.546 83.3475 159.9 84.1443 159.9C84.9411 159.9 85.5864 160.546 85.5864 161.343C85.5864 162.139 84.9411 162.785 84.1443 162.785C83.3475 162.785 82.7022 162.139 82.7022 161.343ZM75.5048 161.343C75.5048 160.546 76.1501 159.9 76.9403 159.9C77.7371 159.9 78.3824 160.546 78.3824 161.343C78.3824 162.139 77.7371 162.785 76.9403 162.785C76.1501 162.785 75.5048 162.139 75.5048 161.343ZM68.3008 161.343C68.3008 160.546 68.9461 159.9 69.7429 159.9C70.5397 159.9 71.185 160.546 71.185 161.343C71.185 162.139 70.5397 162.785 69.7429 162.785C68.9461 162.785 68.3008 162.139 68.3008 161.343Z" fill="#FFC517"/>
<path d="M111.269 184.937H110.137V218.053H111.269V184.937Z" fill="#765F2C"/>
<path d="M119.638 234.476H137.24L119.638 220.726V203.44H101.767V234.476H105.184L108.227 228.49L111.269 234.476H119.638Z" fill="#FFF7C5"/>
<path d="M104.479 225.249C104.479 224.453 105.124 223.814 105.921 223.814C106.717 223.814 107.363 224.453 107.363 225.249C107.363 226.046 106.717 226.692 105.921 226.692C105.124 226.692 104.479 226.046 104.479 225.249ZM104.479 218.052C104.479 217.255 105.124 216.61 105.921 216.61C106.717 216.61 107.363 217.255 107.363 218.052C107.363 218.842 106.717 219.488 105.921 219.488C105.124 219.488 104.479 218.842 104.479 218.052ZM104.479 210.848C104.479 210.051 105.124 209.406 105.921 209.406C106.717 209.406 107.363 210.051 107.363 210.848C107.363 211.645 106.717 212.29 105.921 212.29C105.124 212.29 104.479 211.645 104.479 210.848Z" fill="#FFC517"/>
<path d="M146.742 184.937H145.609V218.053H146.742V184.937Z" fill="#765F2C"/>
<path d="M155.111 234.476H172.713L155.111 220.726V203.44H137.239V234.476H140.657L143.699 228.49L146.741 234.476H155.111Z" fill="#FFF7C5"/>
<path d="M139.959 225.249C139.959 224.453 140.598 223.814 141.395 223.814C142.191 223.814 142.837 224.453 142.837 225.249C142.837 226.046 142.191 226.692 141.395 226.692C140.598 226.692 139.959 226.046 139.959 225.249ZM139.959 218.052C139.959 217.255 140.598 216.61 141.395 216.61C142.191 216.61 142.837 217.255 142.837 218.052C142.837 218.842 142.191 219.488 141.395 219.488C140.598 219.488 139.959 218.842 139.959 218.052ZM139.959 210.848C139.959 210.051 140.598 209.406 141.395 209.406C142.191 209.406 142.837 210.051 142.837 210.848C142.837 211.645 142.191 212.29 141.395 212.29C140.598 212.29 139.959 211.645 139.959 210.848Z" fill="#FFC517"/>
<path d="M35.3432 140.495C23.2005 140.495 13.3164 132.882 13.3164 123.525C13.3164 114.168 23.2005 106.555 35.3432 106.555V107.688C23.8194 107.688 14.449 114.793 14.449 123.525C14.449 132.257 23.8194 139.362 35.3432 139.362V140.495Z" fill="#FFC517"/>
<path d="M35.3432 113.944C23.2005 113.944 13.3164 106.331 13.3164 96.974C13.3164 87.6167 23.2005 80.0044 35.3432 80.0044V81.137C23.8194 81.137 14.449 88.2422 14.449 96.974C14.449 105.706 23.8194 112.811 35.3432 112.811V113.944Z" fill="#FFC517"/>
</svg>
