<svg width="250" height="279" viewBox="0 0 250 279" fill="none" xmlns="http://www.w3.org/2000/svg">
<path d="M88.752 56.3195H84.3993C73.027 56.3195 63.7686 47.0676 63.7686 35.6887C63.7686 32.258 64.6312 28.8601 66.2511 25.8573L79.724 0.966038L83.1416 7.26789L86.5658 0.939697L89.9834 7.24813L93.3879 0.95287L106.887 25.8508C108.52 28.8601 109.383 32.258 109.383 35.6822C109.383 47.0545 100.131 56.313 88.752 56.313V56.3195ZM79.724 3.43541L67.2849 26.4171C65.7506 29.2486 64.9407 32.4555 64.9407 35.6887C64.9407 46.4157 73.6658 55.1408 84.3927 55.1408H88.7455C99.4724 55.1408 108.198 46.4157 108.198 35.6887C108.198 32.4621 107.388 29.2552 105.847 26.4171L93.3813 3.42883L89.9768 9.72409L86.5592 3.41566L83.135 9.73726L79.7174 3.43541H79.724Z" fill="#FA3C30"/>
<path d="M88.7509 52.454H84.3982C75.1529 52.454 67.6328 44.9339 67.6328 35.6886C67.6328 32.9031 68.3308 30.1374 69.6544 27.6944L79.7295 9.0786L83.1471 15.387L86.5647 9.06543L89.9823 15.3739L93.3933 9.07201L103.495 27.6944C104.818 30.1374 105.523 32.9031 105.523 35.6886C105.523 44.9339 98.0028 52.454 88.7575 52.454H88.7509ZM79.7295 11.548L70.6817 28.2607C69.4503 30.5325 68.8049 33.1007 68.8049 35.6952C68.8049 44.2886 75.7982 51.2819 84.3916 51.2819H88.7443C97.3377 51.2819 104.331 44.2886 104.331 35.6952C104.331 33.1073 103.679 30.5391 102.448 28.2673L93.3867 11.548L89.9757 17.8498L86.5581 11.5414L83.1405 17.8564L79.7229 11.548H79.7295Z" fill="#CDBD81"/>
<path d="M88.7517 48.5887H84.399C77.2872 48.5887 71.499 42.8005 71.499 35.6887C71.499 33.5419 72.039 31.415 73.0531 29.5383L79.7369 17.1914L83.161 23.4998L86.5786 17.1848L89.9963 23.4932L93.4073 17.1848L100.104 29.5317C101.125 31.415 101.665 33.542 101.665 35.6821C101.665 42.7939 95.8767 48.5821 88.7649 48.5821L88.7517 48.5887ZM79.7369 19.6542L74.0869 30.0914C73.165 31.7969 72.6711 33.7329 72.6711 35.6821C72.6711 42.1485 77.9325 47.41 84.399 47.41H88.7517C95.2182 47.41 100.48 42.1485 100.48 35.6821C100.48 33.7395 99.9923 31.8035 99.0638 30.0914L93.4007 19.6476L89.9897 25.956L86.5721 19.6476L83.161 25.956L79.7369 19.6476V19.6542Z" fill="#FA3C30"/>
<path d="M88.7515 44.7236H84.3989C79.414 44.7236 75.3643 40.6672 75.3643 35.689C75.3643 34.181 75.7396 32.6928 76.4574 31.3758L79.7433 25.3044L83.1675 31.6129L86.5785 25.3044L89.9895 31.6129L93.4071 25.2979L96.6996 31.3758C97.4108 32.6928 97.7928 34.181 97.7928 35.6824C97.7928 40.6672 93.7364 44.717 88.7581 44.717L88.7515 44.7236ZM79.7367 27.7672L77.4846 31.929C76.8656 33.0747 76.5364 34.3654 76.5364 35.6692C76.5364 40.0153 80.0593 43.5383 84.3989 43.5383H88.7515C93.0845 43.5383 96.614 40.0153 96.614 35.6758C96.614 34.372 96.2848 33.0747 95.6658 31.929L93.4071 27.7606L89.9895 34.0757L86.5785 27.7672L83.1675 34.0691L79.7433 27.7606L79.7367 27.7672Z" fill="#CDBD81"/>
<path d="M139.062 277.925L173.264 270.78H181.627V269.601H174.074V241.885H172.895V269.522L139.062 262.266V263.471L167.66 269.601H139.062V270.78H167.515L139.062 276.72V277.925Z" fill="#FA3C30"/>
<path d="M73.5527 277.925L107.755 270.78H116.118V269.601H108.565V241.885H107.386V269.522L73.5527 262.266V263.471L102.151 269.601H73.5527V270.78H102.006L73.5527 276.72V277.925Z" fill="#FA3C30"/>
<path d="M139.878 180.638L118.859 71.478C116.633 62.5487 108.612 56.2864 99.413 56.2864H61.4505H45.6201L61.4571 64.0303L45.6201 71.7743H61.5032V241.713H181.304C196.7 241.713 209.178 229.235 209.178 213.839V180.631H139.878V180.638Z" fill="#CDBD81"/>
<path d="M108.236 79.6895C108.236 86.1494 105.615 91.9968 101.381 96.231C97.147 100.465 91.2995 103.086 84.833 103.086C72.1306 103.086 61.7921 92.9583 61.4431 80.3414V64.0303L61.4365 56.2864H84.833C97.7594 56.2864 108.236 66.7631 108.236 79.6895Z" fill="#CDBD81"/>
<path d="M84.8335 56.2866H61.437V70.8395L43.4072 92.9453C35.5777 102.54 42.4063 116.921 54.7927 116.921H61.4436V80.3943C61.8255 92.9848 72.1442 103.08 84.8335 103.08C91.3 103.08 97.1474 100.459 101.382 96.2246C105.616 91.9905 108.237 86.143 108.237 79.6831C108.237 66.7568 97.7598 56.28 84.8335 56.28V56.2866Z" fill="#FA3C30"/>
<path d="M95.1915 79.6832C95.1915 85.399 90.5491 90.0414 84.8333 90.0414C79.1176 90.0414 74.4883 85.399 74.4883 79.6832C74.4883 73.9674 79.1176 69.3381 84.8333 69.3381C90.5491 69.3381 95.1915 73.9674 95.1915 79.6832Z" fill="#592F41"/>
<path d="M84.8338 84.3651C82.2591 84.3651 80.165 82.2711 80.165 79.6898C80.165 77.1084 82.2591 75.021 84.8338 75.021C87.4086 75.021 89.5092 77.115 89.5092 79.6898C89.5092 82.2645 87.4151 84.3651 84.8338 84.3651ZM84.8338 76.3643C82.9966 76.3643 81.5084 77.8591 81.5084 79.6898C81.5084 81.5204 83.0032 83.0218 84.8338 83.0218C86.6645 83.0218 88.1658 81.527 88.1658 79.6898C88.1658 77.8525 86.671 76.3643 84.8338 76.3643Z" fill="#CDBD81"/>
<path d="M89.8063 198.101C89.8063 194.21 83.399 191.154 75.2139 191.154V192.313C82.4969 192.313 88.6473 194.96 88.6473 198.101C88.6473 201.243 82.4969 203.89 75.2139 203.89V205.391C82.4969 205.391 88.6473 208.038 88.6473 211.179C88.6473 214.32 82.4969 216.967 75.2139 216.967V218.469C82.4969 218.469 88.6473 221.116 88.6473 224.257C88.6473 227.398 82.4969 230.045 75.2139 230.045V231.204C83.399 231.204 89.8063 228.155 89.8063 224.257C89.8063 221.208 85.875 218.673 80.2382 217.718C85.875 216.763 89.8063 214.228 89.8063 211.179C89.8063 208.13 85.875 205.595 80.2382 204.64C85.875 203.686 89.8063 201.15 89.8063 198.101Z" fill="#592F41"/>
<path d="M111.562 198.101C111.562 194.21 105.155 191.154 96.9697 191.154V192.313C104.253 192.313 110.403 194.96 110.403 198.101C110.403 201.243 104.253 203.89 96.9697 203.89V205.391C104.253 205.391 110.403 208.038 110.403 211.179C110.403 214.32 104.253 216.967 96.9697 216.967V218.469C104.253 218.469 110.403 221.116 110.403 224.257C110.403 227.398 104.253 230.045 96.9697 230.045V231.204C105.155 231.204 111.562 228.155 111.562 224.257C111.562 221.208 107.631 218.673 101.994 217.718C107.631 216.763 111.562 214.228 111.562 211.179C111.562 208.13 107.631 205.595 101.994 204.64C107.631 203.686 111.562 201.15 111.562 198.101Z" fill="#592F41"/>
<path d="M133.318 198.101C133.318 194.21 126.911 191.154 118.726 191.154V192.313C126.009 192.313 132.159 194.96 132.159 198.101C132.159 201.243 126.009 203.89 118.726 203.89V205.391C126.009 205.391 132.159 208.038 132.159 211.179C132.159 214.32 126.009 216.967 118.726 216.967V218.469C126.009 218.469 132.159 221.116 132.159 224.257C132.159 227.398 126.009 230.045 118.726 230.045V231.204C126.911 231.204 133.318 228.155 133.318 224.257C133.318 221.208 129.387 218.673 123.75 217.718C129.387 216.763 133.318 214.228 133.318 211.179C133.318 208.13 129.387 205.595 123.75 204.64C129.387 203.686 133.318 201.15 133.318 198.101Z" fill="#592F41"/>
<path d="M155.076 211.179C155.076 208.13 151.145 205.595 145.508 204.64C151.145 203.686 155.076 201.15 155.076 198.101C155.076 194.21 148.669 191.154 140.483 191.154V192.313C147.766 192.313 153.917 194.96 153.917 198.101C153.917 201.243 147.766 203.89 140.483 203.89V205.391C147.766 205.391 153.917 208.038 153.917 211.179C153.917 214.32 147.766 216.967 140.483 216.967V218.469C147.766 218.469 153.917 221.116 153.917 224.257C153.917 227.398 147.766 230.045 140.483 230.045V231.204C148.669 231.204 155.076 228.155 155.076 224.257C155.076 221.208 151.145 218.673 145.508 217.718C151.145 216.763 155.076 214.228 155.076 211.179Z" fill="#592F41"/>
<path d="M148.392 158.519L166.428 180.638V134.543H159.777C147.391 134.543 140.562 148.925 148.392 158.519Z" fill="#FA3C30"/>
<path d="M169.768 158.519L187.804 180.638V134.543H181.153C168.767 134.543 161.938 148.925 169.768 158.519Z" fill="#FA3C30"/>
<path d="M202.527 134.536C190.141 134.536 183.312 148.918 191.142 158.512L209.178 180.631V134.536H202.527Z" fill="#FA3C30"/>
</svg>
