<svg width="17" height="47" viewBox="0 0 17 47" fill="none" xmlns="http://www.w3.org/2000/svg">
<path d="M16.8386 15.31V46.27C16.8386 46.68 16.5094 47 16.1102 47H1.56701C1.15792 47 0.838623 46.67 0.838623 46.27V15.31C0.838623 12.66 1.5733 11.16 3.67862 9.56C4.4677 8.96032 6.18452 7.7745 6.18452 6.55V5.46H11.4927V6.55C11.4927 7.81277 13.1792 8.93725 13.9986 9.56C16.1039 11.16 16.8386 12.66 16.8386 15.31ZM11.7921 1C11.7921 0.45 11.3431 0 10.7943 0H6.89295C6.34417 0 5.89517 0.45 5.89517 1V4.46H11.7921V1Z" fill="#3D3D3D"/>
</svg>
