<svg width="48" height="48" viewBox="0 0 48 48" fill="none" xmlns="http://www.w3.org/2000/svg">
<path d="M24.0001 47.9732C37.2402 47.9732 47.9733 37.24 47.9733 24C47.9733 10.7599 37.2402 0.0267334 24.0001 0.0267334C10.76 0.0267334 0.0268555 10.7599 0.0268555 24C0.0268555 37.24 10.76 47.9732 24.0001 47.9732Z" fill="#FFF7C5"/>
<path d="M24.0002 47.9736C29.0774 47.9736 33.7821 46.3896 37.6564 43.7012L33.5724 21.9241H10.4639L14.946 24.6853L10.4639 27.4465H14.8946L11.6797 44.5745C15.2799 46.7364 19.4924 47.9779 23.9959 47.9779L24.0002 47.9736Z" fill="#95CC7D"/>
<path d="M19.1666 41.7402V32.8487H22.5742C25.5923 32.8487 28.0367 30.4 28.0367 27.3862C28.0367 24.3724 25.5923 21.9237 22.5742 21.9237H15.9302L12.2144 41.7402H19.1666Z" fill="#EF4A23"/>
<path d="M21.5939 34.6167H21.23V36.5003H21.5939V34.6167Z" fill="#EF4A23"/>
<path d="M24.0553 34.6167H23.6914V36.5003H24.0553V34.6167Z" fill="#EF4A23"/>
<path d="M26.5128 34.6167H26.1489V36.5003H26.5128V34.6167Z" fill="#EF4A23"/>
<path d="M28.9742 34.6167H28.6104V36.5003H28.9742V34.6167Z" fill="#EF4A23"/>
<path d="M31.4357 34.6167H31.0718V36.5003H31.4357V34.6167Z" fill="#EF4A23"/>
<path d="M33.8976 34.6167H33.5337V36.5003H33.8976V34.6167Z" fill="#EF4A23"/>
<path d="M21.5939 41.7402H21.23V43.6238H21.5939V41.7402Z" fill="#EF4A23"/>
<path d="M24.0553 41.7402H23.6914V43.6238H24.0553V41.7402Z" fill="#EF4A23"/>
<path d="M26.5128 41.7402H26.1489V43.6238H26.5128V41.7402Z" fill="#EF4A23"/>
<path d="M28.9742 41.7402H28.6104V43.6238H28.9742V41.7402Z" fill="#EF4A23"/>
<path d="M31.4357 41.7402H31.0718V43.6238H31.4357V41.7402Z" fill="#EF4A23"/>
<path d="M33.8976 41.7402H33.5337V43.6238H33.8976V41.7402Z" fill="#EF4A23"/>
<path d="M22.8224 38.1785H22.4585V40.0621H22.8224V38.1785Z" fill="#EF4A23"/>
<path d="M25.2843 38.1785H24.9204V40.0621H25.2843V38.1785Z" fill="#EF4A23"/>
<path d="M27.7457 38.1785H27.3818V40.0621H27.7457V38.1785Z" fill="#EF4A23"/>
<path d="M30.2071 38.1785H29.8433V40.0621H30.2071V38.1785Z" fill="#EF4A23"/>
<path d="M32.6686 38.1785H32.3047V40.0621H32.6686V38.1785Z" fill="#EF4A23"/>
<path d="M27.7457 31.0551H27.3818V32.9387H27.7457V31.0551Z" fill="#EF4A23"/>
<path d="M30.2071 31.0551H29.8433V32.9387H30.2071V31.0551Z" fill="#EF4A23"/>
<path d="M32.6686 31.0551H32.3047V32.9387H32.6686V31.0551Z" fill="#EF4A23"/>
<path d="M22.5746 29.7661C21.2596 29.7661 20.1904 28.6969 20.1904 27.382C20.1904 26.067 21.2596 24.9978 22.5746 24.9978C23.8896 24.9978 24.9588 26.067 24.9588 27.382C24.9588 28.6969 23.8896 29.7661 22.5746 29.7661ZM22.5746 25.3595C21.4598 25.3595 20.5521 26.2671 20.5521 27.382C20.5521 28.4968 21.4598 29.4045 22.5746 29.4045C23.6894 29.4045 24.5971 28.4968 24.5971 27.382C24.5971 26.2671 23.6894 25.3595 22.5746 25.3595Z" fill="#FFF7C5"/>
<path d="M22.5746 28.2247C22.1094 28.2247 21.7319 27.8473 21.7319 27.382C21.7319 26.9168 22.1094 26.5393 22.5746 26.5393C23.0399 26.5393 23.4173 26.9168 23.4173 27.382C23.4173 27.8473 23.0399 28.2247 22.5746 28.2247ZM22.5746 26.901C22.3095 26.901 22.0936 27.1169 22.0936 27.382C22.0936 27.6471 22.3095 27.8631 22.5746 27.8631C22.8397 27.8631 23.0557 27.6471 23.0557 27.382C23.0557 27.1169 22.8397 26.901 22.5746 26.901Z" fill="#FFF7C5"/>
<path fill-rule="evenodd" clip-rule="evenodd" d="M22.5745 30.9406C24.54 30.9406 26.1332 29.3473 26.1332 27.3819C26.1332 25.4165 24.54 23.8232 22.5745 23.8232C20.6091 23.8232 19.0159 25.4165 19.0159 27.3819C19.0159 29.3473 20.6091 30.9406 22.5745 30.9406ZM22.5745 31.3075C24.7426 31.3075 26.5002 29.55 26.5002 27.3819C26.5002 25.2139 24.7426 23.4563 22.5745 23.4563C20.4065 23.4563 18.6489 25.2139 18.6489 27.3819C18.6489 29.55 20.4065 31.3075 22.5745 31.3075Z" fill="#FFF7C5"/>
<path d="M34.0087 16.32C32.0437 23.786 17.2446 23.786 15.2796 16.32C14.0981 11.8336 15.8789 7.47563 19.2609 6.5852C21.1188 6.09717 23.0666 6.75216 24.6463 8.18627C26.2217 6.75216 28.1738 6.09289 30.0274 6.5852C33.4094 7.47563 35.1902 11.8336 34.013 16.32H34.0087Z" fill="#EF4A23"/>
<path d="M25.9478 2.69385L24.6421 8.16916L23.3364 2.69385H25.9478Z" fill="#95CC7D"/>
<path d="M25.9478 13.6488C25.9478 10.6222 24.6421 8.17346 24.6421 8.17346C24.6421 8.17346 23.3364 10.6264 23.3364 13.6488C23.3364 16.6711 24.6421 19.1241 24.6421 19.1241C24.6421 19.1241 25.9478 16.6711 25.9478 13.6488Z" fill="#95CC7D"/>
<path d="M24.642 8.16919C24.642 8.16919 23.5204 9.95862 21.6368 10.5323C19.7532 11.1059 17.8311 10.2412 17.8311 10.2412L24.642 8.16919Z" fill="#95CC7D"/>
<path d="M24.6421 8.16919C24.6421 8.16919 25.7637 9.95862 27.6473 10.5323C29.5266 11.1059 31.4531 10.2412 31.4531 10.2412L24.6421 8.16919Z" fill="#95CC7D"/>
</svg>
