<svg width="48" height="48" viewBox="0 0 48 48" fill="none" xmlns="http://www.w3.org/2000/svg">
<path d="M24.0001 47.9732C37.2402 47.9732 47.9733 37.24 47.9733 24C47.9733 10.7599 37.2402 0.0267334 24.0001 0.0267334C10.76 0.0267334 0.0268555 10.7599 0.0268555 24C0.0268555 37.24 10.76 47.9732 24.0001 47.9732Z" fill="#F85A35"/>
<path d="M34.274 19.3167H38.1483C38.1483 17.2618 36.483 15.5966 34.4281 15.5966H34.274L10.9814 23.3194L5.68164 39.4457C10.0824 44.6556 16.658 47.9733 23.9955 47.9733C27.6728 47.9733 31.1532 47.1385 34.2697 45.653V38.7307C38.0669 38.7307 40.6483 34.8822 39.2099 31.3675L34.2697 19.3124L34.274 19.3167Z" fill="#FFF7C5"/>
<path d="M34.2744 38.7308V15.5752H20.3185C16.2645 15.5752 12.6728 18.178 11.4056 22.0266L5.91748 38.7308H34.2744Z" fill="#765F2C"/>
<path d="M32.9173 27.9598H26.5516C23.9788 27.9598 21.8896 25.8664 21.8896 23.2979V16.9321H28.2554C30.8282 16.9321 32.9173 19.0255 32.9173 21.5941V27.9598ZM22.2492 17.2917V23.2979C22.2492 25.6695 24.18 27.6002 26.5516 27.6002H32.5535V21.5983C32.5535 19.2267 30.6228 17.296 28.2511 17.296H22.2492V17.2917Z" fill="#F85A35"/>
<path d="M15.2157 30.5584L17.0693 23.9786H14.6206L20.6867 17.0392L18.8373 23.6147H21.286L15.2157 30.5584ZM15.4169 23.6147H17.5488L15.9991 29.1114L20.4898 23.9786H18.3579L19.9033 18.4861L15.4169 23.619V23.6147Z" fill="#F85A35"/>
<path d="M25.7727 35.2289V32.7802L19.1929 34.6338L26.1366 28.5635V31.0122L32.7121 29.1628L25.7727 35.2289ZM26.1366 32.3007V34.4326L31.2694 29.9462L25.7769 31.4916V29.3597L20.6441 33.8504L26.1408 32.3007H26.1366Z" fill="#F85A35"/>
<path d="M32.665 18.1265C32.147 18.1265 31.7231 17.7027 31.7231 17.1847C31.7231 16.6667 32.147 16.2429 32.665 16.2429C33.1829 16.2429 33.6068 16.6667 33.6068 17.1847C33.6068 17.7027 33.1829 18.1265 32.665 18.1265ZM32.665 16.6068C32.3439 16.6068 32.087 16.8679 32.087 17.1847C32.087 17.5015 32.3482 17.7627 32.665 17.7627C32.9817 17.7627 33.2429 17.5015 33.2429 17.1847C33.2429 16.8679 32.9817 16.6068 32.665 16.6068Z" fill="#F85A35"/>
<path d="M22.142 28.6491C21.624 28.6491 21.2002 28.2253 21.2002 27.7073C21.2002 27.1893 21.624 26.7655 22.142 26.7655C22.66 26.7655 23.0838 27.1893 23.0838 27.7073C23.0838 28.2253 22.66 28.6491 22.142 28.6491ZM22.142 27.1294C21.8209 27.1294 21.5641 27.3905 21.5641 27.7073C21.5641 28.0241 21.8252 28.2852 22.142 28.2852C22.4588 28.2852 22.7199 28.0241 22.7199 27.7073C22.7199 27.3905 22.4588 27.1294 22.142 27.1294Z" fill="#F85A35"/>
<path d="M34.2746 37.6776H6.2644L6.14453 38.0372H34.2746V37.6776Z" fill="#F85A35"/>
<path d="M34.2742 36.6031H6.61938L6.49951 36.9627H34.2742V36.6031Z" fill="#F85A35"/>
<path d="M31.1022 15.5965L26.0464 5.18103C28.8376 5.18103 31.1022 7.44565 31.1022 10.2368V15.5965Z" fill="#765F2C"/>
<path d="M34.2745 15.5965L29.2188 5.18103C32.0099 5.18103 34.2745 7.44565 34.2745 10.2368V15.5965Z" fill="#765F2C"/>
<path d="M27.9342 15.5965L22.8784 5.18103C25.6696 5.18103 27.9342 7.44565 27.9342 10.2368V15.5965Z" fill="#765F2C"/>
<path d="M24.7623 15.5965L19.7065 5.18103C22.4977 5.18103 24.7623 7.44565 24.7623 10.2368V15.5965Z" fill="#765F2C"/>
<path d="M21.5944 15.5965L16.5386 5.18103C19.3297 5.18103 21.5944 7.44565 21.5944 10.2368V15.5965Z" fill="#765F2C"/>
<path d="M23.833 22.4503C23.833 20.4768 25.4298 18.88 27.4033 18.88C29.3768 18.88 30.9736 20.4768 30.9736 22.4503H23.833Z" fill="#765F2C"/>
<path d="M23.833 22.446C23.833 24.4196 25.4298 26.0163 27.4033 26.0163C29.3768 26.0163 30.9736 24.4196 30.9736 22.446H23.833Z" fill="#FFF7C5"/>
<path d="M27.4032 23.3321C27.8927 23.3321 28.2894 22.9354 28.2894 22.446C28.2894 21.9566 27.8927 21.5598 27.4032 21.5598C26.9138 21.5598 26.5171 21.9566 26.5171 22.446C26.5171 22.9354 26.9138 23.3321 27.4032 23.3321Z" fill="#765F2C"/>
</svg>
