<svg width="48" height="48" viewBox="0 0 48 48" fill="none" xmlns="http://www.w3.org/2000/svg">
<path d="M24.0001 47.9732C37.2402 47.9732 47.9733 37.24 47.9733 24C47.9733 10.7599 37.2402 0.0267334 24.0001 0.0267334C10.76 0.0267334 0.0268555 10.7599 0.0268555 24C0.0268555 37.24 10.76 47.9732 24.0001 47.9732Z" fill="#95CC7D"/>
<path d="M37.4552 23.7945C36.7445 20.9477 34.1845 18.9485 31.2521 18.9485H8.36621L13.4177 23.512L13.4306 45.5074C16.6241 47.0828 20.2116 47.9732 24.0045 47.9732C30.9396 47.9732 37.194 45.0108 41.5734 40.289L37.4552 23.7945Z" fill="#FFF7C5"/>
<path d="M21.0975 13.6358C21.0504 13.0451 20.8449 12.4372 20.4896 11.8336L17.0392 5.99866L13.5888 11.8336C13.2334 12.4372 13.028 13.0408 12.9809 13.6358C12.7925 15.9433 14.4535 17.9682 16.6839 18.148C16.7395 18.1522 16.7995 18.1522 16.8594 18.1565V18.9485H17.2233V18.1565C17.2832 18.1565 17.3431 18.1565 17.3988 18.148C19.6292 17.9682 21.2902 15.9433 21.1018 13.6358H21.0975ZM20.2841 12.2189L17.219 15.284V11.6238L18.9314 9.91143L20.1771 12.0177C20.2157 12.0861 20.2456 12.1504 20.2841 12.2189ZM17.219 11.1101V7.01752L18.7387 9.59036L17.219 11.1101ZM16.8551 11.1101L15.3354 9.59036L16.8551 7.01752V11.1101ZM15.1427 9.91143L16.8551 11.6238V15.284L13.79 12.2189C13.8242 12.1504 13.8585 12.0861 13.897 12.0177L15.1427 9.91143ZM16.7096 17.7884C14.6804 17.6257 13.1649 15.7763 13.3362 13.6658C13.3661 13.3062 13.4646 12.9381 13.623 12.5656L16.8551 15.7977V17.7969C16.808 17.7969 16.7567 17.7969 16.7096 17.7926V17.7884ZM17.3645 17.7884C17.3175 17.7884 17.2661 17.7884 17.219 17.7926V15.7977L20.4511 12.5656C20.6095 12.9381 20.708 13.3062 20.7379 13.6658C20.9092 15.7763 19.3937 17.6257 17.3645 17.7884Z" fill="#3A8075"/>
<path d="M28.0585 13.6358C28.0114 13.0451 27.8059 12.4372 27.4506 11.8336L24.0001 5.99866L20.5497 11.8336C20.1944 12.4372 19.9889 13.0408 19.9418 13.6358C19.7534 15.9433 21.4144 17.9682 23.6448 18.148C23.7047 18.1522 23.7604 18.1522 23.8203 18.1565V18.9485H24.1842V18.1565C24.2442 18.1565 24.3041 18.1565 24.3597 18.148C26.5901 17.9682 28.2511 15.9433 28.0627 13.6358H28.0585ZM27.2451 12.2189L24.1799 15.284V11.6238L25.8923 9.91143L27.1381 12.0177C27.1766 12.0861 27.2108 12.1504 27.2451 12.2189ZM24.1799 11.1101V7.01752L25.6997 9.59036L24.1799 11.1101ZM23.8161 11.1101L22.2963 9.59036L23.8161 7.01752V11.1101ZM22.1037 9.91143L23.8161 11.6238V15.284L20.7509 12.2189C20.7852 12.1504 20.8194 12.0861 20.8579 12.0177L22.1037 9.91143ZM23.6705 17.7884C21.6413 17.6257 20.1302 15.7763 20.2971 13.6658C20.3271 13.3062 20.4256 12.9381 20.5839 12.5656L23.8161 15.7977V17.7969C23.769 17.7969 23.7176 17.7969 23.6705 17.7926V17.7884ZM24.3255 17.7884C24.2784 17.7884 24.227 17.7884 24.1799 17.7926V15.7934L27.412 12.5613C27.5704 12.9338 27.6689 13.3019 27.6989 13.6615C27.8701 15.772 26.3589 17.6214 24.3255 17.7841V17.7884Z" fill="#3A8075"/>
<path d="M35.0235 13.6358C34.9764 13.0451 34.771 12.4372 34.4156 11.8336L30.9652 5.99866L27.5148 11.8336C27.1595 12.4372 26.954 13.0408 26.9069 13.6358C26.8213 14.7061 27.1509 15.802 27.8144 16.6411C28.5122 17.5229 29.5054 18.0581 30.6099 18.148C30.6698 18.1522 30.7255 18.1522 30.7854 18.1565V18.9485H31.1493V18.1565C31.2092 18.1565 31.2649 18.1565 31.3248 18.148C33.5552 17.9682 35.2162 15.9433 35.0278 13.6358H35.0235ZM34.2102 12.2189L31.145 15.284V11.6238L32.8574 9.91143L34.1031 12.0177C34.1417 12.0861 34.1716 12.1504 34.2102 12.2189ZM31.145 11.1101V7.01752L32.6647 9.59036L31.145 11.1101ZM30.7811 11.1101L29.2614 9.59036L30.7811 7.01752V11.1101ZM29.0688 9.91143L30.7811 11.6238V15.284L27.716 12.2189C27.7502 12.1504 27.7845 12.0861 27.823 12.0177L29.0688 9.91143ZM30.6356 17.7884C29.6296 17.707 28.7306 17.219 28.097 16.4185C27.4891 15.6479 27.1851 14.6461 27.2665 13.6658C27.2964 13.3062 27.3949 12.9381 27.5533 12.5656L30.7854 15.7977V17.7926C30.7383 17.7926 30.687 17.7926 30.6399 17.7884H30.6356ZM31.2906 17.7884C31.2435 17.7884 31.1921 17.7884 31.145 17.7926V15.7934L34.3771 12.5613C34.5355 12.9338 34.634 13.3019 34.6639 13.6615C34.8352 15.772 33.3197 17.6214 31.2906 17.7841V17.7884Z" fill="#3A8075"/>
<path d="M20.879 18.9485H13.4131V23.5933L7.65951 30.6483C5.16373 33.7092 7.34273 38.2983 11.294 38.2983H13.4174V26.4872C13.4559 30.5798 16.7822 33.8847 20.879 33.8847C25.0016 33.8847 28.345 30.5413 28.345 26.4187C28.345 22.2962 25.0016 18.9528 20.879 18.9528V18.9485Z" fill="#3A8075"/>
<path d="M20.8792 29.7151C19.0555 29.7151 17.5786 28.2382 17.5786 26.4145C17.5786 24.5908 19.0555 23.1139 20.8792 23.1139" fill="#FFF7C5"/>
<path d="M20.8794 23.1096C22.7031 23.1096 24.18 24.5865 24.18 26.4102C24.18 28.2339 22.7031 29.7108 20.8794 29.7108" fill="#95CC7D"/>
</svg>
