<svg width="48" height="48" viewBox="0 0 48 48" fill="none" xmlns="http://www.w3.org/2000/svg">
<path d="M24.0001 47.9732C37.2402 47.9732 47.9733 37.24 47.9733 24C47.9733 10.7599 37.2402 0.0267334 24.0001 0.0267334C10.76 0.0267334 0.0268555 10.7599 0.0268555 24C0.0268555 37.24 10.76 47.9732 24.0001 47.9732Z" fill="#FFC517"/>
<path d="M0.656141 29.4282C3.12196 40.0407 12.6513 47.9732 24.0001 47.9732C25.9394 47.9732 27.823 47.7378 29.6252 47.3011V19.0684H18.3835L0.651855 29.4282H0.656141Z" fill="#FFF7C5"/>
<path d="M29.6293 39.0304V44.4672C32.673 44.4672 35.2502 41.95 35.2502 38.8463C35.2502 35.7427 32.733 33.2255 29.6293 33.2255V38.6623H23.2122C23.1137 35.6442 20.6436 33.2255 17.5999 33.2255C14.5561 33.2255 11.979 35.7427 11.979 38.8463C11.979 41.95 14.4962 44.4672 17.5999 44.4672C20.7036 44.4672 23.1137 42.0485 23.2122 39.0304H29.6293Z" fill="#765F2C"/>
<path d="M20.5582 40.6015C20.972 40.6015 21.3074 40.2661 21.3074 39.8523C21.3074 39.4386 20.972 39.1031 20.5582 39.1031C20.1445 39.1031 19.8091 39.4386 19.8091 39.8523C19.8091 40.2661 20.1445 40.6015 20.5582 40.6015Z" fill="#FFC517"/>
<path d="M21.6286 38.7521C22.0423 38.7521 22.3777 38.4167 22.3777 38.0029C22.3777 37.5892 22.0423 37.2538 21.6286 37.2538C21.2148 37.2538 20.8794 37.5892 20.8794 38.0029C20.8794 38.4167 21.2148 38.7521 21.6286 38.7521Z" fill="#FFC517"/>
<path d="M19.4879 38.7521C19.9017 38.7521 20.2371 38.4167 20.2371 38.0029C20.2371 37.5892 19.9017 37.2538 19.4879 37.2538C19.0742 37.2538 18.7388 37.5892 18.7388 38.0029C18.7388 38.4167 19.0742 38.7521 19.4879 38.7521Z" fill="#FFC517"/>
<path d="M29.6294 30.4086L26.8768 32.0182C25.0873 33.0628 22.8741 33.0628 21.0847 32.0182L12.5527 27.0352L21.0847 22.0522C22.8741 21.0077 25.0873 21.0077 26.8768 22.0522L29.6294 23.6618" fill="#FFC517"/>
<path d="M23.9785 24.7278C25.2542 24.7278 26.2859 25.7595 26.2859 27.0352C26.2859 28.3109 25.2542 29.3426 23.9785 29.3426" fill="#FFF7C5"/>
<path d="M23.9788 29.3426C22.7031 29.3426 21.6714 28.3109 21.6714 27.0352C21.6714 25.7595 22.7031 24.7278 23.9788 24.7278" fill="#765F2C"/>
<path d="M24.1073 30.3915C24.0645 30.1432 24.2314 29.9035 24.4797 29.8607C24.7323 29.8179 24.9677 29.9848 25.0148 30.2331C25.0576 30.4814 24.8907 30.7212 24.6424 30.7683C24.6124 30.7683 24.5867 30.7683 24.5611 30.7683C24.3427 30.7683 24.1501 30.6099 24.1073 30.3873V30.3915Z" fill="#765F2C"/>
<path d="M22.0906 30.3229C21.8723 30.1945 21.7952 29.9162 21.9236 29.6936C22.0478 29.4753 22.3303 29.3982 22.5487 29.5267C22.7713 29.6508 22.844 29.9334 22.7199 30.1517C22.6343 30.3015 22.4802 30.3829 22.3218 30.3829C22.2404 30.3829 22.1634 30.3615 22.0906 30.3229Z" fill="#765F2C"/>
<path d="M26.2346 29.5224C26.0377 29.3597 26.012 29.0686 26.1747 28.876C26.3373 28.679 26.6284 28.6533 26.8254 28.816C27.018 28.9787 27.0437 29.2698 26.881 29.4667C26.7911 29.5737 26.6584 29.6294 26.5257 29.6294C26.423 29.6294 26.3202 29.5952 26.2346 29.5224Z" fill="#765F2C"/>
<path d="M20.4253 28.3409C20.3354 28.1012 20.4596 27.8357 20.695 27.7501C20.9348 27.6645 21.1959 27.7844 21.2858 28.0241C21.3714 28.2596 21.2516 28.525 21.0118 28.6149C20.9605 28.632 20.9091 28.6406 20.8534 28.6406C20.6651 28.6406 20.4896 28.525 20.4253 28.3409Z" fill="#765F2C"/>
<path d="M26.8467 27.031V27.0181V27.0096C26.8467 26.757 27.0479 26.5515 27.3005 26.5472C27.5573 26.5472 27.7628 26.7484 27.7628 27.0053V27.0224V27.031C27.7628 27.2878 27.5573 27.4933 27.3047 27.4933C27.0522 27.4933 26.8467 27.2878 26.8467 27.031Z" fill="#765F2C"/>
<path d="M20.6911 26.3374C20.4513 26.2518 20.3272 25.9906 20.4128 25.7509C20.4984 25.5112 20.7638 25.3913 20.9993 25.4769C21.239 25.5625 21.3632 25.8237 21.2775 26.0634C21.2091 26.2518 21.0336 26.3674 20.8452 26.3674C20.7938 26.3674 20.7424 26.3588 20.6911 26.3374Z" fill="#765F2C"/>
<path d="M26.1622 25.173C25.9995 24.9803 26.0209 24.6935 26.2135 24.5266C26.4062 24.3639 26.6973 24.3853 26.8643 24.5779C27.0269 24.7706 27.0055 25.0617 26.8129 25.2286C26.723 25.3014 26.6202 25.3357 26.5132 25.3357C26.3848 25.3357 26.2521 25.28 26.1622 25.173Z" fill="#765F2C"/>
<path d="M21.9026 24.3896C21.7742 24.1713 21.847 23.8887 22.0696 23.7646C22.2879 23.6362 22.5704 23.7089 22.6946 23.9273C22.823 24.1456 22.7502 24.4281 22.5319 24.5566C22.4591 24.5994 22.3778 24.6165 22.3007 24.6165C22.1423 24.6165 21.9882 24.5394 21.9026 24.3896Z" fill="#765F2C"/>
<path d="M24.4625 24.2055C24.2099 24.1627 24.043 23.9272 24.0858 23.6747C24.1243 23.4264 24.3641 23.2551 24.6124 23.2979C24.8649 23.3408 25.0319 23.5805 24.9891 23.8288C24.9506 24.0514 24.7579 24.2098 24.5353 24.2098C24.5353 24.2098 24.4839 24.2098 24.4625 24.2098V24.2055Z" fill="#765F2C"/>
<path d="M36.0294 23.6576L29.6294 27.031V23.6576H36.0294ZM29.6294 30.4086H36.0294L29.6294 27.0353V30.4086Z" fill="#765F2C"/>
<path d="M29.6294 19.0684C29.6294 15.9647 27.1122 13.4475 24.0086 13.4475C20.9049 13.4475 18.3877 15.9647 18.3877 19.0684" fill="#765F2C"/>
<path d="M26.9194 17.1034C26.9194 16.8509 27.1249 16.6454 27.3818 16.6454C27.6344 16.6454 27.8398 16.8509 27.8398 17.1034C27.8398 17.3603 27.6344 17.5658 27.3818 17.5658C27.1249 17.5658 26.9194 17.356 26.9194 17.1034Z" fill="#FFC517"/>
<path d="M24.6719 17.1034C24.6719 16.8509 24.8774 16.6454 25.1342 16.6454C25.3868 16.6454 25.5923 16.8509 25.5923 17.1034C25.5923 17.3603 25.3868 17.5658 25.1342 17.5658C24.8774 17.5658 24.6719 17.356 24.6719 17.1034Z" fill="#FFC517"/>
<path d="M22.4248 17.1034C22.4248 16.8509 22.6303 16.6454 22.8872 16.6454C23.1397 16.6454 23.3452 16.8509 23.3452 17.1034C23.3452 17.3603 23.1397 17.5658 22.8872 17.5658C22.6303 17.5658 22.4248 17.356 22.4248 17.1034Z" fill="#FFC517"/>
<path d="M20.1772 17.1034C20.1772 16.8509 20.3827 16.6454 20.6353 16.6454C20.8922 16.6454 21.0977 16.8509 21.0977 17.1034C21.0977 17.3603 20.8922 17.5658 20.6353 17.5658C20.3827 17.5658 20.1772 17.356 20.1772 17.1034Z" fill="#FFC517"/>
<path d="M28.041 18.1993C28.041 17.9467 28.2465 17.7412 28.5033 17.7412C28.7559 17.7412 28.9614 17.9467 28.9614 18.1993C28.9614 18.4561 28.7559 18.6616 28.5033 18.6616C28.2465 18.6616 28.041 18.4518 28.041 18.1993Z" fill="#FFC517"/>
<path d="M25.7939 18.1993C25.7939 17.9467 25.9994 17.7412 26.2563 17.7412C26.5088 17.7412 26.7143 17.9467 26.7143 18.1993C26.7143 18.4561 26.5088 18.6616 26.2563 18.6616C25.9994 18.6616 25.7939 18.4518 25.7939 18.1993Z" fill="#FFC517"/>
<path d="M23.5464 18.1993C23.5464 17.9467 23.7519 17.7412 24.0087 17.7412C24.2613 17.7412 24.4668 17.9467 24.4668 18.1993C24.4668 18.4561 24.2613 18.6616 24.0087 18.6616C23.7519 18.6616 23.5464 18.4518 23.5464 18.1993Z" fill="#FFC517"/>
<path d="M21.2988 18.1993C21.2988 17.9467 21.5043 17.7412 21.7569 17.7412C22.0137 17.7412 22.2192 17.9467 22.2192 18.1993C22.2192 18.4561 22.0137 18.6616 21.7569 18.6616C21.5043 18.6616 21.2988 18.4518 21.2988 18.1993Z" fill="#FFC517"/>
<path d="M19.0513 18.1993C19.0513 17.9467 19.2567 17.7412 19.5093 17.7412C19.7662 17.7412 19.9717 17.9467 19.9717 18.1993C19.9717 18.4561 19.7662 18.6616 19.5093 18.6616C19.2567 18.6616 19.0513 18.4518 19.0513 18.1993Z" fill="#FFC517"/>
<path d="M21.4527 14.0811C20.8577 13.1136 20.1042 12.2232 19.171 11.4654C15.2282 8.26757 9.6416 8.47734 5.94287 11.7009L21.457 14.0811H21.4527Z" fill="#765F2C"/>
<path d="M26.5599 14.0811C27.155 13.1136 27.9085 12.2232 28.8417 11.4654C32.7844 8.26757 38.371 8.47734 42.0698 11.7009L26.5557 14.0811H26.5599Z" fill="#765F2C"/>
<path d="M16.881 15.224C17.5402 15.224 18.2038 15.3053 18.8545 15.4637L8.82852 21.3243C9.83025 17.7412 13.0923 15.224 16.881 15.224ZM16.881 14.8473C12.5658 14.8473 8.99117 17.9724 8.27197 22.0821L19.7877 15.3524C18.8759 15.0314 17.8998 14.8473 16.881 14.8473Z" fill="#FFF7C5"/>
<path d="M16.384 5.69898C19.5989 5.72038 22.4629 7.88226 23.3619 10.9731C23.5117 11.4911 23.6059 12.0305 23.6359 12.5784L16.384 5.70326M16.3326 5.32654C16.0543 5.32654 15.7718 5.34366 15.4893 5.37363L24.004 13.4518C24.0511 12.6041 23.9655 11.7351 23.7172 10.8703C22.7369 7.50553 19.6674 5.32654 16.3326 5.32654Z" fill="#FFF7C5"/>
<path d="M31.6328 5.699L24.3809 12.5742C24.4108 12.0262 24.505 11.4911 24.6548 10.9688C25.5538 7.88227 28.4178 5.7204 31.6328 5.69472M31.6841 5.31799C28.3493 5.31799 25.2756 7.49699 24.2995 10.8618C24.0469 11.7223 23.9656 12.5956 24.0127 13.4432L32.5275 5.36508C32.2449 5.33512 31.9667 5.31799 31.6841 5.31799Z" fill="#FFF7C5"/>
<path d="M31.1318 15.224C34.9205 15.224 38.1825 17.7455 39.1843 21.3243L29.1583 15.4637C29.809 15.3011 30.4726 15.224 31.1318 15.224ZM31.1318 14.8473C30.113 14.8473 29.1369 15.0314 28.2251 15.3524L39.7408 22.0821C39.0216 17.9724 35.447 14.8473 31.1318 14.8473Z" fill="#FFF7C5"/>
</svg>
