<svg width="27" height="48" viewBox="0 0 27 48" fill="none" xmlns="http://www.w3.org/2000/svg">
<g clip-path="url(#clip0_1491_8149)">
<path fill-rule="evenodd" clip-rule="evenodd" d="M12.8674 48.0008V39.084H14.1181V48.0008H12.8674Z" fill="#95CC7D"/>
<path fill-rule="evenodd" clip-rule="evenodd" d="M12.8669 0.192869L7.19597 9.78706L12.8669 15.458V0.192869ZM6.53888 10.8987L2.17726 18.2778C2.07315 18.4532 1.97194 18.6305 1.87389 18.8097L12.8669 29.8028V17.2268L6.53888 10.8987ZM1.28684 19.9914C0.690349 21.3269 0.284017 22.7421 0.161421 24.1928C-0.427145 31.4175 4.66395 38.4067 12.3153 39.0247C12.4964 39.0386 12.6808 39.0493 12.8669 39.0566V31.5715L1.28684 19.9914ZM14.1176 39.0566C14.3039 39.0493 14.4884 39.0386 14.6696 39.0247C22.3209 38.4067 27.412 31.4175 26.8235 24.1928C26.7012 22.7363 26.2969 21.329 25.7034 20.0004L14.1176 31.5861V39.0566ZM25.1162 18.8188C25.0165 18.6367 24.9136 18.4563 24.8076 18.2778L20.4514 10.9078L14.1176 17.2415V29.8174L25.1162 18.8188ZM19.7943 9.79613L14.1176 0.192383V15.4728L19.7943 9.79613Z" fill="#95CC7D"/>
</g>
<defs>
<clipPath id="clip0_1491_8149">
<rect width="27" height="48" fill="white"/>
</clipPath>
</defs>
</svg>
