<svg width="15" height="48" viewBox="0 0 15 48" fill="none" xmlns="http://www.w3.org/2000/svg">
<path d="M14.0586 43.6691C14.3186 44.0592 14.4586 44.5193 14.4586 44.9794V45.9096C14.4586 46.1796 14.4086 46.4397 14.3286 46.6897L14.2186 46.9998C14.0086 47.5999 13.4386 48 12.7986 48H2.60863C1.96863 48 1.39863 47.5999 1.18863 46.9998L1.07863 46.6897C0.988629 46.4397 0.948624 46.1696 0.948624 45.9096V44.9794C0.948624 44.5093 1.08863 44.0592 1.34863 43.6691C1.58863 43.319 1.70863 42.8989 1.68863 42.4789L0.838623 15.7733C0.838623 15.4932 0.948625 15.2332 1.16862 15.0531L3.38863 13.4128C4.06863 12.8527 4.59863 12.1325 4.93863 11.3124C5.06863 10.9923 5.13863 10.3322 5.13863 9.98208V3.89081H10.2586V9.98208C10.2586 10.3222 10.3286 10.9923 10.4586 11.3124C10.7986 12.1325 11.3286 12.8527 12.0086 13.4128L14.2286 15.0531C14.4386 15.2332 14.5586 15.4932 14.5586 15.7733L13.7086 42.4789C13.6986 42.8989 13.8186 43.319 14.0486 43.6691H14.0586ZM10.2686 2.8906V0.360075C10.2686 0.160033 10.1086 0 9.90863 0H5.50862C5.30862 0 5.14862 0.160033 5.14862 0.360075V2.8906H10.2686Z" fill="#3D3D3D"/>
</svg>
