<svg width="48" height="48" viewBox="0 0 48 48" fill="none" xmlns="http://www.w3.org/2000/svg">
<circle cx="2" cy="46" r="2" fill="#CDBD81"/>
<circle cx="10.8" cy="46" r="2" fill="#CDBD81"/>
<circle cx="19.6001" cy="46" r="2" fill="#CDBD81"/>
<circle cx="28.4001" cy="46" r="2" fill="#CDBD81"/>
<circle cx="37.2002" cy="46" r="2" fill="#CDBD81"/>
<circle cx="6.3999" cy="39.5" r="2" fill="#CDBD81"/>
<circle cx="10.8" cy="33" r="2" fill="#CDBD81"/>
<circle cx="15.2" cy="39.5" r="2" fill="#CDBD81"/>
<circle cx="15.2002" cy="26.5" r="2" fill="#CDBD81"/>
<circle cx="19.6001" cy="33" r="2" fill="#CDBD81"/>
<circle cx="19.6001" cy="20" r="2" fill="#CDBD81"/>
<circle cx="24" cy="39.5" r="2" fill="#CDBD81"/>
<circle cx="24" cy="26.5" r="2" fill="#CDBD81"/>
<circle cx="24" cy="13.5" r="2" fill="#CDBD81"/>
<circle cx="28.4001" cy="33" r="2" fill="#CDBD81"/>
<circle cx="32.8" cy="39.5" r="2" fill="#CDBD81"/>
<circle cx="28.4001" cy="20" r="2" fill="#CDBD81"/>
<circle cx="32.8003" cy="26.5" r="2" fill="#CDBD81"/>
<circle cx="37.2002" cy="33" r="2" fill="#CDBD81"/>
<circle cx="41.6001" cy="39.5" r="2" fill="#CDBD81"/>
<circle cx="46" cy="46" r="2" fill="#CDBD81"/>
</svg>
