<svg xmlns="http://www.w3.org/2000/svg" width="100%" viewBox="0 0 40 41" fill="none"><g clip-path="url(#clip0_1643_3330)"><path d="M19.9994 0.0664063C16.0437 0.0664063 12.1768 1.2394 8.88778 3.43707C5.59874 5.63473 3.03524 8.75836 1.52147 12.4129C0.00768937 16.0675 -0.388384 20.0889 0.383333 23.9686C1.15505 27.8483 3.0599 31.412 5.85699 34.2091C8.65409 37.0062 12.2178 38.911 16.0975 39.6828C19.9772 40.4545 23.9986 40.0584 27.6532 38.5446C31.3077 37.0308 34.4314 34.4674 36.629 31.1783C38.8267 27.8893 39.9997 24.0224 39.9997 20.0667C39.9998 17.4402 39.4825 14.8394 38.4774 12.4128C37.4724 9.98625 35.9991 7.78139 34.1419 5.92417C32.2847 4.06695 30.0799 2.59374 27.6533 1.58866C25.2267 0.583584 22.6259 0.0663198 19.9994 0.0664063ZM25.8726 12.1994H23.0947C22.1134 12.1994 21.9092 12.6004 21.9092 13.6153V16.0665H25.8726L25.4906 20.371H21.9092V33.2264H16.7756V20.425H14.1058V16.0665H16.7756V12.6347C16.7756 9.41425 18.4985 7.73224 22.3182 7.73224H25.8745L25.8726 12.1994Z" fill="currentColor"/></g><defs><clipPath id="clip0_1643_3330"><rect width="39.9993" height="40" fill="currentColor" transform="translate(0 0.0664062)"/></clipPath></defs></svg>
