<svg xmlns="http://www.w3.org/2000/svg" width="100%" viewBox="0 0 40 41" fill="none"><g clip-path="url(#clip0_1643_3332)"><path fill-rule="evenodd" clip-rule="evenodd" d="M20 40.0664C31.0457 40.0664 40 31.1121 40 20.0664C40 9.02071 31.0457 0.0664062 20 0.0664062C8.9543 0.0664062 0 9.02071 0 20.0664C0 31.1121 8.9543 40.0664 20 40.0664ZM30.5781 8.7334L22.1591 18.3397L31.3337 31.4001H24.5337L18.3813 22.6572L10.6098 31.4001H8.66699L17.5178 21.254L8.66699 8.7334H15.3591L21.2956 17.0445L28.6352 8.7334H30.5781ZM18.4892 20.2826L19.4606 21.4699L25.3972 29.889H28.5273L21.0797 19.4191L20.2162 18.2318L14.4956 10.2445H11.3654L18.4892 20.2826Z" fill="currentColor"/></g><defs><clipPath id="clip0_1643_3332"><rect width="40" height="40" fill="currentColor" transform="translate(0 0.0664062)"/></clipPath></defs></svg>
