<svg width="35" height="48" viewBox="0 0 35 48" fill="none" xmlns="http://www.w3.org/2000/svg">
<g clip-path="url(#clip0_1491_8146)">
<path fill-rule="evenodd" clip-rule="evenodd" d="M34.7143 20.7425C34.7143 11.0569 27.7886 7.55972 17.5715 7.97972C7.35441 7.55972 0.428711 11.0569 0.428711 20.7425C0.428711 32.8282 8.76012 47.9996 17.5715 47.9996C26.3829 47.9996 34.7143 32.8282 34.7143 20.7425ZM4.55811 19.6719V23.1433H5.72811V19.6719H4.55811ZM10.7725 19.6719V23.1433H11.9425V19.6719H10.7725ZM23.2009 23.1433V19.6719H24.3709V23.1433H23.2009ZM29.4153 19.6719V23.1433H30.5853V19.6719H29.4153ZM10.7725 36.2573V32.7859H11.9425V36.2573H10.7725ZM16.9866 32.7859V36.2573H18.1566V32.7859H16.9866ZM23.2009 36.2573V32.7859H24.3709V36.2573H23.2009ZM7.66089 26.2285V29.6999H8.83089V26.2285H7.66089ZM13.8752 29.6999V26.2285H15.0452V29.6999H13.8752ZM20.0896 26.2285V29.6999H21.2596V26.2285H20.0896ZM13.8752 42.8152V39.3438H15.0452V42.8152H13.8752ZM20.0896 39.3438V42.8152H21.2596V39.3438H20.0896ZM26.3123 29.6999V26.2285H27.4823V29.6999H26.3123Z" fill="#FA3C30"/>
<path d="M19.5859 15.3C19.5859 10.6372 17.5717 6.85718 17.5717 6.85718C17.5717 6.85718 15.5574 10.6372 15.5574 15.3C15.5574 19.9629 17.5717 23.7429 17.5717 23.7429C17.5717 23.7429 19.5859 19.9629 19.5859 15.3Z" fill="#259E7E"/>
<path d="M17.5715 6.85718C17.5715 6.85718 16.2344 11.7172 12.3258 14.3143C8.41727 16.9114 3.42871 16.26 3.42871 16.26L17.5715 6.85718Z" fill="#259E7E"/>
<path d="M17.5715 6.85718C17.5715 6.85718 18.9087 11.7172 22.8172 14.3143C26.7258 16.9114 31.7144 16.26 31.7144 16.26L17.5715 6.85718Z" fill="#259E7E"/>
<path d="M17.5716 6.85718C17.5716 6.85718 14.0487 9.91717 9.703 9.91717C5.35729 9.91717 1.84302 6.85718 1.84302 6.85718H17.5716Z" fill="#259E7E"/>
<path d="M17.5715 6.85718C17.5715 6.85718 21.0944 9.91717 25.4401 9.91717C29.7772 9.91717 33.3001 6.85718 33.3001 6.85718H17.5715Z" fill="#259E7E"/>
<path d="M17.4942 6.85713L15.5002 0H19.5002L17.4942 6.85713Z" fill="#259E7E"/>
</g>
<defs>
<clipPath id="clip0_1491_8146">
<rect width="35" height="48" fill="white"/>
</clipPath>
</defs>
</svg>
