<svg width="25" height="41" viewBox="0 0 25 41" fill="none" xmlns="http://www.w3.org/2000/svg">
<path d="M24.97 40.28C24.98 40.68 24.6704 41 24.2709 41H0.699389C0.299873 41 -0.00975295 40.67 0.000234976 40.28L0.579534 24.25C0.669426 21.73 2.10769 19.46 4.34498 18.31L7.54111 16.65C8.46999 16.17 9.04929 15.21 9.04929 14.17V9.50005C9.04929 9.40005 8.96939 9.33005 8.8795 9.33005H7.7209C7.34136 9.33005 7.04172 9.02005 7.04172 8.65005C7.04172 8.28005 7.35134 7.97005 7.7209 7.97005H17.2793C17.6589 7.97005 17.9585 8.28005 17.9585 8.65005C17.9585 9.02005 17.6489 9.33005 17.2793 9.33005H16.1207C16.0209 9.33005 15.9509 9.41005 15.9509 9.50005V14.17C15.9509 15.21 16.5302 16.17 17.4591 16.65L20.6553 18.31C22.8826 19.47 24.3208 21.74 24.4207 24.25L25 40.28H24.97ZM16.0308 6.96005C16.4304 6.32005 16.6601 5.56005 16.6601 4.74005C16.6601 2.43005 14.7923 0.550049 12.4751 0.550049C10.158 0.550049 8.29021 2.42005 8.29021 4.74005C8.29021 5.55005 8.51993 6.32005 8.90946 6.96005H16.0109H16.0308Z" fill="#3D3D3D"/>
</svg>
