<svg width="48" height="48" viewBox="0 0 48 48" fill="none" xmlns="http://www.w3.org/2000/svg">
<path d="M0.897324 33.616C5.74664 52.0304 42.2464 52.0304 47.1 33.616C50.0139 22.5491 45.6192 11.7984 37.2801 9.60319C32.6993 8.39519 27.8889 10.0145 23.9965 13.5562C20.1127 10.0188 15.298 8.39952 10.7258 9.60319C2.38673 11.7984 -2.01226 22.5491 0.897324 33.616Z" fill="#EF4A23"/>
<path d="M20.7795 27.0215C20.7795 19.5614 24.0009 13.5127 24.0009 13.5127C24.0009 13.5127 27.2222 19.5614 27.2222 27.0215C27.2222 34.4816 24.0009 40.5303 24.0009 40.5303C24.0009 40.5303 20.7795 34.4816 20.7795 27.0215Z" fill="#95CC7D"/>
<path d="M24.0007 13.509C24.0007 13.509 26.763 17.9254 31.4089 19.3369C36.046 20.7484 40.8 18.6181 40.8 18.6181L24.0007 13.509Z" fill="#95CC7D"/>
<path d="M24.0007 13.509C24.0007 13.509 21.2384 17.9254 16.5925 19.3369C11.9554 20.7484 7.20131 18.6181 7.20131 18.6181L24.0007 13.509Z" fill="#95CC7D"/>
<path d="M20.7794 0L23.9965 13.5131L27.2178 0H20.7794Z" fill="#95CC7D"/>
</svg>
