<svg width="14" height="48" viewBox="0 0 14 48" fill="none" xmlns="http://www.w3.org/2000/svg">
<path d="M13.5386 17.5237V47.2598C13.5386 47.6699 13.2089 48 12.7992 48H1.29802C0.88833 48 0.558594 47.6699 0.558594 47.2598V17.5237C0.558594 16.5334 0.958282 15.5932 1.67773 14.9131L4.18579 12.5126C4.47557 12.2325 4.64545 11.8425 4.64545 11.4324V3.97083H9.47174V11.4424C9.47174 11.8525 9.6416 12.2325 9.93138 12.5226L12.4395 14.9231C13.1489 15.6033 13.5586 16.5434 13.5586 17.5337L13.5386 17.5237ZM9.46174 0.370077C9.46174 0.170035 9.29188 0 9.08204 0H4.99517C4.78533 0 4.62546 0.170035 4.62546 0.370077V2.97062H9.45175V0.370077H9.46174Z" fill="#3D3D3D"/>
</svg>
