<svg xmlns="http://www.w3.org/2000/svg" viewBox="0 0 26 35" fill="none" height="100%"><g clip-path="url(#clip0_1643_3351)"><path d="M14.291 10.483C14.291 11.2352 14.8989 11.843 15.651 11.843C16.4031 11.843 17.011 11.2352 17.011 10.483C17.011 9.73093 16.4031 9.12305 15.651 9.12305C14.8989 9.12305 14.291 9.73093 14.291 10.483Z" fill="currentColor"/><path d="M6.05756 25.8955V25.3907C6.05756 24.7519 6.05756 24.4016 5.66604 24.4016C5.27453 24.4016 5.26422 24.7519 5.26422 25.3907V27.4513C5.26422 28.1004 5.26422 28.4404 5.66604 28.4404C6.06786 28.4404 6.05756 28.1004 6.05756 27.4513V26.8949H8.22119V27.0597C8.22119 28.4816 8.19028 30.2331 5.66604 30.2331C3.1418 30.2331 3.10059 28.327 3.10059 26.9876V25.8543C3.10059 24.5252 3.13149 22.6191 5.66604 22.6191C8.20059 22.6191 8.22119 24.3604 8.22119 25.7719V25.9058H6.05756V25.8955Z" fill="currentColor"/><path d="M14.0133 22.7949V23.5367L14.003 29.3064V30.0483H11.8393V29.3064V27.2458H11.0254V30.0483H8.87207V29.3064V23.5367V22.7949H11.0357V23.5367L11.0254 25.5561H11.8393V22.7949H14.0133Z" fill="currentColor"/><path d="M16.4221 27.4822V27.7604C16.4221 28.3579 16.6797 28.7185 17.1536 28.7185C17.5245 28.7185 17.7203 28.4919 17.7203 28.1725C17.7203 27.7088 17.3288 27.4925 16.6797 27.1525L16.1542 26.864C15.1961 26.3488 14.65 25.8852 14.65 24.8343C14.65 23.4331 15.5979 22.6191 17.1845 22.6191C18.6373 22.6191 19.7191 23.3094 19.7191 24.9167V25.1434H17.8645V24.9785C17.8645 24.4016 17.607 24.1234 17.2258 24.1234C16.8961 24.1234 16.69 24.3294 16.69 24.5973C16.69 24.9579 17.0403 25.1022 17.6791 25.4422L18.1942 25.7204C19.5542 26.4416 19.8942 27.2143 19.8942 28.0385C19.8942 29.3985 18.9773 30.2228 17.2876 30.2228C15.773 30.2228 14.5264 29.5531 14.5264 27.8531V27.4822H16.4118H16.4221Z" fill="currentColor"/><path d="M18.4531 8L18.7416 10.2461C18.6386 9.38061 18.5355 8.61818 18.4634 8H18.4531Z" fill="currentColor"/><path d="M21.3067 8.56566L25.397 5.54688H10.6224L8.90182 19.2293H0V29.3263C0 31.6857 1.92667 33.6123 4.28606 33.6123H17.68C19.2564 33.6123 20.7709 32.9323 21.8115 31.7475C22.8624 30.5523 23.3364 28.976 23.1509 27.4099L21.1521 11.5741H25.397L21.3067 8.56566ZM12.7448 7.79294H18.4218L19.8642 19.2293H17.7624V13.7481H15.7842C14.1048 13.7481 12.7345 12.3984 12.7345 10.7087V7.78263L12.7448 7.79294ZM20.1424 30.2638C19.5242 30.9644 18.6279 31.3766 17.6903 31.3766H4.28606C3.15273 31.3766 2.24606 30.4596 2.24606 29.3263V21.4754H10.88L11.797 14.1602C12.7139 15.2214 14.0327 15.922 15.5164 15.9941V21.4754H20.1321L20.9152 27.6881C21.0388 28.6257 20.7503 29.5632 20.1321 30.2638H20.1424Z" fill="currentColor"/><path d="M21.1319 0.0664062V4.8161H17.6289L21.1319 0.0664062Z" fill="currentColor"/><path d="M17.6294 0.0664062V4.8161H14.1367L17.6294 0.0664062Z" fill="currentColor"/><path d="M14.1358 0.0664062V4.8161H10.6328L14.1358 0.0664062Z" fill="currentColor"/></g><defs><clipPath id="clip0_1643_3351"><rect width="25.5" height="34" fill="currentColor" transform="translate(0 0.0664062)"/></clipPath></defs></svg>
