<svg width="250" height="275" viewBox="0 0 250 275" fill="none" xmlns="http://www.w3.org/2000/svg">
<path d="M168.196 253.743C168.196 253.743 175.959 252.21 180.479 246.381C184.992 240.559 184.545 232.658 184.545 232.658L168.196 253.743Z" fill="#95CC7D"/>
<path d="M176.381 253.743C176.381 253.743 184.144 252.21 188.664 246.381C193.177 240.559 192.73 232.658 192.73 232.658L176.381 253.743Z" fill="#95CC7D"/>
<path d="M184.559 253.743C184.559 253.743 192.322 252.21 196.841 246.381C201.355 240.559 200.907 232.658 200.907 232.658L184.559 253.743Z" fill="#95CC7D"/>
<path d="M192.735 253.743C192.735 253.743 200.499 252.21 205.018 246.381C209.531 240.559 209.084 232.658 209.084 232.658L192.735 253.743Z" fill="#95CC7D"/>
<path d="M200.914 253.743C200.914 253.743 208.677 252.21 213.197 246.381C217.71 240.559 217.263 232.658 217.263 232.658L200.914 253.743Z" fill="#95CC7D"/>
<path d="M209.098 253.743C209.098 253.743 216.861 252.21 221.381 246.381C225.894 240.559 225.446 232.658 225.446 232.658L209.098 253.743Z" fill="#95CC7D"/>
<path d="M168.196 253.743C168.196 253.743 175.959 255.276 180.479 261.105C184.992 266.927 184.545 274.829 184.545 274.829L168.196 253.743Z" fill="#95CC7D"/>
<path d="M176.381 253.743C176.381 253.743 184.144 255.276 188.664 261.105C193.177 266.927 192.73 274.829 192.73 274.829L176.381 253.743Z" fill="#95CC7D"/>
<path d="M184.559 253.743C184.559 253.743 192.322 255.276 196.841 261.105C201.355 266.927 200.907 274.829 200.907 274.829L184.559 253.743Z" fill="#95CC7D"/>
<path d="M192.735 253.743C192.735 253.743 200.499 255.276 205.018 261.105C209.531 266.927 209.084 274.829 209.084 274.829L192.735 253.743Z" fill="#95CC7D"/>
<path d="M200.914 253.743C200.914 253.743 208.677 255.276 213.197 261.105C217.71 266.927 217.263 274.829 217.263 274.829L200.914 253.743Z" fill="#95CC7D"/>
<path d="M209.098 253.743C209.098 253.743 216.861 255.276 221.381 261.105C225.894 266.927 225.446 274.829 225.446 274.829L209.098 253.743Z" fill="#95CC7D"/>
<path d="M225.453 253.066H38.3477V254.421H225.453V253.066Z" fill="#EF4A23"/>
<path d="M38.3476 262.848L0.143555 253.756L38.3476 244.645V262.848Z" fill="#95CC7D"/>
<path d="M121.643 226.427H120.288V253.743H121.643V226.427Z" fill="#EF4A23"/>
<path d="M100.302 226.427H98.9463V253.743H100.302V226.427Z" fill="#EF4A23"/>
<path d="M135.17 72.5459H48.5781L65.3742 82.8946L48.5781 93.2432H65.1834L49.7294 175.612C44.7755 202.02 65.0321 226.434 91.9005 226.434H164.032L135.164 72.5525L135.17 72.5459Z" fill="#95CC7D"/>
<path d="M135.565 203.48H91.9005C83.7426 203.48 78.7755 198.96 76.5387 196.263C74.3018 193.572 70.7755 187.855 72.2821 179.835L73.6176 180.085C72.2163 187.559 75.5058 192.888 77.5913 195.401C79.6768 197.914 84.3084 202.125 91.9071 202.125H135.572V203.48H135.565Z" fill="#EF4A23"/>
<path d="M81.191 146.822V113.5H93.9673C105.277 113.5 114.441 104.329 114.441 93.0196C114.441 81.7104 105.277 72.5459 93.9673 72.5459H69.066L55.1318 146.822H81.1845H81.191Z" fill="#EF4A23"/>
<path fill-rule="evenodd" clip-rule="evenodd" d="M93.9654 106.362C101.33 106.362 107.301 100.391 107.301 93.0262C107.301 85.6612 101.33 79.6907 93.9654 79.6907C86.6004 79.6907 80.6299 85.6612 80.6299 93.0262C80.6299 100.391 86.6004 106.362 93.9654 106.362ZM93.9654 107.737C102.09 107.737 108.676 101.151 108.676 93.0262C108.676 84.9018 102.09 78.3157 93.9654 78.3157C85.841 78.3157 79.2549 84.9018 79.2549 93.0262C79.2549 101.151 85.841 107.737 93.9654 107.737Z" fill="#FFF7C5"/>
<path d="M136.808 51.5589C129.439 79.5392 73.9789 79.5392 66.6039 51.5589C62.1762 34.7431 68.8539 18.4076 81.5249 15.0721C88.4855 13.2365 95.7946 15.6971 101.709 21.0786C107.61 15.7036 114.926 13.2431 121.874 15.0721C134.545 18.4076 141.229 34.7431 136.808 51.5589Z" fill="#EF4A23"/>
<path d="M106.598 41.5393C106.598 30.2037 101.703 21.0129 101.703 21.0129C101.703 21.0129 96.8086 30.2037 96.8086 41.5393C96.8086 52.8748 101.703 62.0656 101.703 62.0656C101.703 62.0656 106.598 52.8748 106.598 41.5393Z" fill="#95CC7D"/>
<path d="M101.704 21.0063C101.704 21.0063 97.5066 27.7169 90.4474 29.8616C83.4014 32.0064 76.1777 28.7695 76.1777 28.7695L101.704 21.0063Z" fill="#95CC7D"/>
<path d="M101.703 21.0063C101.703 21.0063 105.9 27.7169 112.96 29.8616C120.006 32.0064 127.229 28.7695 127.229 28.7695L101.703 21.0063Z" fill="#95CC7D"/>
<path d="M106.597 0.480225L101.709 21.0131L96.8145 0.480225H106.597Z" fill="#95CC7D"/>
<path d="M90.2761 120.138H88.9209V127.197H90.2761V120.138Z" fill="#EF4A23"/>
<path d="M99.5007 120.138H98.1455V127.197H99.5007V120.138Z" fill="#EF4A23"/>
<path d="M108.724 120.138H107.369V127.197H108.724V120.138Z" fill="#EF4A23"/>
<path d="M117.947 120.138H116.592V127.197H117.947V120.138Z" fill="#EF4A23"/>
<path d="M127.172 120.138H125.816V127.197H127.172V120.138Z" fill="#EF4A23"/>
<path d="M136.394 120.138H135.039V127.197H136.394V120.138Z" fill="#EF4A23"/>
<path d="M90.2761 146.822H88.9209V153.881H90.2761V146.822Z" fill="#EF4A23"/>
<path d="M99.5007 146.822H98.1455V153.881H99.5007V146.822Z" fill="#EF4A23"/>
<path d="M108.724 146.822H107.369V153.881H108.724V146.822Z" fill="#EF4A23"/>
<path d="M117.947 146.822H116.592V153.881H117.947V146.822Z" fill="#EF4A23"/>
<path d="M127.172 146.822H125.816V153.881H127.172V146.822Z" fill="#EF4A23"/>
<path d="M136.394 146.822H135.039V153.881H136.394V146.822Z" fill="#EF4A23"/>
<path d="M94.8884 133.48H93.5332V140.54H94.8884V133.48Z" fill="#EF4A23"/>
<path d="M104.112 133.48H102.757V140.54H104.112V133.48Z" fill="#EF4A23"/>
<path d="M113.335 133.48H111.979V140.54H113.335V133.48Z" fill="#EF4A23"/>
<path d="M122.559 133.48H121.204V140.54H122.559V133.48Z" fill="#EF4A23"/>
<path d="M131.784 133.48H130.429V140.54H131.784V133.48Z" fill="#EF4A23"/>
<path d="M94.8884 160.171H93.5332V167.23H94.8884V160.171Z" fill="#EF4A23"/>
<path d="M104.112 160.171H102.757V167.23H104.112V160.171Z" fill="#EF4A23"/>
<path d="M113.335 160.171H111.979V167.23H113.335V160.171Z" fill="#EF4A23"/>
<path d="M122.559 160.171H121.204V167.23H122.559V160.171Z" fill="#EF4A23"/>
<path d="M131.784 160.171H130.429V167.23H131.784V160.171Z" fill="#EF4A23"/>
<path d="M90.2761 173.513H88.9209V180.572H90.2761V173.513Z" fill="#EF4A23"/>
<path d="M99.5007 173.513H98.1455V180.572H99.5007V173.513Z" fill="#EF4A23"/>
<path d="M108.724 173.513H107.369V180.572H108.724V173.513Z" fill="#EF4A23"/>
<path d="M117.947 173.513H116.592V180.572H117.947V173.513Z" fill="#EF4A23"/>
<path d="M127.172 173.513H125.816V180.572H127.172V173.513Z" fill="#EF4A23"/>
<path d="M136.394 173.513H135.039V180.572H136.394V173.513Z" fill="#EF4A23"/>
<path d="M113.335 106.789H111.979V113.849H113.335V106.789Z" fill="#EF4A23"/>
<path d="M122.559 106.789H121.204V113.849H122.559V106.789Z" fill="#EF4A23"/>
<path d="M131.784 106.789H130.429V113.849H131.784V106.789Z" fill="#EF4A23"/>
<path d="M164.04 226.428V95.8882C164.04 85.6711 172.323 77.3882 182.54 77.3882H249.468L188.718 100.158L164.04 226.428Z" fill="#EF4A23"/>
<path d="M164.04 226.428L187.731 123.441C189.527 115.092 196.908 109.132 205.448 109.132H249.468L206.751 127.046" fill="#EF4A23"/>
</svg>
