<svg width="250" height="202" viewBox="0 0 250 202" fill="none" xmlns="http://www.w3.org/2000/svg">
<path d="M156.614 186.408L124.63 193.269V174.844H123.491V193.348H111.447V194.481H124.281L156.614 201.231V200.072L129.833 194.481H156.614V193.348H129.688L156.614 187.567V186.408Z" fill="#FFF7C5"/>
<path d="M201.899 82.2531L186.418 44.475H198.561C198.561 38.0349 193.339 32.813 186.898 32.813H186.418V32.892L97.5466 105.327L94.9258 113.308H186.424V105.327C198.317 105.327 206.416 93.2633 201.906 82.2531H201.899Z" fill="#FFF7C5"/>
<path d="M176.488 32.8127L160.651 0.170898C169.396 0.170898 176.488 7.26294 176.488 16.0078V32.8062V32.8127Z" fill="#765F2C"/>
<path d="M186.425 32.8127L170.588 0.170898C179.333 0.170898 186.425 7.26294 186.425 16.0078V32.8062V32.8127Z" fill="#765F2C"/>
<path d="M166.552 32.8127L150.715 0.170898C159.46 0.170898 166.552 7.26294 166.552 16.0078V32.8062V32.8127Z" fill="#765F2C"/>
<path d="M156.615 32.8127L140.778 0.170898C149.523 0.170898 156.615 7.26294 156.615 16.0078V32.8062V32.8127Z" fill="#765F2C"/>
<path d="M146.678 32.8127L130.841 0.170898C139.586 0.170898 146.678 7.26294 146.678 16.0078V32.8062V32.8127Z" fill="#765F2C"/>
<path d="M81.9404 113.314L66.1035 80.6726C74.8484 80.6726 81.9404 87.7647 81.9404 96.5096V113.308V113.314Z" fill="#765F2C"/>
<path d="M72.0039 113.314L56.167 80.6726C64.9119 80.6726 72.0039 87.7647 72.0039 96.5096V113.308V113.314Z" fill="#765F2C"/>
<path d="M62.0674 113.314L46.2305 80.6726C54.9753 80.6726 62.0674 87.7647 62.0674 96.5096V113.308V113.314Z" fill="#765F2C"/>
<path d="M186.424 113.314C186.424 147.662 158.583 175.503 124.236 175.503C89.8883 175.503 62.0469 147.662 62.0469 113.314" fill="#765F2C"/>
<path d="M186.418 32.7468V105.327H97.5469L114.747 52.9694C118.711 40.9057 129.978 32.7468 142.68 32.7468H186.418Z" fill="#765F2C"/>
<path d="M124.059 164.289C118.218 164.289 113.418 168.76 112.897 174.469C116.572 175.147 120.358 175.503 124.23 175.503C127.984 175.503 131.652 175.161 135.221 174.529C134.727 168.793 129.92 164.289 124.059 164.289Z" fill="#FFF7C5"/>
<path d="M176.081 54.2861C176.081 60.4629 171.07 65.474 164.893 65.474C158.716 65.474 153.705 60.4629 153.705 54.2861" fill="#FFF7C5"/>
<path d="M164.892 57.0585C166.423 57.0585 167.665 55.8173 167.665 54.2862C167.665 52.7551 166.423 51.5139 164.892 51.5139C163.361 51.5139 162.12 52.7551 162.12 54.2862C162.12 55.8173 163.361 57.0585 164.892 57.0585Z" fill="#765F2C"/>
<path d="M153.139 147.602V139.924L132.515 145.739L154.271 126.708V134.386L174.883 128.585L153.139 147.596V147.602ZM154.271 138.423V145.1L170.352 131.035L153.132 135.881V129.204L137.039 143.276L154.265 138.416L154.271 138.423Z" fill="#F85A35"/>
<path d="M94.979 147.602L73.2354 128.592L93.8464 134.393V126.715L115.603 145.745L94.979 139.931V147.609V147.602ZM77.7592 131.041L93.8398 145.107V138.43L111.066 143.289L94.9724 129.217V135.894L77.7527 131.048L77.7592 131.041Z" fill="#F85A35"/>
<path d="M111.936 132.747C110.31 132.747 108.986 131.423 108.986 129.797C108.986 128.17 110.31 126.847 111.936 126.847C113.563 126.847 114.887 128.17 114.887 129.797C114.887 131.423 113.563 132.747 111.936 132.747ZM111.936 127.986C110.935 127.986 110.119 128.802 110.119 129.803C110.119 130.804 110.935 131.621 111.936 131.621C112.937 131.621 113.754 130.804 113.754 129.803C113.754 128.802 112.937 127.986 111.936 127.986Z" fill="#F85A35"/>
<path d="M124.236 132.747C122.61 132.747 121.286 131.423 121.286 129.797C121.286 128.17 122.61 126.847 124.236 126.847C125.863 126.847 127.186 128.17 127.186 129.797C127.186 131.423 125.863 132.747 124.236 132.747ZM124.236 127.986C123.235 127.986 122.419 128.802 122.419 129.803C122.419 130.804 123.235 131.621 124.236 131.621C125.237 131.621 126.054 130.804 126.054 129.803C126.054 128.802 125.237 127.986 124.236 127.986Z" fill="#F85A35"/>
<path d="M124.236 155.814C122.61 155.814 121.286 154.491 121.286 152.864C121.286 151.238 122.61 149.914 124.236 149.914C125.863 149.914 127.186 151.238 127.186 152.864C127.186 154.491 125.863 155.814 124.236 155.814ZM124.236 151.053C123.235 151.053 122.419 151.87 122.419 152.871C122.419 153.872 123.235 154.688 124.236 154.688C125.237 154.688 126.054 153.872 126.054 152.871C126.054 151.87 125.237 151.053 124.236 151.053Z" fill="#F85A35"/>
<path d="M136.531 132.747C134.905 132.747 133.581 131.423 133.581 129.797C133.581 128.17 134.905 126.847 136.531 126.847C138.158 126.847 139.481 128.17 139.481 129.797C139.481 131.423 138.158 132.747 136.531 132.747ZM136.531 127.986C135.53 127.986 134.714 128.802 134.714 129.803C134.714 130.804 135.53 131.621 136.531 131.621C137.532 131.621 138.349 130.804 138.349 129.803C138.349 128.802 137.532 127.986 136.531 127.986Z" fill="#F85A35"/>
<path d="M186.38 115.488C186.366 115.869 186.353 116.251 186.333 116.627H62.1272C62.1074 116.251 62.0942 115.869 62.0811 115.488H186.38Z" fill="#F85A35"/>
<path d="M186.169 118.859C186.143 119.234 186.103 119.616 186.057 119.992H62.4039C62.3578 119.616 62.3183 119.234 62.292 118.859H186.169Z" fill="#F85A35"/>
<path d="M139.027 173.725C138.658 173.817 138.289 173.903 137.914 173.982C137.157 167.009 131.23 161.563 124.059 161.563C116.888 161.563 111.008 166.969 110.217 173.91C109.842 173.824 109.473 173.738 109.104 173.64C110.02 166.199 116.374 160.424 124.059 160.424C131.744 160.424 138.151 166.245 139.027 173.725Z" fill="#F85A35"/>
<path d="M126.693 79.7045L132.507 59.0803H124.829L143.84 37.3367L138.039 57.9477H145.717L126.686 79.7045H126.693ZM127.325 57.9477H134.002L129.149 75.1741L143.221 59.0803H136.544L141.39 41.8606L127.325 57.9411V57.9477Z" fill="#F85A35"/>
<path d="M159.776 94.3432V86.6651L139.151 92.4796L160.908 73.449V81.1271L181.519 75.3257L159.776 94.3366V94.3432ZM160.908 85.1703V91.8475L176.989 77.7885L159.769 82.6351V75.9579L143.675 90.03L160.902 85.1703H160.908Z" fill="#F85A35"/>
<path d="M181.375 40.7478C179.748 40.7478 178.425 39.4243 178.425 37.7978C178.425 36.1713 179.748 34.8477 181.375 34.8477C183.001 34.8477 184.325 36.1713 184.325 37.7978C184.325 39.4243 183.001 40.7478 181.375 40.7478ZM181.375 35.9869C180.374 35.9869 179.557 36.8034 179.557 37.8043C179.557 38.8052 180.374 39.6218 181.375 39.6218C182.376 39.6218 183.192 38.8052 183.192 37.8043C183.192 36.8034 182.376 35.9869 181.375 35.9869Z" fill="#F85A35"/>
<path d="M148.403 73.7188C146.777 73.7188 145.453 72.3952 145.453 70.7687C145.453 69.1422 146.777 67.8186 148.403 67.8186C150.03 67.8186 151.353 69.1422 151.353 70.7687C151.353 72.3952 150.03 73.7188 148.403 73.7188ZM148.403 68.9512C147.402 68.9512 146.586 69.7678 146.586 70.7687C146.586 71.7696 147.402 72.5861 148.403 72.5861C149.404 72.5861 150.221 71.7696 150.221 70.7687C150.221 69.7678 149.404 68.9512 148.403 68.9512Z" fill="#F85A35"/>
<path d="M186.418 102.015V103.147H98.2646L98.6334 102.015H186.418Z" fill="#F85A35"/>
<path d="M186.418 98.6494V99.782H99.3711L99.7399 98.6494H186.418Z" fill="#F85A35"/>
<path d="M182.178 71.5654H162.225C154.165 71.5654 147.606 65.0067 147.606 56.9467V36.9941H167.559C175.619 36.9941 182.178 43.5528 182.178 51.6128V71.5654ZM148.746 38.1268V56.9467C148.746 64.3811 154.797 70.4328 162.232 70.4328H181.052V51.6128C181.052 44.1784 175 38.1268 167.566 38.1268H148.746Z" fill="#F85A35"/>
</svg>
