<svg width="250" height="219" viewBox="0 0 250 219" fill="none" xmlns="http://www.w3.org/2000/svg">
<path d="M109.104 190.538C109.104 199.75 101.637 207.224 92.4178 207.224C83.1988 207.224 75.7314 199.757 75.7314 190.538C75.7314 181.319 83.1988 166.667 92.4178 166.667C101.637 166.667 109.104 181.325 109.104 190.538Z" fill="#FFF7C5"/>
<path d="M142.47 190.538C142.47 199.75 135.003 207.224 125.784 207.224C116.565 207.224 109.098 199.757 109.098 190.538C109.098 181.319 116.565 166.667 125.784 166.667C135.003 166.667 142.47 181.325 142.47 190.538Z" fill="#FFF7C5"/>
<path d="M175.837 190.538C175.837 199.75 168.369 207.224 159.15 207.224C149.931 207.224 142.464 199.757 142.464 190.538C142.464 181.319 149.931 166.667 159.15 166.667C168.369 166.667 175.837 181.325 175.837 190.538Z" fill="#FFF7C5"/>
<path d="M125.625 25.3002C125.474 23.4433 124.835 21.5468 123.715 19.6569L112.903 1.37036L102.09 19.6569C102.057 19.7162 102.031 19.7689 101.998 19.8281C101.965 19.7689 101.939 19.7162 101.906 19.6569L91.0933 1.37036L80.2808 19.6569C80.2478 19.7162 80.2215 19.7689 80.1886 19.8281C80.1556 19.7689 80.1293 19.7162 80.0964 19.6569L69.2838 1.37036L58.4712 19.6569C57.3518 21.5468 56.713 23.4433 56.5616 25.3002C55.9755 32.5306 61.1843 38.8785 68.1709 39.4448C68.3487 39.458 68.5397 39.458 68.7241 39.4646V43.758H69.8567V39.4646C70.0411 39.458 70.2255 39.458 70.4098 39.4448C74.6111 39.1024 78.1604 36.666 80.2017 33.2022C82.2431 36.6594 85.7924 39.1024 89.9936 39.4448C90.178 39.458 90.3624 39.458 90.5468 39.4646V43.758H91.6794V39.4646C91.8638 39.458 92.0481 39.458 92.2325 39.4448C96.4338 39.1024 99.9831 36.666 102.024 33.2022C104.066 36.6594 107.615 39.1024 111.816 39.4448C111.994 39.458 112.185 39.458 112.369 39.4646V43.758H113.502V39.4646C113.686 39.458 113.871 39.458 114.055 39.4448C121.042 38.8785 126.251 32.5306 125.665 25.3002H125.625ZM123.083 20.8488L113.463 30.4695V18.9918L118.829 13.625L122.734 20.2298C122.853 20.4339 122.971 20.6447 123.083 20.8488ZM113.463 17.3851V4.5575L118.23 12.6175L113.463 17.3851ZM112.33 17.3851L107.562 12.6175L112.33 4.5575V17.3851ZM106.963 13.625L112.33 18.9918V30.4695L102.716 20.8554L102.696 20.8751C102.808 20.6578 102.933 20.4471 103.058 20.2298L106.963 13.625ZM101.3 25.3924C101.379 24.4244 101.61 23.4433 101.985 22.4555C102.36 23.4433 102.591 24.431 102.67 25.3924C102.815 27.2033 102.558 28.9483 101.985 30.5419C101.412 28.9418 101.155 27.2033 101.3 25.3924ZM101.261 20.8554L91.6399 30.4761V18.9984L97.0066 13.6316L100.912 20.2364C101.03 20.4405 101.149 20.6512 101.261 20.8554ZM91.6399 17.3917V4.56409L96.4074 12.6241L91.6399 17.3917ZM90.5073 17.3917L85.7397 12.6241L90.5073 4.56409V17.3917ZM85.1405 13.6316L90.5073 18.9984V30.4761L80.8932 20.862L80.8734 20.8817C80.9853 20.6644 81.1105 20.4537 81.2356 20.2364L85.1405 13.6316ZM79.4774 25.399C79.5564 24.431 79.7869 23.4499 80.1622 22.4621C80.5376 23.4499 80.7681 24.4376 80.8471 25.399C80.9919 27.2099 80.7351 28.9549 80.1622 30.5485C79.5893 28.9549 79.3325 27.2099 79.4774 25.399ZM79.4379 20.862L69.8172 30.4827V19.005L75.184 13.6382L79.0889 20.243C79.2074 20.4471 79.3259 20.6578 79.4379 20.862ZM69.8172 17.3982V4.57067L74.5847 12.6307L69.8172 17.3982ZM68.6846 17.3982L63.917 12.6307L68.6846 4.57067V17.3982ZM63.3178 13.6382L68.6846 19.005V30.4827L59.0705 20.8685L59.0507 20.8883C59.1627 20.671 59.2878 20.4603 59.4129 20.243L63.3178 13.6382ZM68.2236 38.3254C61.8625 37.8117 57.1213 32.0104 57.6547 25.4056C57.7469 24.273 58.0498 23.114 58.5437 21.9485L68.678 32.0828V38.3451C68.5265 38.3385 68.3685 38.3451 68.217 38.3254H68.2236ZM70.2781 38.3254C70.1267 38.3385 69.9752 38.3385 69.8172 38.3451V32.0828L78.7333 23.1667C78.5357 23.8845 78.404 24.6022 78.3448 25.3068C78.1538 27.6972 78.6016 29.9888 79.5301 32.0104C77.7455 35.4938 74.3477 37.9895 70.2781 38.3188V38.3254ZM90.0463 38.3254C85.9768 37.9961 82.5789 35.5004 80.7944 32.0169C81.7229 29.9954 82.1772 27.7038 81.9797 25.3134C81.9204 24.6022 81.7953 23.8911 81.5912 23.1733L90.5073 32.0894V38.3517C90.3558 38.3451 90.1978 38.3517 90.0463 38.332V38.3254ZM92.1008 38.3254C91.9494 38.3385 91.7979 38.3385 91.6399 38.3451V32.0828L100.556 23.1667C100.358 23.8845 100.227 24.6022 100.167 25.3068C99.9765 27.6972 100.424 29.9888 101.353 32.0104C99.5682 35.4938 96.1704 37.9895 92.1008 38.3188V38.3254ZM111.869 38.3254C107.799 37.9961 104.402 35.5004 102.617 32.0169C103.546 29.9954 104 27.7038 103.802 25.3134C103.743 24.6022 103.611 23.8911 103.414 23.1733L112.33 32.0894V38.3517C112.179 38.3451 112.02 38.3517 111.869 38.332V38.3254ZM113.917 38.3254C113.765 38.3385 113.614 38.3385 113.456 38.3451V32.0828L123.59 21.9485C124.091 23.114 124.387 24.2664 124.479 25.399C125.013 32.0104 120.271 37.8052 113.91 38.3188L113.917 38.3254Z" fill="#3A8075"/>
<path d="M215.676 204.53C215.524 202.674 214.886 200.777 213.766 198.887L202.954 180.601L192.141 198.887C192.069 199.012 192.003 199.137 191.93 199.262C191.858 199.137 191.792 199.012 191.72 198.887L180.907 180.601L170.094 198.887C170.022 199.012 169.956 199.137 169.884 199.262C169.811 199.137 169.745 199.012 169.673 198.887L158.86 180.601L148.048 198.887C147.975 199.012 147.91 199.137 147.837 199.262C147.765 199.137 147.699 199.012 147.626 198.887L136.814 180.601L126.001 198.887C125.929 199.012 125.863 199.137 125.791 199.262C125.718 199.137 125.652 199.012 125.58 198.887L114.767 180.601L103.955 198.887C103.882 199.012 103.816 199.137 103.744 199.262C103.672 199.137 103.606 199.012 103.533 198.887L92.7207 180.601L81.9082 198.887C81.8357 199.012 81.7699 199.137 81.6974 199.262C81.625 199.137 81.5592 199.012 81.4867 198.887L70.6741 180.601L59.8616 198.887C59.7891 199.012 59.7233 199.137 59.6508 199.262C59.5784 199.137 59.5126 199.012 59.4401 198.887L48.6276 180.601L37.815 198.887C36.6955 200.777 36.0568 202.674 35.9053 204.53C35.3193 211.761 40.528 218.109 47.5147 218.675C47.8835 218.708 48.2588 218.721 48.6341 218.721C49.0095 218.721 49.3782 218.708 49.7536 218.675C54.0338 218.326 57.6358 215.804 59.6574 212.248C61.679 215.811 65.281 218.333 69.5613 218.675C69.93 218.708 70.3054 218.721 70.6807 218.721C71.0561 218.721 71.4248 218.708 71.8002 218.675C76.0804 218.326 79.6824 215.804 81.704 212.248C83.7256 215.811 87.3276 218.333 91.6079 218.675C91.9766 218.708 92.352 218.721 92.7273 218.721C93.1026 218.721 93.4714 218.708 93.8468 218.675C98.127 218.326 101.729 215.804 103.751 212.248C105.772 215.811 109.374 218.333 113.654 218.675C114.023 218.708 114.399 218.721 114.774 218.721C115.149 218.721 115.518 218.708 115.893 218.675C120.174 218.326 123.776 215.804 125.797 212.248C127.819 215.811 131.421 218.333 135.701 218.675C136.07 218.708 136.445 218.721 136.82 218.721C137.196 218.721 137.565 218.708 137.94 218.675C142.22 218.326 145.822 215.804 147.844 212.248C149.865 215.811 153.467 218.333 157.748 218.675C158.116 218.708 158.492 218.721 158.867 218.721C159.242 218.721 159.611 218.708 159.986 218.675C164.267 218.326 167.869 215.804 169.89 212.248C171.912 215.811 175.514 218.333 179.794 218.675C180.163 218.708 180.538 218.721 180.914 218.721C181.289 218.721 181.658 218.708 182.033 218.675C186.313 218.326 189.915 215.804 191.937 212.248C193.959 215.811 197.561 218.333 201.841 218.675C202.21 218.708 202.585 218.721 202.96 218.721C203.336 218.721 203.704 218.708 204.08 218.675C211.066 218.109 216.275 211.761 215.689 204.53H215.676ZM213.134 200.079L203.513 209.7V198.222L208.88 192.855L212.785 199.46C212.904 199.664 213.022 199.875 213.134 200.079ZM203.513 196.615V183.788L208.281 191.848L203.513 196.615ZM202.381 196.615L197.613 191.848L202.381 183.788V196.615ZM197.014 192.855L202.381 198.222V209.7L192.767 200.086L192.747 200.105C192.859 199.888 192.977 199.677 193.109 199.46L197.014 192.855ZM191.924 209.463C191.43 207.948 191.219 206.315 191.351 204.623C191.423 203.753 191.614 202.878 191.924 201.989C192.233 202.878 192.424 203.753 192.497 204.623C192.635 206.315 192.418 207.955 191.924 209.463ZM191.087 200.079L181.467 209.7V198.222L186.834 192.855L190.738 199.46C190.857 199.664 190.975 199.875 191.087 200.079ZM181.467 196.615V183.788L186.234 191.848L181.467 196.615ZM180.334 196.615L175.567 191.848L180.334 183.788V196.615ZM174.967 192.855L180.334 198.222V209.7L170.72 200.086L170.7 200.105C170.812 199.888 170.931 199.677 171.062 199.46L174.967 192.855ZM169.877 209.463C169.383 207.948 169.173 206.315 169.304 204.623C169.377 203.753 169.568 202.878 169.877 201.989C170.187 202.878 170.378 203.753 170.45 204.623C170.588 206.315 170.371 207.955 169.877 209.463ZM169.041 200.079L159.42 209.693V198.215L164.787 192.849L168.692 199.453C168.81 199.658 168.929 199.862 169.041 200.072V200.079ZM159.42 196.615V183.788L164.188 191.848L159.42 196.615ZM158.288 196.615L153.52 191.848L158.288 183.788V196.615ZM152.921 192.855L158.288 198.222V209.7L148.673 200.086L148.654 200.105C148.766 199.888 148.891 199.677 149.016 199.46L152.921 192.855ZM147.831 209.463C147.337 207.948 147.126 206.315 147.258 204.623C147.33 203.753 147.521 202.878 147.831 201.989C148.14 202.878 148.331 203.753 148.403 204.623C148.542 206.315 148.324 207.955 147.831 209.463ZM146.994 200.079L137.374 209.7V198.222L142.74 192.855L146.645 199.46C146.764 199.664 146.882 199.868 146.988 200.079H146.994ZM137.374 196.615V183.788L142.141 191.848L137.374 196.615ZM136.241 196.615L131.473 191.848L136.241 183.788V196.615ZM130.874 192.855L136.241 198.222V209.7L126.627 200.086L126.607 200.105C126.719 199.888 126.844 199.677 126.969 199.46L130.874 192.855ZM125.784 209.463C125.29 207.948 125.079 206.315 125.211 204.623C125.284 203.753 125.475 202.878 125.784 201.989C126.094 202.878 126.284 203.753 126.357 204.623C126.495 206.315 126.278 207.955 125.784 209.463ZM124.948 200.079L115.327 209.7V198.222L120.694 192.855L124.599 199.46C124.717 199.664 124.836 199.875 124.948 200.079ZM115.327 196.615V183.788L120.095 191.848L115.327 196.615ZM114.194 196.615L109.427 191.848L114.194 183.788V196.615ZM108.828 192.855L114.194 198.222V209.7L104.58 200.086L104.561 200.105C104.672 199.888 104.791 199.677 104.923 199.46L108.828 192.855ZM103.737 209.463C103.244 207.948 103.033 206.315 103.165 204.623C103.237 203.753 103.428 202.878 103.737 201.989C104.047 202.878 104.238 203.753 104.31 204.623C104.449 206.315 104.231 207.955 103.737 209.463ZM102.901 200.079L93.2804 209.7V198.222L98.6472 192.855L102.552 199.46C102.671 199.664 102.789 199.875 102.901 200.079ZM93.2804 196.615V183.788L98.048 191.848L93.2804 196.615ZM92.1478 196.615L87.3803 191.848L92.1478 183.788V196.615ZM86.781 192.855L92.1478 198.222V209.7L82.5337 200.086L82.514 200.105C82.6259 199.888 82.7444 199.677 82.8761 199.46L86.781 192.855ZM81.6909 209.463C81.197 207.948 80.9862 206.315 81.1179 204.623C81.1904 203.753 81.3814 202.878 81.6909 201.989C82.0004 202.878 82.1913 203.753 82.2637 204.623C82.402 206.315 82.1847 207.955 81.6909 209.463ZM80.8545 200.079L71.2339 209.7V198.222L76.6006 192.855L80.5055 199.46C80.6241 199.664 80.7426 199.875 80.8545 200.079ZM71.2339 196.615V183.788L76.0014 191.848L71.2339 196.615ZM70.1012 196.615L65.3337 191.848L70.1012 183.788V196.615ZM64.7345 192.855L70.1012 198.222V209.7L60.4871 200.086L60.4674 200.105C60.5793 199.888 60.6979 199.677 60.8296 199.46L64.7345 192.855ZM59.6443 209.463C59.1504 207.948 58.9397 206.315 59.0714 204.623C59.1438 203.753 59.3348 202.878 59.6443 201.989C59.9538 202.878 60.1447 203.753 60.2172 204.623C60.3554 206.315 60.1381 207.955 59.6443 209.463ZM58.808 200.079L49.1873 209.7V198.222L54.5541 192.855L58.459 199.46C58.5775 199.664 58.696 199.875 58.808 200.079ZM49.1873 196.615V183.788L53.9548 191.848L49.1873 196.615ZM48.0547 196.615L43.2871 191.848L48.0547 183.788V196.615ZM42.6879 192.855L48.0547 198.222V209.7L38.4406 200.086L38.4208 200.105C38.5328 199.888 38.6513 199.677 38.783 199.46L42.6879 192.855ZM37.0248 204.623C37.117 203.49 37.4199 202.331 37.9138 201.172L48.0481 211.306V217.569C47.8966 217.562 47.7386 217.569 47.5871 217.549C41.226 217.035 36.4848 211.234 37.0182 204.629L37.0248 204.623ZM49.6417 217.542C49.4902 217.556 49.3387 217.556 49.1807 217.562V211.3L58.426 202.055C58.1692 202.884 58.0046 203.707 57.9388 204.524C57.7544 206.822 58.1561 209.028 59.0121 210.99C57.2605 214.592 53.8034 217.2 49.6417 217.536V217.542ZM60.2698 210.997C61.1259 209.035 61.5276 206.829 61.3432 204.53C61.2773 203.714 61.1127 202.891 60.8559 202.061L70.1012 211.306V217.569C69.9498 217.562 69.7917 217.569 69.6403 217.549C65.4786 217.213 62.0214 214.606 60.2698 211.004V210.997ZM71.6882 217.542C71.5368 217.556 71.3853 217.556 71.2273 217.562V211.3L80.4726 202.055C80.2158 202.884 80.0512 203.707 79.9853 204.524C79.801 206.822 80.2026 209.028 81.0587 210.99C79.3071 214.592 75.85 217.2 71.6882 217.536V217.542ZM82.3164 210.997C83.1725 209.035 83.5742 206.829 83.3898 204.53C83.3239 203.714 83.1593 202.891 82.9025 202.061L92.1478 211.306V217.569C91.9964 217.562 91.8383 217.569 91.6869 217.549C87.5252 217.213 84.068 214.606 82.3164 211.004V210.997ZM93.7348 217.542C93.5834 217.556 93.4319 217.556 93.2739 217.562V211.3L102.519 202.055C102.262 202.884 102.098 203.707 102.032 204.524C101.848 206.822 102.249 209.028 103.105 210.99C101.354 214.592 97.8965 217.2 93.7348 217.536V217.542ZM104.363 210.997C105.219 209.035 105.621 206.829 105.436 204.53C105.371 203.714 105.206 202.891 104.949 202.061L114.194 211.306V217.569C114.043 217.562 113.885 217.569 113.733 217.549C109.572 217.213 106.115 214.606 104.363 211.004V210.997ZM115.781 217.542C115.63 217.556 115.478 217.556 115.32 217.562V211.3L124.566 202.055C124.309 202.884 124.144 203.707 124.078 204.524C123.894 206.822 124.296 209.028 125.152 210.99C123.4 214.592 119.943 217.2 115.781 217.536V217.542ZM126.41 210.997C127.266 209.035 127.667 206.829 127.483 204.53C127.417 203.714 127.252 202.891 126.996 202.061L136.241 211.306V217.569C136.09 217.562 135.931 217.569 135.78 217.549C131.618 217.213 128.161 214.606 126.41 211.004V210.997ZM137.828 217.542C137.677 217.556 137.525 217.556 137.367 217.562V211.3L146.612 202.055C146.356 202.884 146.191 203.707 146.125 204.524C145.941 206.822 146.342 209.028 147.198 210.99C145.447 214.592 141.99 217.2 137.828 217.536V217.542ZM148.456 210.997C149.312 209.035 149.714 206.829 149.53 204.53C149.464 203.714 149.299 202.891 149.042 202.061L158.288 211.306V217.569C158.136 217.562 157.978 217.569 157.827 217.549C153.665 217.213 150.208 214.606 148.456 211.004V210.997ZM159.875 217.542C159.723 217.556 159.572 217.556 159.414 217.562V211.3L168.659 202.055C168.402 202.884 168.237 203.707 168.172 204.524C167.987 206.822 168.389 209.028 169.245 210.99C167.493 214.592 164.036 217.2 159.875 217.536V217.542ZM170.503 210.997C171.359 209.035 171.76 206.829 171.576 204.53C171.51 203.714 171.346 202.891 171.089 202.061L180.334 211.306V217.569C180.183 217.562 180.025 217.569 179.873 217.549C175.711 217.213 172.254 214.606 170.503 211.004V210.997ZM181.921 217.542C181.77 217.556 181.618 217.556 181.46 217.562V211.3L190.706 202.055C190.449 202.884 190.284 203.707 190.218 204.524C190.034 206.822 190.436 209.028 191.292 210.99C189.54 214.592 186.083 217.2 181.921 217.536V217.542ZM192.549 210.997C193.405 209.035 193.807 206.829 193.623 204.53C193.557 203.714 193.392 202.891 193.135 202.061L202.381 211.306V217.569C202.229 217.562 202.071 217.569 201.92 217.549C197.758 217.213 194.301 214.606 192.549 211.004V210.997ZM203.968 217.542C203.816 217.556 203.665 217.556 203.507 217.562V211.3L213.641 201.166C214.142 202.331 214.438 203.483 214.53 204.616C215.063 211.227 210.322 217.022 203.961 217.536L203.968 217.542Z" fill="#3A8075"/>
<path d="M146.902 111.847C138.045 76.3736 133.244 57.1323 133.244 57.1323C131.019 48.2096 122.998 41.9473 113.805 41.9473H57.8921H42.0684L57.8921 56.2499L57.925 137.693L146.902 111.847Z" fill="#FFF7C5"/>
<path d="M81.2951 41.947H57.892V56.5065L39.8623 78.6123C32.0328 88.2066 38.8614 102.588 51.2478 102.588H57.8986V65.7847C58.1357 78.5069 68.5136 88.7466 81.2885 88.7466C94.2149 88.7466 104.692 78.2699 104.692 65.3435C104.692 52.4172 94.2149 41.9404 81.2885 41.9404L81.2951 41.947Z" fill="#3A8075"/>
<path d="M182.394 166.667H79.6419C67.6308 166.667 57.8916 156.928 57.8916 144.917V137.693L204.144 95.2197V144.91C204.144 156.921 194.405 166.66 182.394 166.66V166.667Z" fill="#3A8075"/>
<path d="M81.295 75.7018C75.5792 75.7018 70.9434 71.0659 70.9434 65.3502C70.9434 59.6344 75.5792 54.9985 81.295 54.9985" fill="#FFF7C5"/>
<path d="M81.2959 54.9985C87.0117 54.9985 91.6475 59.6344 91.6475 65.3502C91.6475 71.0659 87.0117 75.7018 81.2959 75.7018" fill="#95CC7D"/>
<path d="M183.883 135.382C189.329 134.368 193.095 131.852 193.095 128.843C193.095 124.905 186.648 121.817 178.424 121.817V123.134C185.661 123.134 191.778 125.748 191.778 128.843C191.778 131.938 185.661 134.552 178.424 134.552V136.211C185.661 136.211 191.778 138.826 191.778 141.921C191.778 145.016 185.661 147.63 178.424 147.63V148.947C186.648 148.947 193.095 145.858 193.095 141.921C193.095 138.911 189.329 136.402 183.883 135.382Z" fill="#95CC7D"/>
<path d="M174.026 135.382C174.026 132.372 170.259 129.863 164.813 128.843C170.259 127.829 174.026 125.313 174.026 122.304C174.026 118.366 167.579 115.278 159.354 115.278V116.595C166.591 116.595 172.709 119.209 172.709 122.304C172.709 125.399 166.591 128.013 159.354 128.013V129.672C166.591 129.672 172.709 132.287 172.709 135.382C172.709 138.477 166.591 141.091 159.354 141.091V142.75C166.591 142.75 172.709 145.364 172.709 148.459C172.709 151.554 166.591 154.169 159.354 154.169V155.486C167.579 155.486 174.026 152.397 174.026 148.459C174.026 145.45 170.259 142.941 164.813 141.92C170.259 140.906 174.026 138.391 174.026 135.382Z" fill="#95CC7D"/>
<path d="M145.736 135.382C151.182 134.368 154.949 131.852 154.949 128.843C154.949 124.905 148.502 121.817 140.277 121.817V123.134C147.514 123.134 153.632 125.748 153.632 128.843C153.632 131.938 147.514 134.552 140.277 134.552V136.211C147.514 136.211 153.632 138.826 153.632 141.921C153.632 145.016 147.514 147.63 140.277 147.63V148.947C148.502 148.947 154.949 145.858 154.949 141.921C154.949 138.911 151.182 136.402 145.736 135.382Z" fill="#95CC7D"/>
</svg>
