<svg width="48" height="48" viewBox="0 0 48 48" fill="none" xmlns="http://www.w3.org/2000/svg">
<path d="M24.0001 47.9732C37.2402 47.9732 47.9733 37.2401 47.9733 24C47.9733 10.7599 37.2402 0.0267334 24.0001 0.0267334C10.76 0.0267334 0.0268555 10.7599 0.0268555 24C0.0268555 37.2401 10.76 47.9732 24.0001 47.9732Z" fill="#592F41"/>
<path d="M38.645 42.9603L34.2998 25.554C33.5892 22.7072 31.0292 20.708 28.0967 20.708H10.9302L15.9817 23.1781L10.9302 25.6525H15.9817L15.9945 46.5948C18.4989 47.4853 21.1916 47.9733 23.9999 47.9733C29.5094 47.9733 34.5909 46.0983 38.645 42.9603Z" fill="#CDBD81"/>
<path d="M23.4435 20.708H15.9775V25.3528L10.224 32.4078C7.72818 35.4687 9.90718 40.0578 13.8585 40.0578H15.9818V28.2467C16.0204 32.3393 19.3466 35.6442 23.4435 35.6442C27.566 35.6442 30.9095 32.3008 30.9095 28.1782C30.9095 24.0557 27.566 20.7123 23.4435 20.7123V20.708Z" fill="#FA3C30"/>
<path d="M26.7481 28.1696C26.7481 29.9933 25.2669 31.4745 23.4432 31.4745C21.6195 31.4745 20.1426 29.9933 20.1426 28.1696C20.1426 26.3459 21.6195 24.869 23.4432 24.869C25.2669 24.869 26.7481 26.3459 26.7481 28.1696Z" fill="#592F41"/>
<path d="M23.4434 29.6636C22.6214 29.6636 21.9536 28.9958 21.9536 28.1738C21.9536 27.3519 22.6214 26.6841 23.4434 26.6841C24.2653 26.6841 24.9331 27.3519 24.9331 28.1738C24.9331 28.9958 24.2653 29.6636 23.4434 29.6636ZM23.4434 27.1122C22.8569 27.1122 22.3817 27.5874 22.3817 28.1738C22.3817 28.7603 22.8569 29.2355 23.4434 29.2355C24.0299 29.2355 24.505 28.7603 24.505 28.1738C24.505 27.5874 24.0299 27.1122 23.4434 27.1122Z" fill="#CDBD81"/>
<path d="M24.6938 20.7166H23.3025C19.6722 20.7166 16.7227 17.7628 16.7227 14.1326C16.7227 13.0409 16.9966 11.9536 17.5146 10.9946L21.8127 3.05348L22.9043 5.06552L23.996 3.04492L25.0876 5.05696L26.175 3.0492L30.4816 10.9946C31.0039 11.9536 31.2778 13.0409 31.2778 14.1326C31.2778 17.7628 28.324 20.7166 24.698 20.7166H24.6938ZM21.8127 3.84118L17.8443 11.1744C17.3562 12.0777 17.0951 13.1008 17.0951 14.1326C17.0951 17.5573 19.882 20.3399 23.3025 20.3399H24.6938C28.1142 20.3399 30.9011 17.5573 30.9011 14.1326C30.9011 13.1008 30.64 12.0777 30.152 11.1744L26.175 3.84118L25.0876 5.84894L23.996 3.8369L22.9043 5.85322L21.8127 3.84118Z" fill="#FA3C30"/>
<path d="M24.6938 19.4837H23.3025C20.3529 19.4837 17.9556 17.0821 17.9556 14.1368C17.9556 13.2464 18.1782 12.3645 18.602 11.5854L21.817 5.64344L22.9086 7.65548L24.0002 5.63916L25.0919 7.6512L26.1792 5.63916L29.4028 11.5811C29.8266 12.3602 30.0492 13.2421 30.0492 14.1325C30.0492 17.0821 27.6519 19.4794 24.7023 19.4794L24.6938 19.4837ZM21.817 6.43113L18.9316 11.7609C18.5378 12.4844 18.3323 13.3063 18.3323 14.1325C18.3323 16.8766 20.5627 19.107 23.3067 19.107H24.698C27.4421 19.107 29.6725 16.8766 29.6725 14.1325C29.6725 13.3063 29.4627 12.4887 29.0732 11.7609L26.1792 6.42685L25.0919 8.43889L24.0002 6.42685L22.9086 8.44317L21.817 6.43113Z" fill="#CDBD81"/>
<path d="M24.6938 18.2508H23.3025C21.0336 18.2508 19.1885 16.4057 19.1885 14.1368C19.1885 13.4519 19.3597 12.7712 19.6851 12.1719L21.817 8.2334L22.9086 10.2454L24.0003 8.2334L25.0919 10.2454L26.1793 8.2334L28.3154 12.1719C28.6408 12.7712 28.812 13.4519 28.812 14.1325C28.812 16.4014 26.967 18.2465 24.6981 18.2465L24.6938 18.2508ZM21.817 9.02109L20.0147 12.3517C19.7193 12.8953 19.5652 13.5118 19.5652 14.1368C19.5652 16.2002 21.2433 17.8784 23.3068 17.8784H24.6981C26.7615 17.8784 28.4396 16.2002 28.4396 14.1368C28.4396 13.5161 28.2812 12.8996 27.9858 12.3517L26.1793 9.02109L25.0919 11.0331L24.0003 9.02109L22.9129 11.0331L21.8213 9.02109H21.817Z" fill="#FA3C30"/>
<path d="M24.6938 17.0179H23.3025C21.7142 17.0179 20.4214 15.725 20.4214 14.1368C20.4214 13.6573 20.5413 13.1822 20.7681 12.7626L21.817 10.8234L22.9086 12.8354L23.996 10.8234L25.0833 12.8354L26.175 10.8234L27.2281 12.7626C27.455 13.1822 27.5748 13.6573 27.5748 14.1368C27.5748 15.725 26.282 17.0179 24.6938 17.0179ZM21.817 11.6068L21.0978 12.9339C20.9009 13.2977 20.7938 13.713 20.7938 14.1282C20.7938 15.5153 21.9197 16.6412 23.3025 16.6412H24.6938C26.0765 16.6412 27.2024 15.5153 27.2024 14.1325C27.2024 13.7173 27.0954 13.302 26.8984 12.9381L26.175 11.6068L25.0833 13.6231L23.996 11.6111L22.9086 13.6231L21.817 11.6111V11.6068Z" fill="#CDBD81"/>
</svg>
