<svg width="48" height="48" viewBox="0 0 48 48" fill="none" xmlns="http://www.w3.org/2000/svg">
<path d="M24.0001 47.9732C37.2402 47.9732 47.9733 37.24 47.9733 24C47.9733 10.7599 37.2402 0.0267334 24.0001 0.0267334C10.76 0.0267334 0.0268555 10.7599 0.0268555 24C0.0268555 37.24 10.76 47.9732 24.0001 47.9732Z" fill="#259E7E"/>
<path d="M32.3991 22.0821L31.59 17.5272H16.4055L11.6108 44.5185C15.2282 46.7104 19.4664 47.9732 23.9999 47.9732C28.5334 47.9732 32.7715 46.7104 36.3889 44.5185L33.6833 29.2912H39.7409L34.5181 25.6867L39.7409 22.0821H32.4033H32.3991Z" fill="#FFF7C5"/>
<path d="M32.399 22.0822H30.6952H24.5949C21.4227 22.0822 18.8499 24.655 18.8499 27.8272C18.8499 29.4154 19.492 30.8495 20.5323 31.8898C21.5725 32.93 23.0066 33.5722 24.5949 33.5722C27.964 33.5722 30.6909 30.8409 30.6909 27.4761V37.0397C30.6909 39.0518 32.322 40.6828 34.334 40.6828H35.6996L32.3947 22.0822H32.399Z" fill="#C1D544"/>
<path d="M24.7747 30.584C23.2507 30.584 22.0178 29.3511 22.0178 27.8271C22.0178 26.3031 23.2507 25.0702 24.7747 25.0702" fill="#259E7E"/>
<path d="M24.7747 25.0702C26.2987 25.0702 27.5316 26.3031 27.5316 27.8271C27.5316 29.3511 26.2987 30.584 24.7747 30.584" fill="#FFF7C5"/>
<path d="M31.1792 15.3482L29.8135 7.66824C29.3127 4.84282 26.8554 2.78369 23.9829 2.78369C21.1147 2.78369 18.6574 4.84282 18.1523 7.66824L16.7867 15.3482H7.64258L9.11522 21.0248H40.2119L41.6846 15.3482H31.1792Z" fill="#C1D544"/>
<path d="M30.9009 13.7686H17.0735L17.0093 14.1324H30.9651L30.9009 13.7686Z" fill="#259E7E"/>
<path d="M9.26072 15.3483H8.90112V17.4502H9.26072V15.3483Z" fill="#259E7E"/>
<path d="M9.60115 19.4451C10.2958 19.1574 10.6256 18.3611 10.3379 17.6665C10.0502 16.9719 9.25384 16.642 8.55923 16.9297C7.86461 17.2174 7.53476 18.0138 7.82248 18.7084C8.11019 19.403 8.90653 19.7329 9.60115 19.4451Z" fill="#FFF7C5"/>
<path d="M13.1562 15.3483H12.7966V17.4502H13.1562V15.3483Z" fill="#259E7E"/>
<path d="M14.3214 18.4084C14.4419 17.6663 13.9379 16.967 13.1958 16.8465C12.4536 16.7261 11.7544 17.23 11.6339 17.9722C11.5134 18.7143 12.0174 19.4136 12.7595 19.534C13.5017 19.6545 14.2009 19.1505 14.3214 18.4084Z" fill="#FFF7C5"/>
<path d="M17.052 15.3483H16.6924V17.4502H17.052V15.3483Z" fill="#259E7E"/>
<path d="M17.8383 19.1464C18.3699 18.6148 18.3699 17.7529 17.8383 17.2212C17.3066 16.6896 16.4447 16.6896 15.9131 17.2212C15.3814 17.7529 15.3814 18.6148 15.9131 19.1464C16.4447 19.6781 17.3066 19.6781 17.8383 19.1464Z" fill="#FFF7C5"/>
<path d="M20.9477 15.3483H20.5881V17.4502H20.9477V15.3483Z" fill="#259E7E"/>
<path d="M21.7357 19.1488C22.2674 18.6171 22.2674 17.7552 21.7357 17.2235C21.2041 16.6919 20.3421 16.6919 19.8105 17.2235C19.2789 17.7552 19.2789 18.6171 19.8105 19.1488C20.3421 19.6804 21.2041 19.6804 21.7357 19.1488Z" fill="#FFF7C5"/>
<path d="M24.8476 15.3483H24.488V17.4502H24.8476V15.3483Z" fill="#259E7E"/>
<path d="M23.3066 18.1865C23.3066 17.4331 23.9145 16.8252 24.668 16.8252C25.4214 16.8252 26.0293 17.4331 26.0293 18.1865C26.0293 18.94 25.4214 19.5479 24.668 19.5479C23.9145 19.5479 23.3066 18.94 23.3066 18.1865Z" fill="#FFF7C5"/>
<path d="M28.7431 15.3483H28.3835V17.4502H28.7431V15.3483Z" fill="#259E7E"/>
<path d="M29.9098 18.4043C30.0302 17.6621 29.5263 16.9629 28.7841 16.8424C28.042 16.7219 27.3427 17.2259 27.2223 17.968C27.1018 18.7102 27.6058 19.4094 28.3479 19.5299C29.09 19.6504 29.7893 19.1464 29.9098 18.4043Z" fill="#FFF7C5"/>
<path d="M32.6389 15.3483H32.2793V17.4502H32.6389V15.3483Z" fill="#259E7E"/>
<path d="M31.0977 18.1865C31.0977 17.4331 31.7055 16.8252 32.459 16.8252C33.2124 16.8252 33.8203 17.4331 33.8203 18.1865C33.8203 18.94 33.2124 19.5479 32.459 19.5479C31.7055 19.5479 31.0977 18.94 31.0977 18.1865Z" fill="#FFF7C5"/>
<path d="M36.5346 15.3483H36.175V17.4502H36.5346V15.3483Z" fill="#259E7E"/>
<path d="M37.7037 18.4065C37.8242 17.6643 37.3202 16.9651 36.5781 16.8446C35.836 16.7241 35.1367 17.2281 35.0162 17.9702C34.8958 18.7123 35.3997 19.4116 36.1418 19.5321C36.884 19.6526 37.5833 19.1486 37.7037 18.4065Z" fill="#FFF7C5"/>
<path d="M40.4304 15.3483H40.0708V17.4502H40.4304V15.3483Z" fill="#259E7E"/>
<path d="M38.8892 18.1865C38.8892 18.94 39.4971 19.5479 40.2505 19.5479C41.0039 19.5479 41.6118 18.94 41.6118 18.1865C41.6118 17.4331 41.0039 16.8252 40.2505 16.8252C39.4971 16.8252 38.8892 17.4331 38.8892 18.1865Z" fill="#FFF7C5"/>
</svg>
