<svg width="25" height="48" viewBox="0 0 25 48" fill="none" xmlns="http://www.w3.org/2000/svg">
<g clip-path="url(#clip0_1491_8152)">
<path d="M18.5225 17.7557C16.981 16.9392 14.982 16.4902 12.3749 16.4902C9.7641 16.4902 7.76252 16.9396 6.21946 17.7568C7.38707 18.3905 8.55493 19.0243 9.72295 19.6581L12.3699 21.0946L15.0248 19.6538C16.1909 19.0211 17.3569 18.3883 18.5225 17.7557Z" fill="#FFC517"/>
<path d="M19.648 18.4757C18.2871 19.2143 16.926 19.953 15.5646 20.6917L13.596 21.76C15.3346 22.7036 17.0732 23.6475 18.8116 24.5918L22.5268 22.5748C21.8991 20.9025 20.9937 19.5068 19.648 18.4757Z" fill="#FFC517"/>
<path d="M22.8986 23.7039L20.0369 25.2576C21.2249 25.9031 22.4127 26.5488 23.6003 27.1948C23.4305 25.9507 23.2084 24.7807 22.8986 23.7039Z" fill="#FFC517"/>
<path d="M23.7705 28.619C23.7794 28.7042 23.7881 28.7898 23.7967 28.8756L18.8077 31.5842L13.5956 28.7545L18.8114 25.9229C20.4648 26.8211 22.1179 27.7198 23.7705 28.619Z" fill="#FFC517"/>
<path d="M23.9117 30.1441C23.9938 31.1395 24.0619 32.1675 24.1306 33.2202C24.1581 33.6477 24.1742 34.0747 24.1783 34.4999L20.0335 32.2497L23.9117 30.1441Z" fill="#FFC517"/>
<path d="M24.052 37.0577C22.7122 37.7845 21.3721 38.5117 20.0318 39.239L23.1533 40.9336C23.606 39.7232 23.8993 38.4152 24.052 37.0577Z" fill="#FFC517"/>
<path d="M22.6929 42.0147L18.8057 39.9043L13.596 42.7316C15.5631 43.7992 17.53 44.8664 19.4961 45.933C20.8956 44.9126 21.9456 43.5666 22.6929 42.0147Z" fill="#FFC517"/>
<path d="M18.359 46.6468C16.3632 45.5641 14.3666 44.4807 12.3699 43.3971C10.3755 44.4794 8.38134 45.5615 6.38787 46.643C7.99426 47.5058 9.97374 48.0002 12.3749 48.0002C14.775 48.0002 16.7534 47.5073 18.359 46.6468Z" fill="#FFC517"/>
<path d="M5.25192 45.9285C7.21528 44.8635 9.17939 43.7977 11.1438 42.7316L5.93405 39.9043L2.05714 42.0091C2.80432 43.5611 3.85388 44.9074 5.25192 45.9285Z" fill="#FFC517"/>
<path d="M1.59686 40.928L4.70801 39.239C3.37149 38.5137 2.03515 37.7886 0.699164 37.0639C0.852262 38.417 1.14536 39.721 1.59686 40.928Z" fill="#FFC517"/>
<path d="M0.571533 34.4944L4.70629 32.2497L0.834722 30.1478C0.753682 31.142 0.686599 32.1688 0.619135 33.2202C0.591782 33.6459 0.575743 34.071 0.571533 34.4944Z" fill="#FFC517"/>
<path d="M0.94865 28.8787C0.957379 28.7907 0.966274 28.7031 0.975348 28.6158C2.62596 27.7177 4.27707 26.8201 5.92843 25.9229L11.1441 28.7545L5.93205 31.5842L0.94865 28.8787Z" fill="#FFC517"/>
<path d="M1.14456 27.1921C1.31338 25.9496 1.53462 24.7809 1.8437 23.7053L4.70294 25.2576C3.51664 25.9022 2.33047 26.547 1.14456 27.1921Z" fill="#FFC517"/>
<path d="M2.21509 22.576L5.92825 24.5919C7.66667 23.6475 9.40532 22.7036 11.1439 21.76L9.11536 20.6592C7.77469 19.9317 6.43416 19.2042 5.09392 18.4768C3.74765 19.508 2.84228 20.9038 2.21509 22.576Z" fill="#FFC517"/>
<path d="M18.8077 32.9151L24.0196 35.7447C22.2821 36.6871 20.5441 37.6301 18.8058 38.5734L13.5956 35.7448L18.8077 32.9151Z" fill="#FFC517"/>
<path d="M12.3699 36.4102L17.5798 39.2387L12.3699 42.0662L7.15995 39.2387L12.3699 36.4102Z" fill="#FFC517"/>
<path d="M0.720204 35.7447C2.45762 36.6871 4.19564 37.6301 5.93393 38.5734L11.1441 35.7448L5.93205 32.9151L0.720204 35.7447Z" fill="#FFC517"/>
<path d="M12.3699 29.42L17.5819 32.2497L12.3699 35.0793L7.15781 32.2497L12.3699 29.42Z" fill="#FFC517"/>
<path d="M12.3699 22.4254C14.1086 23.3691 15.8474 24.3129 17.586 25.2572L12.3699 28.0891L7.15384 25.2573C8.89243 24.313 10.6312 23.3691 12.3699 22.4254Z" fill="#FFC517"/>
<path fill-rule="evenodd" clip-rule="evenodd" d="M10.5373 6.69C10.5373 7.67006 10.6662 8.60031 10.8558 9.43836C10.6606 9.16493 10.4512 8.89751 10.2275 8.63957C7.20122 5.19957 2.33713 4.55957 2.33713 4.55957L9.51769 12.736C9.08799 12.5425 8.64832 12.3869 8.18007 12.2599C4.09503 11.1699 0 13.1599 0 13.1599L11.4863 16.2473L11.4861 16.2496L11.9854 16.3796L11.9871 16.3777L11.9954 16.3799L12.375 16.4799L12.7376 16.3818L12.7445 16.3896L13.2322 16.2626L13.2339 16.2796L13.2439 16.2596L13.2322 16.2626L13.2313 16.2532L13.2439 16.2499L24.7303 13.165C24.7367 13.1681 24.74 13.1697 24.74 13.1697L24.75 13.1597L24.7303 13.165C24.5085 13.0589 20.5389 11.2009 16.5599 12.2697C16.0864 12.3981 15.6422 12.5558 15.2079 12.7524L22.4128 4.55957H22.3728C22.3728 4.55957 17.5087 5.19957 14.4824 8.63957C14.2792 8.86463 14.091 9.09719 13.9162 9.33561C14.0937 8.52385 14.2128 7.62928 14.2128 6.69C14.2128 3 12.375 0 12.375 0C12.375 0 10.5373 3 10.5373 6.69ZM15.192 12.7596C15.1919 12.7596 15.1921 12.7595 15.192 12.7596V12.7596Z" fill="#3A8075"/>
</g>
<defs>
<clipPath id="clip0_1491_8152">
<rect width="25" height="48.0002" fill="white"/>
</clipPath>
</defs>
</svg>
