<svg xmlns="http://www.w3.org/2000/svg" width="100%" viewBox="0 0 40 41" fill="none"><g clip-path="url(#clip0_1643_3326)"><path d="M29.0348 13.6651C28.8424 13.1665 28.5478 12.7137 28.1698 12.3357C27.7919 11.9578 27.3391 11.6632 26.8404 11.4708C26.1527 11.2171 25.4265 11.0834 24.6935 11.0756C23.4744 11.0203 23.1083 11.0098 20.0208 11.0098C16.9334 11.0098 16.5679 11.0216 15.3482 11.0756C14.6152 11.0835 13.889 11.2171 13.2013 11.4708C12.7026 11.6632 12.2498 11.9578 11.8719 12.3357C11.4939 12.7137 11.1993 13.1665 11.0069 13.6651C10.7533 14.3529 10.6196 15.0791 10.6118 15.8121C10.5564 17.0311 10.5459 17.3973 10.5459 20.4847C10.5459 23.5721 10.5578 23.9376 10.6118 25.1573C10.6196 25.8905 10.7533 26.617 11.0069 27.3049C11.1993 27.8036 11.4939 28.2564 11.8719 28.6344C12.2498 29.0123 12.7026 29.3069 13.2013 29.4993C13.8891 29.7529 14.6153 29.8865 15.3482 29.8945C16.5673 29.9498 16.9328 29.9603 20.0208 29.9603C23.1089 29.9603 23.4738 29.9485 24.6935 29.8945C25.4264 29.8866 26.1526 29.7529 26.8404 29.4993C27.3391 29.3069 27.792 29.0121 28.1699 28.6341C28.5479 28.256 28.8425 27.803 29.0348 27.3043C29.2884 26.6163 29.4221 25.8899 29.4299 25.1567C29.4853 23.9376 29.4958 23.5721 29.4958 20.4841C29.4958 17.396 29.4839 17.0311 29.4299 15.8115C29.4221 15.0785 29.2884 14.3529 29.0348 13.6651ZM20.0208 26.4224C18.8465 26.4224 17.6985 26.0742 16.722 25.4218C15.7456 24.7693 14.9845 23.842 14.5351 22.757C14.0857 21.672 13.9681 20.4781 14.1972 19.3263C14.4263 18.1745 14.9918 17.1165 15.8222 16.2861C16.6526 15.4557 17.7106 14.8902 18.8625 14.6611C20.0143 14.432 21.2081 14.5496 22.2931 14.999C23.3781 15.4484 24.3054 16.2094 24.9579 17.1859C25.6103 18.1623 25.9586 19.3103 25.9586 20.4847C25.9586 22.0595 25.333 23.5698 24.2195 24.6833C23.1059 25.7969 21.5956 26.4224 20.0208 26.4224ZM26.193 15.7002C25.9186 15.7002 25.6503 15.6188 25.4221 15.4663C25.1939 15.3138 25.0161 15.0971 24.911 14.8436C24.806 14.59 24.7785 14.311 24.8321 14.0418C24.8856 13.7726 25.0178 13.5254 25.2118 13.3313C25.4059 13.1373 25.6531 13.0051 25.9223 12.9516C26.1915 12.898 26.4705 12.9255 26.7241 13.0305C26.9776 13.1356 27.1943 13.3134 27.3468 13.5416C27.4993 13.7698 27.5807 14.0381 27.5807 14.3125C27.5807 14.6806 27.4345 15.0335 27.1742 15.2937C26.914 15.554 26.5611 15.7002 26.193 15.7002Z" fill="currentColor"/><path d="M20.0216 16.6309C19.2593 16.6309 18.514 16.8569 17.8801 17.2805C17.2462 17.704 16.7522 18.3061 16.4604 19.0104C16.1687 19.7147 16.0923 20.4898 16.2411 21.2375C16.3898 21.9852 16.7569 22.6721 17.296 23.2112C17.8351 23.7502 18.5219 24.1174 19.2696 24.2661C20.0174 24.4148 20.7924 24.3385 21.4968 24.0467C22.2011 23.755 22.8031 23.2609 23.2267 22.627C23.6502 21.9931 23.8763 21.2479 23.8763 20.4855C23.8764 19.9793 23.7767 19.478 23.5831 19.0103C23.3894 18.5426 23.1054 18.1176 22.7475 17.7597C22.3895 17.4017 21.9646 17.1178 21.4969 16.9241C21.0292 16.7304 20.5279 16.6308 20.0216 16.6309Z" fill="currentColor"/><path d="M20.0003 0.0664063C16.0446 0.0664063 12.1778 1.2394 8.88875 3.43707C5.59971 5.63473 3.03622 8.75836 1.52244 12.4129C0.00866593 16.0675 -0.387407 20.0889 0.38431 23.9686C1.15603 27.8483 3.06087 31.412 5.85797 34.2091C8.65507 37.0062 12.2188 38.911 16.0985 39.6828C19.9782 40.4545 23.9996 40.0584 27.6541 38.5446C31.3087 37.0308 34.4323 34.4674 36.63 31.1783C38.8277 27.8893 40.0007 24.0224 40.0007 20.0667C40.0008 17.4402 39.4835 14.8394 38.4784 12.4128C37.4733 9.98625 36.0001 7.78139 34.1429 5.92417C32.2857 4.06695 30.0808 2.59374 27.6542 1.58866C25.2276 0.583584 22.6268 0.0663198 20.0003 0.0664063ZM31.5142 25.2524C31.495 26.2116 31.3133 27.1607 30.9768 28.0592C30.6797 28.8273 30.2254 29.5249 29.6431 30.1073C29.0607 30.6896 28.3632 31.1439 27.5951 31.441C26.6965 31.7775 25.7475 31.9592 24.7882 31.9784C23.5547 32.0351 23.1609 32.0482 20.0208 32.0482C16.8807 32.0482 16.4862 32.0351 15.2533 31.9784C14.2945 31.959 13.3459 31.7773 12.4478 31.441C11.6798 31.1438 10.9824 30.6894 10.4002 30.1071C9.81797 29.5247 9.36376 28.8272 9.06664 28.0592C8.72997 27.1608 8.54825 26.2117 8.52924 25.2524C8.4726 24.0189 8.45943 23.6257 8.45943 20.4849C8.45943 17.3442 8.4726 16.9503 8.52924 15.7175C8.54824 14.758 8.72996 13.8087 9.06664 12.91C9.36395 12.1422 9.81824 11.445 10.4005 10.8629C10.9827 10.2808 11.68 9.82666 12.4478 9.5295C13.3465 9.19298 14.2958 9.01106 15.2553 8.99144C16.4881 8.93546 16.882 8.92229 20.0227 8.92229C23.1635 8.92229 23.5567 8.93546 24.7902 8.99144C25.7494 9.01112 26.6985 9.19304 27.597 9.5295C28.3646 9.82655 29.0617 10.2805 29.6438 10.8624C30.2259 11.4443 30.6802 12.1412 30.9775 12.9087C31.3139 13.8074 31.4956 14.7567 31.5149 15.7162C31.5715 16.949 31.5841 17.3429 31.5841 20.4836C31.5841 23.6244 31.5715 24.0175 31.5149 25.2511" fill="currentColor"/></g><defs><clipPath id="clip0_1643_3326"><rect width="39.9993" height="40" fill="currentColor" transform="translate(0.000976562 0.0664062)"/></clipPath></defs></svg>
